<svg width="934" height="200" viewBox="0 0 934 200" fill="none" xmlns="http://www.w3.org/2000/svg">
<mask id="mask0_7_126" style="mask-type:luminance" maskUnits="userSpaceOnUse" x="0" y="0" width="934" height="200">
<path d="M0 0H933.654V200H0V0Z" fill="white"/>
</mask>
<g mask="url(#mask0_7_126)">
<path d="M260.447 73.8468C254.152 85.3698 240.798 110.733 239.605 112.615C236.03 118.221 228.981 114.918 230.551 106.542C233.616 90.0271 250.309 57.0437 263.248 33.1107C240.963 38.91 248.767 22.2437 261.975 18.2894C285.792 11.1832 323.148 3.12843 353.374 6.29936C366.968 7.72911 365.257 16.9258 354.487 17.3835C323.143 19.3653 293.752 25.4854 284.604 29.0857C278.884 37.5463 275.777 43.7607 271.085 51.3059C279.577 49.508 289.216 47.7669 296.397 47.5923C303.584 47.4177 305.399 49.2438 305.272 52.3392C305.116 56.3642 301.075 57.1051 297.18 58.1337C286.108 61.1678 281.676 62.2107 270.34 65.7213C264.021 67.7032 263.823 67.6324 260.442 73.8468H260.447ZM690.758 88.6587C682.204 86.5872 661.041 87.814 641.42 95.9113C646.249 78.1644 663.724 46.7146 683.161 19.8466C691.724 8.01695 677.79 8.44634 668.359 20.2241C659.99 30.6665 622.563 77.8247 619.574 96.6568C617.716 108.335 626.331 115.159 640.001 111.36C653.676 107.566 667.336 99.5352 687.264 97.8365C693.346 97.2938 697.925 90.3904 690.758 88.6587ZM558.386 110.723C575.767 118.046 598.637 94.8684 613.42 73.257C634.663 42.1328 651.648 8.37556 646.701 5.70009C643.952 4.55818 640.802 5.45944 637.888 10.348C590.819 89.14 571.439 101.833 567.407 97.4967C565.011 94.9156 569.604 83.152 579.804 62.088C588.655 43.789 601.547 25.7685 595.02 20.9885C588.725 16.3595 580.091 27.0048 573.556 35.9985C560.433 54.0379 537.242 101.833 558.386 110.723ZM804.649 89.1022C793.2 89.1022 789.928 100.743 802.075 102.947C857.486 113.012 929.655 46.0304 932.98 15.1799C933.762 7.9037 929.028 2.76509 921.931 1.42027C886.924 -5.21887 746.343 40.7361 746.343 117.537C746.343 148.831 768.638 174.784 804.951 174.784C846.305 174.784 890.149 144.83 909.379 119.811C914.566 113.054 913.59 101.574 901.462 110.869C866.195 137.921 833.579 144.452 814.415 144.598C783.699 144.839 759.707 115.508 790.324 79.7593C823.063 41.5241 902.4 16.251 905.027 19.4502C908.125 23.1874 854.694 89.0456 804.649 89.1022ZM743.651 8.24344C722.573 17.6147 687.023 49.5316 674.018 68.0476C666.039 79.4101 678.38 79.9528 687.169 71.3318C704.758 54.0757 732.055 28.9772 733.512 30.0389C733.772 30.2229 722.61 53.3632 717.631 78.1691C716.249 73.78 714.075 69.6811 711.218 66.0752C707.262 60.8611 697.892 61.7199 702.527 69.9445C705.776 75.9809 708.017 82.5079 709.162 89.2674C710.812 98.3838 710.812 104.046 711.845 108.288C714.684 119.882 726.26 118.415 727.717 107.179C734.333 56.2321 753.199 26.3395 757.764 16.3595C761.338 8.5879 751.771 4.62896 743.651 8.24344ZM318.135 109.425C302.438 109.284 295.379 97.9356 297.166 85.4736C300.679 60.913 322.271 35.5692 347.008 33.3939C350.87 33.0588 352.902 29.987 356.66 29.6472C365.921 28.7884 372.806 39.2308 370.604 54.9628C367.223 78.9052 341.463 109.647 318.135 109.425ZM353.94 42.7651C327.038 46.7335 304.861 91.4144 313.83 95.4488C323.497 99.8466 357.802 73.526 353.94 42.7887V42.7651ZM126.637 156.598C126.635 163.991 124.723 171.259 121.084 177.694C117.446 184.129 112.207 189.513 105.875 193.323C99.5427 197.132 92.3335 199.238 84.9477 199.436C77.5619 199.634 70.2506 197.916 63.724 194.451C57.9752 197.555 51.5939 199.304 45.0669 199.565C38.54 199.826 32.0396 198.592 26.0616 195.957C20.0836 193.322 14.7857 189.356 10.5721 184.361C6.35842 179.366 3.34023 173.474 1.74767 167.135C0.155103 160.796 0.030215 154.176 1.38253 147.781C2.73484 141.386 5.52864 135.384 9.55089 130.234C13.5731 125.083 18.7176 120.92 24.592 118.061C30.4664 115.203 36.9155 113.724 43.4477 113.738C50.5229 113.716 57.4919 115.459 63.724 118.811C70.2485 115.324 77.5642 113.587 84.9586 113.77C92.3531 113.953 99.5742 116.049 105.919 119.853C112.263 123.658 117.515 129.043 121.162 135.482C124.81 141.921 126.728 149.196 126.732 156.598H126.637ZM10.7793 133.207H18.8143C16.9882 132.096 15.2452 130.853 13.5991 129.489C12.5829 130.674 11.6351 131.915 10.7604 133.207H10.7698H10.7793ZM3.04596 155.942H10.7038V133.236C5.90568 139.848 3.24638 147.772 3.08368 155.942H3.04596ZM13.5425 183.815C15.4381 182.258 17.4469 180.842 19.5547 179.592H10.7085V157.367H3.0884C3.24354 167.17 6.97701 176.577 13.5849 183.815H13.5425ZM42.4763 196.98C36.4442 191.39 31.6354 184.61 28.3536 177.067C27.8463 177.247 27.3432 177.439 26.8447 177.643V179.578H22.3085C19.5643 181.065 16.9767 182.824 14.5846 184.829C21.9331 192.379 31.9474 196.739 42.4763 196.98ZM27.8208 175.727C27.4616 174.865 27.139 173.988 26.8541 173.099V176.072L27.8208 175.727ZM42.7498 174.472C38.3177 174.535 33.9187 175.247 29.6928 176.586C32.7141 183.574 37.1615 189.854 42.7498 195.022V174.472ZM42.7498 157.296H39.5811V163.284H26.84V168.116C27.4341 170.579 28.2075 173 29.1506 175.35C33.5474 173.943 38.1293 173.2 42.7451 173.146L42.7546 157.291L42.7498 157.296ZM42.7498 140.134H41.1277V145.632H26.84V151.69H39.5811V155.98H42.7687L42.7498 140.134ZM42.7498 118.193C38.109 122.487 34.2479 127.554 31.3385 133.17H41.1277V138.691H42.7498V118.193ZM42.7498 116.258C32.1047 116.44 21.9674 120.845 14.5657 128.503C16.7627 130.305 19.1264 131.893 21.6247 133.245H29.7353C32.9463 126.821 37.3614 121.075 42.7404 116.319L42.7498 116.258ZM44.1645 116.258C49.1648 120.668 53.3333 125.941 56.4717 131.825H57.0564C58.1418 131.83 59.2149 132.055 60.211 132.486C61.2071 132.918 62.1054 133.547 62.8517 134.335C66.1863 132.751 69.3153 130.765 72.1694 128.423C64.7876 120.858 54.7239 116.509 44.1597 116.319L44.1645 116.258ZM68.0717 179.535L75.0269 157.31H64.2757V177.997C67.4587 179.592 70.4482 181.536 73.1879 183.796C74.3903 182.456 75.5126 181.045 76.55 179.573L68.0717 179.535ZM75.8851 184.608C78.5796 185.404 81.3747 185.808 84.1843 185.806C90.7106 185.745 97.036 183.54 102.188 179.53H97.8967L96.5953 173.901H85.9243L84.5379 179.535H79.7093C78.5493 181.328 77.2667 183.046 75.8757 184.664L75.8851 184.608ZM94.2281 163.681L91.4366 151.69L88.5413 163.699L94.2281 163.681ZM111.095 167.894C112.958 163.455 113.694 158.623 113.239 153.83C112.783 149.036 111.15 144.43 108.485 140.421C105.819 136.412 102.204 133.126 97.9622 130.854C93.7199 128.581 88.9818 127.395 84.1701 127.399C81.3597 127.399 78.5588 127.795 75.8663 128.588C78.0118 131.06 79.8602 133.778 81.3786 136.676L82.3453 133.576H101.471L111.095 167.894ZM73.1832 129.466C70.3021 131.839 67.1474 133.854 63.7995 135.487C64.9212 137.216 65.3363 139.31 64.959 141.337C64.5816 143.364 63.4407 145.168 61.7719 146.377C62.0076 147.467 62.1962 148.548 62.3471 149.652H64.2805V155.914H75.4513L80.2799 140.318C78.5081 136.345 76.1123 132.681 73.1832 129.466ZM44.1597 138.752C45.8337 138.728 47.5077 138.606 49.1675 138.384C49.4438 136.897 50.1345 135.519 51.16 134.409C52.1854 133.298 53.5037 132.501 54.9628 132.108C52.1206 126.92 48.4617 122.225 44.1267 118.202L44.1597 138.752ZM44.1597 155.914H49.6438V149.652H60.9278C60.7911 148.803 60.6449 147.967 60.4845 147.137C59.2605 147.712 57.9113 147.968 56.5619 147.883C55.2125 147.797 53.9065 147.372 52.7649 146.647C51.6233 145.922 50.683 144.92 50.0311 143.735C49.3791 142.549 49.0367 141.219 49.0355 139.865C47.4228 140.016 45.7913 140.125 44.2069 140.144L44.1597 155.914ZM44.1597 173.08C45.994 173.104 47.8236 173.241 49.6438 173.495V157.334H44.1645V173.08H44.1597ZM44.1597 195.031C48.9223 190.596 52.8833 185.367 55.854 179.573H49.6438V174.925C47.8264 174.67 45.9947 174.532 44.1597 174.51V195.031ZM72.226 184.82C69.7703 182.792 67.107 181.03 64.2805 179.563H57.4148C54.1534 186.159 49.6531 192.064 44.1597 196.956C54.7461 196.788 64.8359 192.435 72.226 184.848V184.82ZM114.335 130.433L111.906 132.368L108.478 128.965L110.487 126.465C109.24 125.366 107.934 124.337 106.573 123.383L104.725 125.931L100.533 123.553L101.839 120.58C100.355 119.843 98.8274 119.197 97.2649 118.646L96.1332 121.642L91.4366 120.396L91.96 117.169C90.3272 116.819 88.6733 116.576 87.0088 116.442L86.6976 119.641H81.869L81.5248 116.348C79.8555 116.437 78.1957 116.631 76.55 116.928L77.0923 120.165L72.4099 121.439L71.2216 118.297C69.5146 118.864 67.8451 119.538 66.2232 120.316C69.422 122.317 72.3425 124.732 74.909 127.498C80.6112 125.696 86.7157 125.604 92.4695 127.233C98.2233 128.862 103.375 132.141 107.288 136.665C111.202 141.19 113.706 146.761 114.492 152.693C115.279 158.625 114.312 164.657 111.713 170.046L114.438 179.563H104.522C100.529 183.07 95.6994 185.486 90.5006 186.58C85.3018 187.673 79.909 187.407 74.843 185.806C72.2676 188.564 69.3465 190.976 66.1525 192.983C67.7793 193.771 69.4627 194.446 71.1838 194.993L72.2684 191.903L76.9838 193.021L76.5311 196.357C78.1721 196.64 79.8319 196.824 81.4918 196.914L81.7464 193.682L86.575 193.564L86.9994 196.82C88.6579 196.695 90.3058 196.457 91.9317 196.107L91.3517 192.964L96.0058 191.596L97.2507 194.607C98.8115 194.064 100.339 193.417 101.82 192.672L100.457 189.775L104.597 187.274L106.531 189.855C107.894 188.898 109.2 187.862 110.444 186.755L108.417 184.367L111.774 180.875L114.273 182.857C115.358 181.588 116.362 180.257 117.287 178.87L114.726 177.091L117.065 172.849L119.96 174.095C120.691 172.594 121.337 171.051 121.894 169.475L118.994 168.437L120.163 163.709L123.289 164.181C123.591 162.633 123.794 161.066 123.902 159.495L120.828 159.188V154.356L123.949 154.007C123.846 152.356 123.638 150.709 123.332 149.081L120.281 149.591L118.975 144.929L121.931 143.787C121.39 142.212 120.761 140.67 120.045 139.167L117.211 140.455L114.769 136.279L117.324 134.415C116.407 133.029 115.412 131.699 114.335 130.433ZM369.642 91.2115C377.908 68.9866 391.474 43.2511 394.832 37.1074C392.205 37.919 390.923 38.7212 388.192 39.5328C379.356 42.1281 379.125 34.3517 389.253 27.5616C404.154 17.5675 419.338 13.3962 437.53 13.349C456.741 13.2877 460.98 23.211 460.14 29.6567C458.254 44.1477 428.618 61.852 409.247 71.0392C415.863 77.2207 438.049 92.9338 455.255 100.776C463.347 104.466 456.693 111.648 444.905 108.232C429.735 103.857 404.187 88.3897 390.253 77.6831C386.306 86.4315 381.845 95.5574 378.37 103.485C373.466 114.564 364.648 104.57 369.647 91.1832L369.642 91.2115ZM396.6 63.6074C417.442 51.3766 440.713 38.4853 441.623 30.7561C442.415 23.9943 427.698 26.6981 412.859 31.898C408.03 40.335 403.31 50.2442 396.6 63.5791V63.6074ZM564.219 20.762C571.519 8.59734 558.58 3.86453 543.943 12.7639C529.306 21.6633 512.882 35.2152 493.059 62.7627C500.853 26.6556 504.645 24.485 505.187 17.3504C505.687 11.1879 500.995 6.72404 490.239 15.0619C481.232 22.0172 464.219 42.2224 451.068 70.1333C445.126 82.7509 452.487 93.4292 457.462 83.2039C462.05 73.7855 477.979 47.3139 487.914 35.1492C481.28 55.2742 477.488 73.1815 476.432 86.356C475.631 96.3737 484.698 101.111 490.503 90.3385C502.301 68.444 538.709 30.2512 539.935 31.4026C540.303 31.747 516.136 72.2519 511.935 101.13C509.784 115.796 519.814 122.553 522.973 111.7C534.413 72.3935 545.032 52.6837 564.219 20.7337V20.762ZM665.596 155.38H653.723V144.259H646.268V172.646H653.723V161.788H665.596V172.646H673.051V144.259H665.596V155.38ZM630.792 156.442C628.509 156.29 626.233 156.035 623.973 155.678C622.952 155.562 621.966 155.234 621.078 154.715C620.846 154.542 620.66 154.315 620.536 154.053C620.413 153.792 620.356 153.504 620.371 153.215C620.35 152.772 620.453 152.332 620.668 151.945C620.882 151.557 621.201 151.237 621.587 151.02C622.792 150.448 624.124 150.199 625.454 150.298C626.552 150.28 627.651 150.369 628.736 150.558C629.5 150.69 630.221 150.983 630.858 151.431C631.424 151.856 631.857 152.441 632.112 153.101L638.398 149.68C638.067 148.711 637.532 147.823 636.829 147.078C636.127 146.334 635.272 145.748 634.323 145.363C631.619 144.338 628.734 143.874 625.845 143.999C623.612 143.95 621.389 144.318 619.291 145.084C617.617 145.684 616.164 146.778 615.122 148.222C614.132 149.676 613.628 151.403 613.684 153.158C613.617 154.588 613.898 156.013 614.505 157.31C615.141 158.415 616.146 159.259 617.343 159.698C619.187 160.368 621.116 160.769 623.077 160.878C625.103 161.041 627.12 161.296 629.122 161.642C630.042 161.746 630.919 162.081 631.678 162.609C631.905 162.83 632.08 163.096 632.194 163.391C632.307 163.686 632.355 164.002 632.334 164.318C632.37 164.939 632.16 165.549 631.749 166.016C631.237 166.496 630.593 166.813 629.9 166.927C628.81 167.137 627.7 167.232 626.59 167.21C625.348 167.24 624.106 167.118 622.893 166.847C622.115 166.687 621.388 166.339 620.776 165.832C620.285 165.373 619.923 164.794 619.725 164.152L613.467 167.488C613.698 168.659 614.34 169.711 615.273 170.452C616.523 171.433 617.97 172.132 619.512 172.5C621.618 173.026 623.784 173.273 625.954 173.236C630.462 173.236 633.843 172.49 636.101 170.994C637.194 170.265 638.078 169.263 638.665 168.087C639.253 166.911 639.523 165.602 639.449 164.289C639.402 159.514 636.511 156.89 630.782 156.414L630.792 156.442ZM565.134 150.261C566.261 152.95 566.794 155.857 566.69 158.773C566.778 161.545 566.153 164.292 564.875 166.752C563.737 168.85 561.989 170.551 559.862 171.631C557.588 172.741 555.083 173.294 552.553 173.245C547.687 173.245 544.075 172.033 541.713 169.602C539.35 167.172 538.167 163.388 538.167 158.24C538.086 155.446 538.753 152.681 540.1 150.232C541.294 148.136 543.076 146.437 545.226 145.344C547.418 144.249 549.842 143.692 552.294 143.721C555.092 143.616 557.876 144.167 560.423 145.33C562.512 146.373 564.182 148.104 565.143 150.232L565.134 150.261ZM559.032 158.745C559.032 155.748 558.405 153.601 557.104 152.29C556.462 151.637 555.69 151.127 554.837 150.793C553.985 150.46 553.071 150.31 552.157 150.355C551.018 150.327 549.886 150.556 548.847 151.025C547.858 151.537 547.084 152.386 546.664 153.417C546.06 154.954 545.787 156.6 545.862 158.249C545.862 161.265 546.47 163.43 547.706 164.742C548.341 165.393 549.107 165.902 549.953 166.236C550.799 166.569 551.706 166.72 552.615 166.677C553.77 166.71 554.916 166.488 555.972 166.016C556.972 165.497 557.75 164.648 558.174 163.605C558.801 162.062 559.094 160.406 559.032 158.745ZM598.166 167.238H596.784L587.891 144.259H574.48V172.646H580.827V149.652H582.204L591.069 172.646H604.48V144.259H598.128L598.166 167.238ZM682.1 172.646H689.551V144.259H682.1V172.646ZM270.345 144.259H262.894V172.646H283.293V166.181H270.345V144.259ZM722.969 148.963C724.077 150.775 724.624 152.875 724.544 154.993C724.629 157.117 724.096 159.217 723.007 161.043C721.875 162.69 720.229 163.916 718.324 164.535C715.746 165.361 713.047 165.744 710.341 165.667H706.036V172.646H698.581V144.259H711.779C714.085 144.207 716.381 144.598 718.536 145.419C720.356 146.104 721.917 147.345 722.997 148.963H722.969ZM716.924 154.993C716.976 154.01 716.777 153.028 716.344 152.143C715.962 151.46 715.345 150.939 714.608 150.676C713.612 150.353 712.567 150.206 711.52 150.242H706.036V159.689H710.647C711.826 159.722 713 159.575 714.132 159.254C714.971 159.013 715.703 158.496 716.212 157.787C716.736 156.952 716.994 155.978 716.952 154.993H716.924ZM359.876 165.398C358.646 166.247 357.17 166.663 355.68 166.578C354.402 166.616 353.133 166.351 351.978 165.804C350.917 165.241 350.083 164.327 349.62 163.218C348.997 161.662 348.711 159.991 348.781 158.315C348.781 155.531 349.427 153.583 350.714 152.464C352.082 151.308 353.836 150.709 355.628 150.78C356.972 150.714 358.311 151.02 359.494 151.672C359.979 152.008 360.368 152.465 360.624 152.996C360.88 153.528 360.994 154.117 360.956 154.706L368.68 152.299C368.657 150.995 368.288 149.72 367.609 148.606C366.93 147.492 365.967 146.579 364.818 145.962C361.969 144.546 358.806 143.881 355.628 144.027C353.069 143.988 350.534 144.53 348.215 145.613C346.032 146.665 344.221 148.35 343.009 150.445C341.659 152.868 340.991 155.613 341.076 158.386C341.076 163.435 342.311 167.172 344.778 169.593C347.239 172.014 350.912 173.226 355.793 173.226C360.466 173.226 363.861 172.358 365.978 170.631C367.012 169.797 367.843 168.739 368.408 167.536C368.973 166.334 369.258 165.019 369.241 163.69L361.461 162.029C361.472 162.674 361.335 163.314 361.06 163.898C360.785 164.482 360.38 164.995 359.876 165.398ZM220.95 150.232C222.077 152.922 222.606 155.824 222.507 158.745C222.592 161.515 221.965 164.261 220.686 166.719C219.555 168.819 217.81 170.523 215.688 171.603C213.41 172.711 210.902 173.264 208.37 173.217C203.503 173.217 199.887 171.999 197.524 169.574C195.167 167.144 193.983 163.36 193.983 158.212C193.895 155.415 194.563 152.647 195.916 150.199C197.103 148.103 198.881 146.403 201.028 145.311C203.225 144.216 205.649 143.659 208.101 143.688C210.898 143.585 213.68 144.137 216.226 145.301C218.324 146.354 219.989 148.095 220.95 150.232ZM214.835 158.745C214.835 155.748 214.207 153.601 212.953 152.29C212.312 151.637 211.54 151.128 210.689 150.795C209.837 150.461 208.925 150.311 208.011 150.355C206.87 150.326 205.737 150.555 204.696 151.025C203.71 151.539 202.938 152.387 202.518 153.417C201.917 154.955 201.644 156.6 201.716 158.249C201.716 161.265 202.329 163.43 203.555 164.742C204.189 165.396 204.954 165.906 205.801 166.24C206.647 166.573 207.555 166.722 208.464 166.677C209.619 166.71 210.765 166.488 211.826 166.016C212.821 165.497 213.604 164.648 214.028 163.605C214.637 162.057 214.91 160.401 214.835 158.745ZM392.153 155.347H380.271V144.259H372.82V172.646H380.271V161.788H392.153V172.646H399.599V144.259H392.153V155.347ZM178.13 166.403H176.526L171.858 144.259H161.635L157 166.403H155.382L150.196 144.259H142.472L149.908 172.646H161.494L165.879 151.69H167.595L171.835 172.655H183.633L190.847 144.268H183.119L178.13 166.403ZM514.264 148.963C515.377 150.775 515.929 152.87 515.848 154.993C515.933 157.118 515.396 159.22 514.302 161.043C513.17 162.694 511.524 163.921 509.619 164.535C507.045 165.361 504.348 165.744 501.646 165.667H497.326V172.646H489.876V144.259H503.032C505.342 144.211 507.634 144.603 509.794 145.419C511.614 146.104 513.179 147.345 514.264 148.963ZM508.219 154.993C508.271 154.01 508.072 153.028 507.639 152.143C507.259 151.481 506.653 150.978 505.932 150.728C504.934 150.403 503.887 150.254 502.839 150.289H497.355V159.736H501.971C503.15 159.769 504.324 159.622 505.456 159.302C506.297 159.065 507.034 158.549 507.545 157.839C508.054 156.98 508.29 155.989 508.219 154.993ZM522.856 172.646H530.301V144.259H522.856V172.646ZM315.49 150.421C316.763 152.974 317.362 155.81 317.239 158.655C317.341 161.412 316.604 164.135 315.127 166.465C313.72 168.551 311.721 170.17 309.388 171.112C306.766 172.15 303.966 172.665 301.146 172.618H289.376V144.259H299.476C303.006 144.135 306.529 144.653 309.874 145.787C312.241 146.618 314.236 148.274 315.49 150.454V150.426V150.421ZM309.256 158.655C309.347 156.97 309.015 155.29 308.29 153.767C307.645 152.583 306.595 151.673 305.333 151.204C303.711 150.647 302.001 150.389 300.287 150.445H296.859V166.394H301.15C302.603 166.427 304.05 166.205 305.423 165.738C306.601 165.304 307.601 164.478 308.242 163.388C308.997 161.944 309.346 160.316 309.256 158.683V158.655ZM249.102 161.274L256.623 172.028V172.646H248.437L242.179 163.067H236.243V172.646H228.83V144.259H242.792C246.772 144.259 249.875 144.971 252.11 146.396C253.191 147.056 254.073 147.997 254.662 149.119C255.252 150.24 255.527 151.501 255.458 152.766C255.548 154.654 255.034 156.518 253.996 158.098C252.745 159.65 251.027 160.762 249.102 161.274ZM247.663 154.026C247.722 153.189 247.507 152.356 247.05 151.653C246.623 151.092 246.015 150.695 245.329 150.53C244.378 150.312 243.404 150.215 242.429 150.242H236.195V157.74H241.109C242.759 157.82 244.41 157.527 245.937 156.876C246.479 156.629 246.933 156.226 247.243 155.718C247.552 155.21 247.702 154.62 247.673 154.026H247.663ZM427.529 144.259L436.346 172.646H428.094L426.76 167.941H414.901L413.561 172.646H405.517L414.321 144.259H427.529ZM425.067 162.02L421.332 148.793H420.366L416.622 161.991L425.067 162.02ZM462.404 165.459H461.102L455.184 144.259H442.274V172.646H448.493V150.336H449.832L456.594 172.646H467.157L473.98 150.336H475.343V172.646H481.539V144.259H468.633L462.409 165.459H462.404Z" fill="url(#paint0_linear_7_126)"/>
<path d="M210.685 57.8838C208.143 54.4393 204.812 51.656 200.971 49.7677C203.299 48.1655 205.201 46.0197 206.513 43.5161C207.825 41.0125 208.508 38.2265 208.502 35.3994C208.502 25.4431 201.745 17.9215 189.282 17.9215H184.415V57.8838H210.685ZM181.874 17.9121H157.745V57.8744H181.874V17.9121ZM181.874 60.3847H157.745V100.352H181.874V60.3847ZM184.415 60.3753V100.347H189.329C205.673 100.347 216.023 88.7532 216.023 73.7007C216.017 69.0138 214.76 64.4134 212.383 60.3753H184.415ZM67.8642 57.8838L53.7415 17.9215H42.9291V57.8838H67.8642ZM40.4252 57.8838V17.9215H29.6127L15.4947 57.8838H40.4252ZM40.4252 60.3753H14.6082L0.490234 100.347H21.2853L27.123 83.6901H40.4252V60.3753ZM42.9291 60.3753V83.6901H56.2407L62.0643 100.347H82.8593L68.746 60.38H42.9243L42.9291 60.3753ZM142.462 57.8838C139.918 54.4414 136.587 51.6584 132.748 49.7677C135.07 48.1604 136.968 46.0133 138.278 43.5106C139.588 41.008 140.271 38.2246 140.27 35.3994C140.27 25.4431 133.512 17.9215 121.054 17.9215H116.141V57.8838H142.462ZM113.651 17.9121H89.5222V57.8744H113.651V17.9121ZM113.651 60.3847H89.5222V100.352H113.651V60.3847ZM116.141 60.3753V100.347H121.054C137.412 100.347 147.762 88.7532 147.762 73.7007C147.756 69.0138 146.5 64.4134 144.122 60.3753H116.141Z" fill="white"/>
</g>
<defs>
<linearGradient id="paint0_linear_7_126" x1="13.9999" y1="180.403" x2="924.265" y2="32.2466" gradientUnits="userSpaceOnUse">
<stop stop-color="white"/>
<stop offset="1" stop-color="white"/>
</linearGradient>
</defs>
</svg>
