<svg width="973" height="200" viewBox="0 0 973 200" fill="none" xmlns="http://www.w3.org/2000/svg">
<path d="M233.264 168.771C229.672 165.624 224.62 161.525 222.439 159.508C221.902 159.063 221.485 158.491 221.224 157.842C220.964 157.194 220.868 156.491 220.947 155.796C222.31 141.272 228.388 76.0903 228.533 74.3478C229.094 68.1342 227.426 63.6156 222.743 58.6131C218.06 53.6103 212.431 47.5425 211.517 46.6387C209.018 44.2387 206.072 42.3589 202.85 41.1071C199.627 39.8553 196.19 39.2563 192.737 39.3443C182.969 39.3443 166.531 38.6343 164.991 38.602C159.006 38.206 153.059 39.824 148.087 43.2013C142.923 46.429 136.733 50.3827 135.674 51.1412C132.066 53.691 129.997 56.3376 129.339 60.1785C128.329 66.23 126.661 75.9127 126.453 77.3496C125.779 81.7224 127.575 83.5784 131.184 83.385C132.402 83.385 142.811 82.6266 148.825 82.2715C152.434 82.0617 154.15 81.061 155.609 76.6718C155.946 75.59 159.09 66.5528 160.805 61.6474C161.126 60.3142 161.859 59.1186 162.9 58.2337C163.941 57.3486 165.235 56.8203 166.595 56.725C170.653 56.0149 176.009 55.321 177.068 55.1919C178.395 54.9372 179.761 54.9487 181.085 55.2256C182.408 55.5025 183.665 56.0394 184.782 56.8057C185.873 57.5157 192.464 62.147 193.314 62.7609C194.325 63.508 195.152 64.4783 195.733 65.597C196.314 66.7165 196.633 67.954 196.666 69.216C196.666 70.5394 196.955 89.7755 196.955 89.7755C196.955 89.7755 196.874 93.0031 193.042 91.7602C187.572 89.9854 173.619 85.1922 167.381 86.4186C162.882 87.5347 158.474 88.9967 154.198 90.792C149.916 92.648 143.549 95.5046 136.845 98.8609C132.968 100.557 129.379 102.855 126.212 105.671C121.818 109.69 121.641 115.063 121.321 120.067C120.823 128.136 119.62 145.759 119.717 147.065C119.661 150.036 120.312 152.977 121.615 155.645C122.918 158.311 124.835 160.626 127.206 162.397C134.503 167.964 144.302 175.307 145.858 176.485C150.782 180.294 160.116 180.342 164.414 178.099C173.876 173.258 193.923 162.881 194.357 162.638C194.79 162.397 195.591 162.413 195.96 163.413C196.169 164.059 196.297 164.527 196.457 165.027C196.858 166.24 197.592 167.314 198.574 168.125C203.033 171.885 212.335 179.89 212.928 180.391C214.121 181.579 215.671 182.336 217.337 182.544C219.002 182.752 220.689 182.397 222.134 181.536C229.254 177.663 233.055 175.275 233.633 174.952C236.92 173.128 235.894 171.062 233.264 168.771ZM193.17 145.177L173.074 155.505C171.748 156.159 170.295 156.513 168.818 156.541C167.341 156.569 165.876 156.27 164.526 155.667C162.922 154.828 157.309 151.907 154.198 150.406C151.584 149.131 150.076 146.404 149.563 142.95C149.29 141.046 148.681 130.427 148.312 124.101C148.123 122.573 148.288 121.022 148.794 119.568C149.301 118.116 150.135 116.8 151.231 115.726C152.578 114.644 157.758 111.901 160.436 110.367C163.759 108.583 167.198 107.03 170.733 105.72C174.389 104.3 177.725 104.671 184.943 106.608C187.951 107.322 190.904 108.255 193.779 109.399C194.617 110.093 195.273 110.982 195.693 111.988C196.112 112.995 196.281 114.089 196.184 115.177C196.184 116.452 196.184 133.09 196.184 139.271C196.3 140.439 196.08 141.616 195.551 142.663C195.023 143.71 194.207 144.582 193.202 145.177H193.17ZM970.998 125.15C969.559 122.729 962.212 110.336 959.776 106.721C957.017 102.557 956.152 102.751 943.095 99.2807C935.768 97.3283 911.277 90.6309 905.277 88.9524C896.827 86.5479 895.896 85.2087 895.124 78.5918C894.886 76.4296 894.662 73.2178 894.358 69.0708C894.068 65.2136 894.53 64.1159 897.883 62.244C900.049 61.0335 907.508 56.725 910.716 55.0304C914.598 52.9325 917.707 53.8201 922.407 55.7083C924.83 56.6604 932.48 59.9203 935.365 61.1147C938.25 62.3087 937.992 63.0836 941.201 69.4417C942.692 72.4113 945.247 71.8944 947.135 71.0555C949.03 70.2166 958.7 65.0842 960.687 63.9707C964.476 61.8243 965.209 60.2108 963.896 58.2258C961.975 55.4501 961.585 55.0951 960.172 53.1423C958.766 51.1897 957.446 49.6888 954.528 46.1062C951.195 42.0232 951.597 42.3944 944.62 40.9581C939.728 39.9253 920.017 35.8747 914.149 34.7289C911.251 34.1161 908.241 34.5685 905.646 36.0038C902.267 37.4724 888.714 43.5564 885.117 45.2509C876.68 49.237 875.221 49.3176 874.165 51.3187C872.66 54.1913 873.281 52.8034 869.353 60.4204C864.844 69.4418 863.61 71.1361 864.541 74.2184C866.145 79.5766 869.353 87.7419 872.013 95.4076C874.68 103.073 874.918 104.284 890.747 108.495C899.89 110.932 927.635 118.259 930.843 119.373C936.283 121.197 936.923 122.068 939.233 127.119C940.243 129.346 941.636 132.912 942.435 134.849C943.722 138.076 945.419 141.304 944.732 145.436C943.867 150.503 938.685 151.891 935.86 153.505C932.48 155.392 925.034 159.137 921.027 160.944C915.832 163.316 915.139 163.994 908.056 160.541C901.943 157.571 900.035 156.425 895.863 154.247C894.074 153.603 892.523 152.433 891.408 150.89C889.592 148.873 886.787 146.049 884.622 143.322C881.413 139.464 878.911 140.465 875.353 142.256C872.462 143.708 862.092 149.131 859.444 150.6C858.943 150.793 858.501 151.115 858.157 151.532C857.821 151.95 857.59 152.449 857.504 152.981C857.411 153.513 857.458 154.06 857.642 154.567C857.827 155.076 858.137 155.526 858.547 155.877C861.478 158.83 868.165 165.027 870.508 167.173C875.063 171.305 878.621 174.532 882.694 175.63C890.714 177.808 904.478 181.407 913.733 183.795C924.955 186.668 922.262 185.942 931.866 182.181C935.187 180.859 953.505 173.403 957.849 171.224C963.064 168.593 963.77 167.884 966.252 159.137C967.487 154.844 970.906 142.692 972.041 138.593C973.309 133.493 973.645 129.604 970.998 125.15ZM335.906 39.7962C333.131 39.6994 327.374 39.7963 323.909 39.9254C322.275 39.9652 320.693 40.5012 319.367 41.4632C318.042 42.4252 317.037 43.7681 316.484 45.3154C310.646 65.2459 289.733 137.108 288.851 139.787C287.84 142.902 285.499 142.644 284.954 140.013C284.408 137.383 268.579 48.0266 268.017 45.4768C267.328 42.4429 266.414 40.1674 260.993 40.006C254.482 39.7962 244.619 39.5864 241.395 39.5381C236.423 39.5381 233.376 40.5709 234.531 45.0572C235.557 48.9626 259.309 144.29 265.532 169.239C266.462 172.999 270.424 174.758 274.225 174.274C277.529 173.854 281.089 173.386 282.933 173.048C286.597 172.395 290.36 172.566 293.951 173.548C295.378 173.871 297.062 174.242 298.634 174.549C301.248 175.081 304.52 172.112 305.498 168.513C306.332 165.43 332.874 72.7499 339.963 47.9459C341.327 43.395 339.482 39.9092 335.857 39.7962H335.906ZM95.7721 54.2235C91.7149 48.6882 89.726 48.4462 81.755 48.4785C80.3602 48.4785 64.3701 48.6721 58.3401 48.8819C52.3099 49.0917 48.0438 50.4957 44.3391 53.5942C41.4143 56.5547 38.6467 59.6683 36.0476 62.9219C35.5986 63.4064 34.7004 65.036 33.7221 64.8426C32.7438 64.6486 32.5835 63.5516 32.7438 61.615C33.4655 53.0617 35.7108 17.8648 36.3523 6.74565C36.6891 2.95321 35.0532 0 30.8033 0C29.1995 0 12.7447 0.548689 5.9287 0.548689C5.11629 0.512466 4.30566 0.652248 3.55161 0.958638C2.79755 1.26503 2.11769 1.73082 1.55811 2.32459C0.998521 2.91829 0.572182 3.62605 0.307988 4.39994C0.0437943 5.17384 -0.0521149 5.99578 0.0267828 6.8102C0.0267828 8.55316 1.9353 148.824 2.24001 171.079C2.20767 171.489 2.26866 171.901 2.41838 172.285C2.56809 172.668 2.8025 173.011 3.10391 173.29C3.40532 173.568 3.76582 173.774 4.15799 173.891C4.55017 174.009 4.96374 174.035 5.36734 173.967L23.458 173.79C24.1092 173.817 24.7461 173.591 25.2359 173.159C25.7257 172.726 26.031 172.12 26.0881 171.466C26.0881 170.53 29.5363 115.209 30.4344 96.3924C30.691 89.792 32.9844 81.6584 35.8231 79.3344C38.6618 77.0104 44.7401 72.266 47.3863 70.3777C49.3146 68.9104 51.7127 68.2095 54.1222 68.4088C57.1052 68.4088 62.1409 68.5217 64.6909 68.6028C68.0588 68.6992 68.0912 68.9896 70.9139 70.975C72.3087 71.9591 74.3135 73.4119 76.078 74.7669C78.9805 76.9781 80.3279 78.8017 80.2797 82.9652C80.2797 83.8365 82.0118 150.228 82.3003 166.496C82.3003 170.966 83.0225 174.371 87.545 174.371C88.7154 174.371 95.5635 174.371 100.231 174.371C104.481 174.371 104.785 170.869 105.122 166.964C105.122 165.85 108.538 99.8457 110.062 82.8682C110.639 75.7352 109.356 72.2819 105.988 67.6022C105.122 66.5369 99.9744 59.9848 95.7239 54.2235H95.7721ZM681.951 157.184C675.059 157.555 671.818 157.765 669.99 157.959C666.174 158.33 663.923 159.056 662.999 165.85C661.923 173.58 662.451 178.147 655.282 181.245C648.113 184.344 645.852 184.763 642.451 185.151C636.261 185.893 634.657 186.103 628.771 184.893C620.753 183.279 617.625 180.762 613.375 173.596C610.907 169.569 608.87 165.29 607.297 160.831C606.65 158.961 606.294 157.001 606.238 155.021C607.12 140.626 609.061 76.4131 609.157 74.6706C609.51 68.5058 610.392 63.6803 605.629 58.7261C600.866 53.7717 594.884 47.4295 593.969 46.5096C589.463 42.1362 585.036 40.7323 577.258 40.7323C567.635 40.7323 548.582 40.0867 547.091 40.0544C540.5 39.9092 541.093 39.7478 535.031 43.0077C528.968 46.2676 521.142 52.2386 518.864 53.5296C517.276 54.374 515.933 55.6201 514.969 57.1453C514.004 58.6705 513.451 60.4223 513.363 62.2282C512.642 67.4729 510.958 73.3954 510.316 78.9951C509.819 83.3362 511.631 85.1764 515.128 84.9823C516.347 84.9823 526.595 84.2081 532.448 83.853C536.025 83.6589 538.062 82.7877 539.361 78.4308C539.681 77.3813 542.761 69.3289 544.301 64.4552C545.423 61.05 547.3 58.6777 550.283 58.2581C555.094 57.5964 556.104 57.2092 559.184 56.838C565.085 56.1279 566.16 56.838 568.084 57.7739C569.239 58.3872 572.992 61.1787 576.585 63.5192C578.974 65.133 580.931 66.7468 580.77 71.5882C580.77 72.8951 581.203 84.0464 581.011 86.1123C580.819 88.1782 582.422 93.7291 578.412 93.2288C573.601 92.6321 568.261 89.3722 558.349 88.0323C555.421 87.4515 552.402 87.5063 549.496 88.1941C544.781 89.8078 536.57 92.9549 535.624 93.374C527.862 96.6986 526.274 97.6187 516.298 102.702C509.739 106.026 506.676 109.996 505.761 117.226C504.816 125.295 503.981 145.936 503.901 147.243C503.672 150.546 504.303 153.853 505.732 156.835C507.161 159.818 509.338 162.375 512.048 164.252C519.442 169.788 527.701 176.081 529.69 177.517C532.488 179.496 535.759 180.688 539.167 180.971C542.575 181.255 545.996 180.62 549.08 179.131C558.269 174.29 576.664 165.092 577.082 164.834C577.499 164.575 579.327 163.22 579.663 164.236C579.888 164.898 580.674 166.979 580.819 167.464C581.436 168.66 582.281 169.724 583.304 170.594C588.116 175.436 591.868 179.599 595.621 183.505C604.378 192.688 605.58 193.446 616.23 195.964C627.729 198.691 628.515 198.884 630.664 199.272C632.813 199.659 634.689 201.047 651.224 198.513C667.758 195.979 668.768 195.576 670.472 195.286C672.168 194.995 678.875 194.43 681.601 183.327C684.328 172.225 685.833 166.011 686.215 163.671C686.605 161.331 688.816 156.829 681.905 157.184H681.951ZM580.481 138.206C580.353 142.482 580.257 145.177 577.049 146.63C575.446 147.356 565.101 152.859 558.734 156.312C557.15 157.279 555.347 157.824 553.495 157.898C551.644 157.971 549.805 157.57 548.149 156.732C544.445 154.876 543.002 154.408 538.431 151.729C536.961 150.948 535.722 149.791 534.837 148.374C533.953 146.958 533.456 145.332 533.395 143.66C533.122 139.319 532.432 128.765 532.24 124.843C532.047 120.922 533.09 118.178 537.789 115.258C539.922 113.95 548.903 109.464 551.918 108.027C555.488 106.484 559.402 105.927 563.257 106.414C565.101 106.801 573.89 109.286 576.889 110.174C579.616 110.981 580.562 114.24 580.481 116.871C580.305 121.826 580.482 136.189 580.434 138.206H580.481ZM859.537 168.771C855.933 165.543 850.876 161.509 848.711 159.508C848.17 159.066 847.754 158.495 847.49 157.846C847.226 157.197 847.127 156.492 847.206 155.796C848.566 141.272 854.645 76.0903 854.81 74.3478C855.372 68.1342 853.682 63.6156 849.001 58.597C844.321 53.5781 838.704 47.5425 837.773 46.6226C835.277 44.2218 832.333 42.3426 829.112 41.0934C825.884 39.8441 822.451 39.2497 818.992 39.3443C809.229 39.3443 792.772 38.6343 791.247 38.602C785.253 38.1887 779.293 39.8079 774.315 43.2013C769.146 46.429 762.974 50.3666 761.885 51.109C758.274 53.6749 756.221 56.3215 755.568 60.1785C754.538 66.23 752.875 75.8969 752.663 77.3496C752.003 81.7066 753.799 83.5626 757.476 83.3685C758.71 83.3685 769.087 82.6101 775.114 82.255C778.725 82.0617 780.421 81.0452 781.887 76.6553C782.237 75.59 785.366 66.5528 787.082 61.6474C787.399 60.3117 788.138 59.1144 789.181 58.2291C790.224 57.3439 791.525 56.817 792.884 56.725C796.924 56.0149 802.265 55.321 803.341 55.1919C804.674 54.9323 806.041 54.9413 807.368 55.2184C808.694 55.4954 809.955 56.0349 811.071 56.8057C812.147 57.5157 818.741 62.1312 819.606 62.7444C820.61 63.4961 821.435 64.4677 822.016 65.5852C822.597 66.7033 822.92 67.9388 822.96 69.1995C822.96 70.5229 823.23 89.7597 823.23 89.7597C823.23 89.7597 823.23 92.9872 819.329 91.7602C813.876 89.9854 799.895 85.1764 793.67 86.4186C789.168 87.5347 784.752 88.9967 780.474 90.792C776.203 92.648 769.84 95.5046 763.12 98.8609C759.251 100.557 755.667 102.849 752.505 105.655C748.108 109.658 747.917 115.063 747.594 120.05C747.098 128.12 745.897 145.759 745.989 147.065C745.943 150.038 746.597 152.979 747.897 155.645C749.204 158.311 751.125 160.626 753.495 162.397C760.796 167.964 770.592 175.307 772.15 176.485C777.075 180.277 786.409 180.342 790.686 178.099C800.152 173.258 820.2 162.865 820.629 162.638C821.065 162.413 821.864 162.397 822.233 163.397C822.445 164.059 822.59 164.527 822.735 165.011C823.138 166.225 823.877 167.299 824.867 168.109C829.323 171.853 838.611 179.841 839.218 180.358C840.407 181.553 841.951 182.317 843.615 182.527C845.278 182.737 846.968 182.383 848.407 181.52C855.53 177.647 859.332 175.242 859.907 174.92C863.128 173.128 862.118 171.062 859.491 168.771H859.537ZM819.441 145.145C817.844 146 805.895 152.149 799.347 155.505C798.02 156.152 796.568 156.501 795.089 156.529C793.617 156.557 792.152 156.263 790.798 155.667C789.194 154.828 783.583 151.891 780.487 150.39C777.86 149.131 776.368 146.388 775.84 142.934C775.583 141.046 774.956 130.427 774.606 124.085C774.414 122.56 774.579 121.01 775.081 119.559C775.589 118.108 776.428 116.796 777.523 115.726C778.87 114.644 784.032 111.885 786.726 110.367C790.046 108.576 793.485 107.023 797.023 105.72C800.661 104.284 804.001 104.639 811.236 106.608C814.246 107.309 817.197 108.243 820.068 109.399C820.907 110.095 821.56 110.984 821.983 111.99C822.398 112.996 822.57 114.09 822.478 115.177C822.478 116.452 822.478 133.074 822.478 139.271C822.59 140.444 822.365 141.627 821.818 142.671C821.276 143.715 820.438 144.576 819.415 145.145H819.441ZM716.337 50.1568C714.997 48.7767 713.366 47.7059 711.577 47.0178C709.782 46.3297 707.861 46.0407 705.947 46.1708C697.669 46.1708 686.282 46.8001 682.11 47.0422C675.812 47.4134 672.954 48.9949 670.036 52.4323C667.118 55.8697 662.517 60.8078 661.732 61.518C657.527 65.3264 657.091 63.7608 657.269 59.4846C657.368 56.9671 658.008 49.6727 658.246 46.5742C658.695 41.0066 655.183 39.6187 650.647 39.5703C645.21 39.5703 638.586 39.4896 635.748 39.4896C626.863 39.4896 625.147 39.3121 625.147 50.06C625.147 57.9837 625.532 140.658 625.579 166.028C625.579 170.756 628.579 173.499 631.818 173.499C635.058 173.499 642.948 173.403 645.338 173.403C647.728 173.403 650.454 170.433 650.791 165.721C652.155 145.759 655.606 91.4863 655.876 88.2587C655.982 86.536 656.444 84.8556 657.236 83.3243C658.022 81.7924 659.124 80.4446 660.464 79.3667C664.742 75.9774 670.518 71.7492 672.393 70.0226C674.366 68.2873 676.947 67.4055 679.561 67.5699C684.103 67.5699 687.133 67.6828 690.071 67.828C692.322 67.8115 694.533 68.4022 696.48 69.5388C698.811 70.9103 702.111 74.9286 703.2 75.9939C705.082 77.914 706.006 78.737 706.006 82.4491C706.006 100.394 707.386 161.283 707.386 165.575C707.386 170.707 709.267 173.273 711.973 173.403C715.789 173.548 720.991 173.516 722.799 173.516C726.008 173.516 727.79 171.321 728.219 167.367C730.371 148.792 735.276 91.8738 735.936 85.6443C737.045 75.2032 735.196 73.0079 730.193 66.7468C724.727 59.9364 720.106 54.3043 716.337 50.1568ZM479.941 33.0506C476.395 33.0537 472.93 34.1146 469.984 36.0991C467.037 38.0835 464.742 40.9025 463.387 44.1996C462.032 47.4966 461.679 51.1238 462.373 54.6226C463.067 58.1214 464.776 61.3345 467.284 63.8565C469.792 66.3779 472.987 68.0946 476.465 68.7896C479.942 69.4847 483.547 69.1263 486.822 67.76C490.097 66.3944 492.897 64.0816 494.866 61.1147C496.836 58.1482 497.887 54.6606 497.887 51.0928C497.887 48.7221 497.423 46.3747 496.52 44.1846C495.619 41.9946 494.296 40.0049 492.63 38.3293C490.963 36.6538 488.984 35.3251 486.807 34.4193C484.63 33.5136 482.297 33.0484 479.941 33.0506ZM488.986 80.1251C482.988 80.1251 473.991 80.2862 470.703 80.2862C465.603 80.2862 463.486 81.7066 463.534 87.3228C463.534 91.9701 463.695 151.632 463.743 171.967C463.743 176.178 466.181 178.728 469.949 178.841C473.718 178.954 474.761 178.841 479.444 179.035C484.127 179.228 486.372 176.663 486.741 172.45C488.553 151.471 493.99 88.6779 494.246 85.8542C494.359 85.113 494.305 84.3566 494.087 83.6398C493.869 82.923 493.493 82.2649 492.988 81.7145C492.482 81.164 491.86 80.735 491.168 80.4597C490.474 80.1845 489.729 80.0703 488.986 80.1251ZM453.094 168.723C449.501 165.495 444.449 161.477 442.268 159.475C441.726 159.036 441.307 158.464 441.048 157.814C440.79 157.164 440.702 156.458 440.792 155.764C442.14 141.24 448.218 76.0421 448.363 74.3155C448.924 68.1025 447.256 63.5674 442.573 58.5647C437.89 53.5619 432.26 47.4941 431.347 46.5904C428.848 44.1937 425.905 42.3159 422.686 41.0643C419.466 39.8127 416.033 39.2118 412.582 39.296C402.799 39.296 386.344 38.6021 384.837 38.5698C378.837 38.1556 372.871 39.7685 367.885 43.1529C362.72 46.3805 356.546 50.3344 355.472 51.0928C351.847 53.6426 349.795 56.2893 349.136 60.1301C348.111 66.1818 346.458 75.8804 346.234 77.3173C345.576 81.6742 347.373 83.5302 351.046 83.3362L368.687 82.2227C372.296 82.0135 373.995 81.0129 375.455 76.6229C375.807 75.5583 378.951 66.5204 380.667 61.5985C381.002 60.2808 381.742 59.103 382.782 58.2336C383.822 57.3641 385.108 56.8475 386.456 56.7572C390.514 56.0472 395.871 55.3533 396.929 55.2242C398.257 54.9641 399.623 54.9728 400.948 55.2499C402.272 55.527 403.528 56.0669 404.643 56.838C405.734 57.5319 412.326 62.1635 413.176 62.7767C414.184 63.5258 415.008 64.4968 415.586 65.6155C416.164 66.7343 416.481 67.9712 416.512 69.2319C416.512 70.5552 416.816 89.792 416.816 89.792C416.816 89.792 416.736 93.0196 412.903 91.7926C407.45 90.0012 393.481 85.2246 387.243 86.4509C382.743 87.5598 378.336 89.0165 374.059 90.8085C369.777 92.6645 363.41 95.5205 356.691 98.8774C349.602 102.412 347.228 104.622 346.074 105.688C341.679 109.706 341.487 115.08 341.182 120.082C340.685 128.151 339.482 145.79 339.579 147.098C339.527 150.068 340.179 153.008 341.482 155.674C342.785 158.34 344.699 160.656 347.068 162.429C354.365 167.98 364.164 175.339 365.72 176.517C370.643 180.326 379.977 180.358 384.26 178.131C393.738 173.289 413.785 162.913 414.202 162.655C414.619 162.397 415.437 162.445 415.806 163.429C415.998 164.075 416.143 164.542 416.287 165.043C416.7 166.259 417.438 167.336 418.42 168.158C422.894 171.902 432.165 179.89 432.854 180.406C434.04 181.599 435.587 182.361 437.251 182.571C438.915 182.781 440.601 182.429 442.044 181.568C449.165 177.695 452.981 175.291 453.575 174.968C456.734 173.096 455.708 171.014 453.094 168.723ZM412.999 145.113C411.395 145.968 399.463 152.117 392.904 155.474C391.579 156.124 390.129 156.476 388.655 156.503C387.182 156.531 385.72 156.235 384.372 155.635C382.672 154.796 377.17 151.874 374.059 150.358C371.429 149.099 369.922 146.372 369.409 142.918C369.136 141.013 368.543 130.379 368.158 124.053C367.967 122.526 368.133 120.975 368.642 119.523C369.152 118.073 369.991 116.76 371.093 115.693C372.408 114.612 377.604 111.852 380.282 110.336C383.598 108.532 387.039 106.974 390.578 105.671C394.219 104.251 397.587 104.622 404.788 106.575C407.804 107.274 410.763 108.202 413.641 109.351C414.479 110.043 415.135 110.932 415.551 111.94C415.968 112.947 416.132 114.042 416.031 115.128C416.031 116.403 416.031 133.042 416.031 139.222C416.153 140.393 415.933 141.575 415.398 142.621C414.862 143.668 414.034 144.533 413.015 145.113H412.999Z" fill="white"/>
</svg>
