<svg width="1264" height="200" viewBox="0 0 1264 200" fill="none" xmlns="http://www.w3.org/2000/svg">
<g clip-path="url(#clip0_7_135)">
<path d="M115.324 198.239H200.763V173.944H143.101V148.239H195.489V125.704H143.101V101.056H200.763V76.4084H115.324V198.239Z" fill="white"/>
<path d="M462.354 123.944L431.061 76.4084H395.901L447.587 150.352L422.271 198.239H453.915L517.906 76.4084H486.262L462.354 123.944Z" fill="white"/>
<path d="M566.075 99.2958C580.491 99.2958 588.929 104.93 591.39 116.197L591.742 116.901L618.815 114.085L618.464 113.028C615.299 95.4226 603.696 74.6479 567.13 74.6479C554.824 74.6479 542.87 77.817 534.431 83.4508C524.235 90.1409 518.609 100 518.609 111.62C518.609 132.747 531.267 144.366 560.801 150.704C579.084 154.93 585.413 157.394 585.413 165.845C585.413 175 576.623 176.409 571.349 176.409C558.692 176.409 551.308 170.423 550.253 158.803V157.747H522.477V158.803C523.883 184.155 542.167 199.648 569.943 199.648C597.368 199.648 613.541 186.972 613.541 165.493C613.541 142.958 597.016 134.859 570.646 129.225C550.253 125 546.034 119.366 546.034 111.972C546.737 103.873 556.582 99.2958 566.075 99.2958Z" fill="white"/>
<path d="M701.792 169.718L670.852 76.4084H633.582V198.239H659.952V116.549L688.432 197.535L688.783 198.239H714.45L743.281 115.845V198.239H769.299V76.4084H732.382L701.792 169.718Z" fill="white"/>
<path d="M855.793 76.4084H823.446L779.145 198.239H807.976L816.766 172.183H862.122L870.912 198.239H899.743L855.793 77.1127V76.4084ZM854.738 149.648H824.852L839.971 105.986L854.738 149.648Z" fill="white"/>
<path d="M1079.41 129.93L1126.17 76.4084H1091.36L1053.04 123.239V76.4084H1025.26V198.239H1053.04V160.211L1061.83 150L1096.64 197.887L1096.99 198.239H1129.34L1079.41 129.93Z" fill="white"/>
<path d="M245.416 76.4084H217.288V198.239H303.782V173.239H245.416V76.4084Z" fill="white"/>
<path d="M347.38 76.4084H319.252V198.239H405.745V173.239H347.38V76.4084Z" fill="white"/>
<path d="M985.182 155.282C981.666 169.366 972.876 176.761 958.812 176.761C938.419 176.761 926.465 162.676 926.465 137.676V137.324C926.465 112.676 938.419 98.2394 958.812 98.2394C972.876 98.2394 982.018 105.282 985.182 119.718L985.534 120.423L1013.66 117.606L1013.31 116.549C1008.39 90.1408 988.346 75 958.461 75C921.191 75 897.985 98.9437 897.985 136.972V137.324V137.676C897.985 176.056 921.191 199.648 958.461 199.648C988.346 199.648 1008.04 184.507 1013.31 158.099L1013.66 157.042L985.534 154.225L985.182 155.282Z" fill="white"/>
<path d="M28.128 146.127V149.648C28.128 167.254 35.16 176.056 48.8724 176.056C62.9363 176.056 69.2651 167.958 69.2651 150.704V76.4084H97.3931V151.408C97.3931 182.394 79.8131 200 48.8724 200C17.2284 200 -0.351562 182.042 -0.351562 149.648V143.31L28.128 146.127Z" fill="white"/>
<path d="M1140.94 34.507C1140.94 34.8592 1140.94 34.8592 1140.94 35.2113L1171.18 51.4085L1137.78 61.6197L1143.05 78.5211L1189.81 64.0845L1160.28 119.366L1175.75 127.817L1205.28 72.5352L1219.35 119.014L1236.22 113.732L1226.03 80.2817L1256.26 96.4789C1256.62 96.4789 1256.62 96.4789 1256.97 96.1268C1273.49 64.0845 1261.54 24.6479 1229.54 7.74648C1219.7 2.46479 1209.15 0 1198.95 0C1175.4 0 1152.54 12.3239 1140.94 34.507Z" fill="white"/>
</g>
<defs>
<clipPath id="clip0_7_135">
<rect width="1264" height="200" fill="white"/>
</clipPath>
</defs>
</svg>
