<svg width="193" height="200" viewBox="0 0 193 200" fill="none" xmlns="http://www.w3.org/2000/svg">
<g clip-path="url(#clip0_20_81)">
<path d="M130.979 80.2952C129.928 79.6629 128.667 78.8199 128.036 78.3984C124.462 79.8737 121.098 83.0349 118.155 86.1961C111.427 93.3616 112.058 97.3658 104.699 100.105C102.807 100.738 100.705 101.581 97.7615 102.213C96.0796 97.155 91.8748 91.8863 87.4598 91.8863C84.3062 91.8863 80.9424 93.5723 76.7376 95.2583C71.9021 97.3658 67.487 99.8947 66.2256 100.738L68.1177 103.267C69.5894 102.424 73.584 100.527 77.7888 98.6303C81.3628 97.155 84.5164 95.8905 86.8291 95.8905C90.4031 95.8905 92.7158 99.8948 93.9772 103.056C89.3519 104.11 81.7833 104.32 79.4707 104.32C78.4195 104.32 77.999 104.531 77.5785 104.742C77.1581 104.953 76.9478 105.585 76.7376 106.428L76.5273 107.482H79.0502C91.8748 107.482 103.858 105.374 111.427 100.738C112.478 100.948 113.53 101.159 114.791 101.159C119.206 101.159 123.831 98.841 126.564 96.5228C127.616 95.6798 127.826 95.0475 127.826 94.2045C127.826 93.7831 127.826 93.5723 127.826 93.1508L127.616 91.8863C123.621 95.0475 120.047 97.5765 115.842 97.5765C115.001 97.5765 114.581 97.5765 114.16 97.3658C118.155 91.0433 121.939 85.1424 130.979 80.2952Z" fill="white"/>
<path d="M103.859 88.0927C100.916 88.0927 101.336 83.2455 101.126 79.2412C90.8242 80.295 84.517 83.2455 77.5791 87.0389L78.4201 90.2002C84.7272 86.4067 90.8242 84.2992 97.3416 83.4562C97.3416 87.2497 99.0235 92.3076 103.228 92.3076C107.854 92.3076 113.32 85.1422 119.837 76.7123L121.519 74.394C120.678 73.7618 119.627 73.1296 118.996 72.4973C112.269 81.138 106.592 88.0927 103.859 88.0927Z" fill="white"/>
<path d="M81.5733 35.4056C80.5221 35.4056 79.4709 35.1949 78.2095 34.9841C77.1583 34.7734 76.1071 34.5626 74.6354 34.5626C71.9023 34.5626 68.959 35.6163 67.0668 37.5131C63.4927 40.8851 63.2825 44.6785 63.0722 48.0505C62.862 52.4762 62.0211 53.5299 59.4982 56.6912C57.606 59.2201 54.8729 62.8029 52.7705 66.3856C53.4012 66.5963 55.5036 67.8608 56.3446 68.2823C58.6572 64.6996 62.0211 60.2739 64.1234 57.1127C66.0156 54.1622 66.8566 52.8977 67.0668 48.8935C67.0668 48.2612 67.0668 47.629 67.0668 46.9967C67.277 44.8893 67.6975 42.7818 69.7999 40.8851C71.2716 39.4098 73.374 38.5668 75.4764 38.5668C77.5788 38.5668 78.63 39.1991 80.5221 39.1991C81.7836 39.1991 82.6245 38.9883 83.4655 38.5668L84.0962 38.3561L82.6245 42.1495L86.1986 43.6248C83.886 45.1 78.63 51.4225 78.63 58.7986C78.63 61.5384 79.0505 64.0673 79.6812 66.1748C79.6812 66.3856 79.8914 66.5963 80.3119 66.5963C80.7324 66.5963 80.9426 66.3856 80.9426 65.9641V65.1211C81.1529 62.8029 81.1529 59.2201 82.2041 56.0589C83.6757 50.5795 87.8805 45.5215 91.8751 42.9925L86.1986 40.2528L88.7215 34.1411L85.9884 34.7734C84.3065 34.9841 83.045 35.4056 81.5733 35.4056Z" fill="white"/>
<path d="M103.648 9.90527C101.336 9.90527 100.915 12.0128 100.915 13.2772C100.915 14.331 101.336 15.3847 102.387 15.3847C103.438 15.3847 104.489 14.7525 105.54 13.9095C106.592 13.0665 107.222 12.4343 107.222 11.802C107.222 11.1698 106.592 10.7483 105.961 10.3268C105.12 10.116 104.489 9.90527 103.648 9.90527Z" fill="white"/>
<path d="M104.699 53.1086H90.1927L88.5107 56.2699H105.961L104.699 53.1086Z" fill="white"/>
<path d="M70.0099 24.2361C70.8509 23.6039 71.6918 22.9717 71.6918 22.1287C71.6918 21.7072 71.4816 21.2857 71.0611 21.0749C70.4304 20.4427 69.5894 20.2319 68.7485 20.2319C67.0665 20.2319 66.2256 21.9179 66.2256 23.3932C66.2256 24.4469 66.8563 25.0791 67.9075 25.0791C68.5382 24.8684 69.3792 24.6576 70.0099 24.2361Z" fill="white"/>
<path d="M171.135 86.8283L172.817 87.882C173.027 88.0927 173.238 88.0927 173.448 88.0927C173.868 88.0927 174.079 87.6712 174.079 87.4605C174.079 87.2497 174.079 87.039 173.868 87.039C168.823 82.4025 163.567 76.9231 158.521 71.6544C154.526 67.4394 150.532 63.0137 146.958 58.588C146.747 58.3772 146.537 58.1665 146.327 58.1665C145.907 58.1665 145.696 58.3773 145.696 58.7987C145.696 59.2202 146.117 59.8525 146.958 61.3277C149.481 65.7534 152.844 70.1791 156.629 74.3941C160.834 78.8198 165.879 83.0348 171.135 86.8283Z" fill="white"/>
<path d="M145.696 199.368H149.691C150.742 199.368 151.373 198.946 152.003 198.314C152.424 197.893 152.634 197.05 152.634 196.207V151.528C152.634 150.685 152.424 150.053 152.003 149.42C151.583 148.788 150.742 148.367 149.691 148.367H145.696C144.645 148.367 144.014 148.788 143.384 149.42C142.963 149.842 142.753 150.685 142.753 151.528V196.207C142.753 197.05 142.963 197.682 143.384 198.314C144.014 198.946 144.645 199.368 145.696 199.368Z" fill="white"/>
<path d="M78.8398 41.9389C78.2091 41.5174 77.5784 41.3066 76.9477 41.3066C75.476 41.3066 74.8453 42.1496 74.635 42.9926C74.4248 43.4141 74.4248 43.8356 74.4248 44.2571C74.4248 45.5216 75.0555 46.3646 75.8965 46.3646C77.1579 46.3646 79.4706 44.6786 79.4706 43.2034C79.4706 42.7819 79.2603 42.1496 78.8398 41.9389Z" fill="white"/>
<path d="M32.3772 85.1424L32.5875 86.6176C32.5875 87.2498 33.0079 87.6713 33.4284 87.8821C34.0591 88.0928 34.9001 88.3036 36.3718 88.3036C40.1561 88.3036 43.0994 87.8821 44.7814 87.4606C48.9862 93.783 54.6626 96.1013 60.3391 96.1013C65.1746 96.1013 69.7999 94.4153 74.4252 91.8863L73.5842 88.5143C69.1692 91.0433 64.3337 92.7293 60.3391 92.7293C55.7138 92.7293 51.7193 90.8326 48.1452 85.5639C46.6735 83.4564 45.6223 80.7166 44.1506 78.1877C42.4687 75.2372 40.7868 73.762 37.6332 73.762C34.9001 73.762 31.9567 75.0265 29.2236 76.2909L29.4339 76.9232C29.6441 77.9769 30.0646 78.8199 31.1158 78.8199C31.5363 78.8199 31.9567 78.6092 32.167 78.6092C33.8489 78.1877 34.9001 77.5554 36.582 77.5554C39.1049 77.5554 40.3663 79.0307 42.0483 82.8241L42.679 84.0886C40.9971 84.7209 36.7923 84.9316 33.6387 84.9316H32.3772V85.1424Z" fill="white"/>
<path d="M192.159 182.929C192.79 182.297 193 181.665 193 180.19C193 175.764 191.529 171.128 188.585 167.545C185.642 163.962 181.017 161.433 174.499 161.433C162.726 161.433 155.998 170.706 155.998 180.4C155.998 190.727 163.146 200 174.499 200C180.176 200 185.852 197.893 189.006 194.099C190.477 192.413 191.529 190.095 191.529 188.83C191.529 188.409 191.529 187.987 191.108 187.566C190.898 187.144 190.477 186.934 189.636 186.934H184.17C183.119 186.934 182.278 187.355 181.858 188.198C180.176 190.516 177.863 191.781 174.499 191.781C169.453 191.781 166.09 187.987 165.879 183.562H189.636C190.898 183.562 191.739 183.351 192.159 182.929ZM166.09 176.396C166.51 172.181 169.664 169.02 174.499 169.02C179.335 169.02 182.488 172.181 182.909 176.396H166.09Z" fill="white"/>
<path d="M165.249 4.00415C163.146 8.21911 154.737 21.4962 150.111 26.9757L152.634 29.7154C155.157 26.9757 157.68 22.3392 160.623 17.7028H161.254C161.254 17.9135 161.254 18.1243 161.254 18.5458C161.254 22.3392 163.146 25.2897 168.192 25.2897C171.135 25.2897 175.971 23.8145 180.386 22.3392C183.96 21.0748 187.324 19.8103 189.006 19.3888V15.3846C187.114 16.0168 183.119 17.492 179.124 18.9673C174.92 20.4425 170.715 21.707 168.402 21.707C165.669 21.707 165.038 20.2318 165.038 18.1243C165.038 13.9093 167.771 7.58687 169.453 4.2149H165.249V4.00415Z" fill="white"/>
<path d="M131.82 17.9136C128.457 14.5416 125.723 10.7482 124.042 9.06217C120.467 5.05796 115.632 0 107.643 0C100.074 0 95.0285 5.05796 93.3465 9.27292C92.9261 10.5374 92.5056 12.0126 92.2953 12.6449C91.4544 13.9094 88.0905 19.5996 86.8291 21.9178H93.1363L89.9827 27.8188C93.5568 26.9758 96.0796 26.3435 99.4435 26.3435C102.387 26.3435 104.699 26.9758 105.54 28.8725C107.222 32.4552 107.222 43.2034 110.376 51.2118C113.109 58.7987 120.047 66.1749 127.616 71.8651L128.036 72.0759C128.457 72.0759 128.667 71.8651 128.667 71.4436C128.667 71.2329 128.667 71.0221 128.457 71.0221C122.149 64.6997 116.893 57.5342 113.95 49.7366C111.217 42.1496 111.637 31.6122 109.325 26.765C107.643 23.6038 104.279 22.7608 101.125 22.7608C98.6025 22.7608 96.2899 23.1823 95.2387 23.6038L97.9718 18.9673H93.3465C94.3977 17.2813 95.4489 15.5954 95.8694 14.7524C96.2899 13.9094 96.5001 12.8556 96.9206 11.5911C98.6025 7.16544 102.597 4.21496 107.643 4.21496C113.95 4.21496 117.734 8.42993 121.519 12.4341C123.201 14.3309 125.934 18.3351 129.298 21.2856C131.61 23.393 135.815 25.7113 142.332 32.2445C146.117 36.0379 150.532 41.0959 154.947 48.0506C171.345 72.0759 182.278 93.3614 188.165 110.011C170.925 98.2086 155.998 87.2497 144.014 73.5511C135.394 63.8567 128.036 52.4763 121.519 38.1454C121.098 37.0917 120.678 36.2487 120.257 35.4057C120.047 34.9842 119.837 34.9842 119.626 34.9842C119.206 34.9842 118.996 35.1949 118.996 35.6164C118.996 36.0379 119.206 36.8809 119.626 38.3562C122.99 53.3193 132.661 66.5964 142.753 77.7661C152.844 88.725 164.408 98.2086 173.868 105.163L181.227 126.238C181.437 126.66 181.647 127.292 181.647 127.713C181.647 128.135 181.647 128.346 181.227 128.556C181.016 128.767 180.806 128.767 180.176 128.767H177.863C176.812 128.767 176.601 128.556 176.181 128.346C175.76 128.135 175.55 127.713 175.34 127.081C174.709 125.184 170.715 114.015 170.084 111.697C169.874 111.275 169.664 111.064 169.453 111.064C169.033 111.064 168.823 111.275 168.823 111.697C168.823 111.907 168.823 112.329 169.033 113.172C170.084 118.23 171.135 123.92 171.556 126.027C171.766 127.081 171.976 127.924 171.976 128.556C171.976 129.189 171.766 129.61 171.345 130.032L169.243 132.771C168.612 133.404 168.402 133.404 167.982 133.404C167.351 133.404 166.93 132.982 166.72 132.139C164.197 119.916 160.203 104.953 159.152 100.948C158.941 100.105 158.731 99.4731 158.1 99.4731C157.68 99.4731 157.47 99.8946 157.47 100.316C157.47 100.527 157.47 100.948 157.68 101.37C158.311 105.585 160.833 121.391 163.567 135.722C163.987 138.251 165.038 139.515 167.141 139.515C168.192 139.515 169.033 139.094 169.874 138.251C171.345 136.776 171.766 136.565 173.448 134.879C174.709 133.825 175.55 133.193 177.442 133.193H182.488C183.75 133.193 184.38 132.982 184.801 132.35C185.432 131.928 185.642 131.085 185.642 130.032C185.642 128.978 185.431 128.135 185.011 127.081C183.75 123.498 179.545 111.907 178.283 108.535C182.488 111.697 188.795 115.911 191.528 115.911C192.369 115.911 192.79 115.49 192.79 114.225C192.79 107.903 182.278 82.1918 158.521 46.5753C146.117 27.3973 134.974 20.8641 131.82 17.9136Z" fill="white"/>
<path d="M177.443 33.9304C181.437 32.2444 188.796 29.294 193 27.8187V23.6038C184.591 26.765 169.664 32.8767 159.572 38.3561C159.783 38.7776 161.675 41.0959 161.885 41.5174C166.09 39.8314 170.084 38.5669 173.448 38.5669C178.284 38.5669 182.278 38.5669 189.006 37.0916V33.9304C185.222 34.5627 181.227 35.4057 178.704 35.4057C177.232 35.4057 176.812 35.1949 176.812 34.7734C176.602 34.5627 176.812 34.3519 177.443 33.9304Z" fill="white"/>
<path d="M79.8915 15.8062C77.5789 15.8062 76.1072 15.8062 74.0048 14.7524C71.2717 13.488 69.8 12.8557 67.4874 12.8557C64.544 12.8557 61.8109 13.9095 59.7085 16.0169C57.1857 18.3352 56.3447 21.4964 55.5037 24.8684C54.873 27.6081 54.0321 30.5586 52.1399 33.0875C50.458 35.4058 49.4068 36.4595 45.8327 40.8852C40.9972 46.5754 38.4743 51.2119 34.2695 61.3278C34.9003 61.3278 35.9515 61.117 37.0026 61.117C37.6334 61.117 38.0538 61.117 38.6846 61.117L39.105 60.0633C41.4177 55.0053 44.5713 48.2614 48.9863 42.9927L50.458 41.096C55.0833 35.8273 57.8164 32.666 59.7085 25.2899C60.3392 22.7609 60.7597 20.4426 62.6519 18.7567C64.1236 17.2814 66.226 16.6492 68.1181 16.6492C69.8 16.6492 71.0615 17.0707 72.9536 17.9137C74.4253 18.7567 75.056 18.9674 76.7379 18.9674C77.3687 18.9674 77.7891 18.9674 78.2096 18.9674L75.897 22.1286L79.0506 24.4469C75.056 25.7114 72.9536 29.5048 72.1127 31.4015C71.9024 31.823 71.9024 32.0338 71.9024 32.2445C71.9024 32.4553 72.1127 32.8768 72.5331 32.8768C72.9536 32.8768 73.3741 32.4553 73.7946 31.823C75.6867 29.5048 77.3687 27.8188 84.5168 25.5006L79.4711 21.7071L83.2554 16.0169H79.8915V15.8062Z" fill="white"/>
<path d="M15.9782 28.2403C7.56863 28.2403 3.99455 32.2445 3.99455 34.9842C1.47168 36.0379 0 38.7777 0 41.3066C0 46.3646 3.78431 49.9473 8.61983 49.9473C10.3017 49.9473 11.9837 49.3151 13.0349 48.4721C13.8758 48.6828 14.927 48.8936 16.1885 48.8936C18.5011 48.8936 21.2342 48.0506 22.9161 45.3109C23.1264 45.3109 23.3366 45.3109 23.7571 45.3109C26.7004 45.3109 29.4336 43.4141 30.695 40.6744C31.1155 40.0421 31.1155 39.6207 31.1155 39.1992C31.1155 38.7777 30.9052 38.5669 30.4847 38.5669C30.0643 38.5669 29.854 38.9884 29.0131 39.8314C27.1209 41.5174 24.1776 42.1496 21.2342 42.1496C19.7625 44.2571 17.8704 45.5216 15.9782 45.5216C14.5065 45.5216 13.2451 45.1001 11.9837 44.2571C10.9325 45.3109 9.67102 45.7323 8.61983 45.7323C5.88671 45.7323 3.99455 43.8356 3.99455 41.0959C3.99455 39.1992 5.25599 37.5132 6.93791 36.8809C7.14815 33.509 10.9325 31.1907 15.3475 31.1907C15.9782 31.1907 16.3987 31.1907 17.0294 31.1907C17.6601 30.137 19.342 28.8725 21.6547 28.6617C22.0752 28.6617 22.4956 28.6617 22.7059 28.451C22.9161 28.2403 23.1264 28.0295 23.1264 27.8188C23.1264 27.608 23.1264 27.3973 22.7059 27.1865C22.4956 26.9758 22.0752 26.9758 21.6547 26.9758C19.5523 26.5543 17.0294 25.2898 15.5577 21.9178C10.512 21.9178 6.72767 17.7028 6.72767 13.0664V12.8556C5.25599 12.2234 3.99455 10.5374 3.99455 8.64067C3.99455 6.1117 6.09695 4.00421 8.61983 4.00421C10.0915 4.00421 11.5632 4.84721 12.4041 5.90095C13.0349 5.6902 13.8758 5.6902 14.7168 5.6902C18.5011 5.6902 22.7059 8.00843 23.3366 12.8556C28.1721 13.2771 29.4336 17.4921 29.6438 19.1781C29.854 20.0211 29.854 20.8641 30.4847 20.8641C31.1155 20.8641 31.3257 20.2318 31.5359 19.1781C31.9564 17.4921 32.5871 16.0169 33.8486 14.9631C33.8486 10.5374 37.2124 6.74394 41.8377 6.74394C42.4684 5.2687 44.1503 4.00421 46.0425 4.00421C48.5654 4.00421 50.6678 5.90095 50.6678 8.64067C50.6678 10.1159 50.037 11.5911 48.7756 12.2234C48.9858 13.0664 49.1961 13.9094 49.1961 14.5416C49.1961 17.4921 47.5142 19.3888 44.3606 20.4426C43.9401 22.1286 43.3094 23.8145 42.0479 24.8683C39.9455 26.765 37.8431 26.765 37.8431 27.608C37.8431 28.0295 38.0534 28.2403 38.8943 28.2403C42.6786 28.2403 46.463 26.1328 46.8834 22.5501C50.4575 21.2856 52.7702 17.7028 52.7702 14.7524C52.7702 13.9094 52.7702 13.2771 52.3497 12.6449C53.4009 11.5911 54.4521 10.1159 54.4521 7.58693C54.4521 5.47945 53.6111 3.37197 51.9292 1.68599C50.6678 0.842993 48.5654 0 46.2527 0C42.8889 0 40.5763 1.89673 39.3148 3.58272C35.5305 3.58272 30.9052 7.79768 30.9052 13.6986H30.4847C30.0643 11.5911 27.9619 10.3267 26.28 10.1159C24.598 5.90095 21.4444 2.10748 16.1885 2.10748C15.5577 2.10748 14.927 2.10748 14.0861 2.31823C12.6144 0.842993 10.7222 0 8.40959 0C3.78431 0 0 3.79347 0 8.42993C0 11.3804 1.26144 13.2771 3.78431 15.1739V15.8061C3.78431 19.5996 7.77887 25.5005 13.8758 25.5005C13.8758 26.5543 15.1373 27.8188 16.3987 28.0295V28.451H15.9782V28.2403Z" fill="white"/>
<path d="M101.126 192.202C99.4436 192.202 97.7617 191.992 96.5003 191.149C95.4491 190.727 94.8183 190.095 94.1876 189.041C93.7671 188.198 93.5569 187.777 92.7159 187.144C92.2955 186.934 91.6647 186.934 90.8238 186.934H86.619C85.778 186.934 85.3576 187.144 84.9371 187.566C84.7268 187.987 84.5166 188.409 84.5166 189.041C84.5166 190.306 84.9371 192.202 86.1985 193.678C88.7214 197.26 94.1876 200 101.126 200C107.853 200 117.314 197.26 117.314 187.987C117.314 185.669 116.683 183.562 115.422 181.876C113.74 179.768 111.638 178.293 107.643 177.45L99.8641 175.553C96.7105 174.71 95.2388 174.078 95.2388 172.181C95.2388 170.285 96.9207 168.809 100.915 168.809C103.228 168.809 105.33 169.231 106.802 170.706C107.853 171.971 107.643 172.603 108.694 173.024C109.325 173.235 109.956 173.235 110.797 173.235H114.581C115.212 173.235 115.632 173.235 116.053 172.814C116.263 172.603 116.473 171.971 116.473 171.338C116.473 169.652 115.422 167.334 113.319 165.437C110.586 163.119 106.382 161.433 101.126 161.433C91.875 161.433 85.778 165.859 85.778 173.024C85.778 175.553 86.619 177.661 88.0907 179.136C89.7726 181.033 92.2955 182.297 95.8695 183.14L103.648 185.037C105.751 185.669 107.643 186.301 107.643 188.198C107.433 191.149 104.279 192.202 101.126 192.202Z" fill="white"/>
<path d="M29.8545 28.8725C31.7466 31.4014 34.69 36.6701 37.6334 43.4141C38.0538 42.5711 39.7358 40.4636 40.3665 39.8314C37.8436 34.5627 33.4286 29.5047 31.5364 27.3972L29.8545 28.8725Z" fill="white"/>
<path d="M78.4202 75.0263C81.3636 73.5511 85.9888 72.9189 88.5117 72.9189C90.6141 72.9189 92.9267 73.1296 94.8189 73.3403C97.1315 73.5511 99.8646 73.9726 102.598 73.9726C108.905 73.9726 115.212 70.6006 116.263 69.9684C115.422 69.3361 114.581 68.2824 113.951 67.6501C111.848 68.4931 107.223 70.1791 102.598 70.1791C100.285 70.1791 98.393 69.9684 96.2906 69.7576C93.5575 69.3361 91.0346 69.1254 88.9322 69.1254C85.3581 69.1254 80.9431 69.5469 76.7383 72.4974L78.4202 75.0263Z" fill="white"/>
<path d="M72.3228 72.2865L70.4306 69.7576C62.862 72.708 54.2422 77.3445 54.2422 82.1917C54.2422 84.9314 56.3446 87.0389 60.9699 87.0389C67.6975 87.0389 74.8457 83.667 80.7324 80.5057L79.8914 79.6627C79.4709 79.0305 79.0505 78.8197 78.4197 78.8197C77.9993 78.8197 77.5788 79.0305 77.1583 79.2412C72.3228 81.5595 66.8566 84.0884 61.8108 84.0884C58.8675 84.0884 58.2367 83.2455 58.2367 81.981C58.2367 78.1875 67.6975 74.1833 72.3228 72.2865Z" fill="white"/>
<path d="M137.918 169.652C138.549 169.652 139.18 169.442 139.6 169.02C140.02 168.599 140.231 167.966 140.231 167.334V165.016C140.231 164.173 140.02 163.751 139.6 163.33C139.18 162.908 138.549 162.698 137.918 162.698H131.821V151.528C131.821 150.685 131.611 150.053 131.19 149.42C130.77 148.788 129.929 148.367 128.878 148.367H125.093C124.042 148.367 123.412 148.788 122.781 149.42C122.36 149.842 122.15 150.685 122.15 151.528V162.698H120.258C119.627 162.698 118.997 162.908 118.576 163.33C118.156 163.751 117.945 164.384 117.945 165.016V167.334C117.945 168.177 118.156 168.809 118.576 169.02C118.997 169.442 119.627 169.652 120.258 169.652H121.94V186.723C121.94 191.149 123.201 193.888 125.304 195.996C127.406 198.103 129.929 199.368 134.554 199.368H137.498C138.128 199.368 138.759 199.157 139.18 198.736C139.6 198.314 139.81 197.682 139.81 197.05V194.099C139.81 193.256 139.6 192.835 139.18 192.413C138.759 191.992 138.339 191.781 137.708 191.781H137.287C135.395 191.781 134.134 191.359 133.293 190.516C132.242 189.463 131.821 188.198 131.821 186.091V169.652H137.918Z" fill="white"/>
<path d="M189.637 156.164C190.268 156.164 190.898 155.954 191.319 155.532C191.739 155.111 191.95 154.478 191.95 153.846V150.685C191.95 149.42 191.739 148.788 191.319 148.367C190.898 147.945 190.268 147.734 189.637 147.734C189.006 147.734 188.586 147.734 187.535 147.945L160.414 150.685C159.573 150.685 159.362 150.896 158.942 151.317C158.732 151.739 158.521 152.16 158.521 152.792V154.478C158.521 155.111 158.732 155.532 158.942 155.743C159.152 156.164 159.783 156.164 160.203 156.164H189.637Z" fill="white"/>
<path d="M139.809 84.7207C134.764 95.4689 126.985 103.267 118.996 107.903C115.211 110.01 111.848 111.486 104.489 111.486H88.5109C82.8345 111.486 79.2604 112.329 76.5273 112.961C73.5839 113.804 71.6918 114.436 68.5382 114.436C64.1231 114.436 59.9183 112.118 57.8159 110.01L61.6003 107.06L59.7081 104.531C58.6569 105.374 45.4118 115.279 42.4684 117.387H42.2582C42.2582 116.754 42.2582 116.122 42.2582 115.49C42.2582 107.903 38.6841 106.217 33.4281 104.11L29.8541 106.217C37.0022 108.535 38.8944 110.643 38.8944 115.911C38.8944 120.126 37.4227 121.812 35.1101 123.288C32.7974 124.552 30.0643 125.184 27.5414 125.184C26.4902 125.184 26.0698 125.395 25.6493 125.817C25.2288 126.238 25.0186 126.87 25.0186 127.713V128.978H25.8595C30.4848 128.978 34.6896 128.346 39.3149 124.552L54.4521 112.75C56.5545 115.279 62.0207 118.651 68.3279 118.651C71.902 118.651 74.2146 117.808 77.5785 116.965C80.1013 116.333 82.6242 115.701 88.3007 115.701H104.279C112.478 115.701 116.473 114.015 120.678 111.486C130.138 106.217 138.127 97.1548 142.753 86.8282C141.702 85.9852 140.65 85.3529 139.809 84.7207Z" fill="white"/>
<path d="M0.210414 118.019H1.47185C3.99473 118.019 4.20497 116.544 4.20497 115.068C4.20497 114.015 4.20497 112.961 4.20497 111.696C4.20497 108.957 4.41521 106.428 8.83024 104.32C10.7224 103.477 19.7627 99.8946 26.4904 96.9441C28.3825 96.1011 30.2747 95.4689 32.3771 95.4689C34.6897 95.4689 37.2126 96.5226 40.5764 98.4194C43.3095 100.105 46.2529 102.213 48.5655 104.742L51.5089 102.424C48.986 99.4731 45.6222 96.9441 42.0481 94.8366C38.6843 92.7292 35.5307 91.6754 33.0078 91.6754C31.9566 91.6754 30.9054 91.8862 30.2747 92.0969C29.4337 92.3077 28.5928 92.5184 27.3313 92.5184C26.0699 92.5184 25.0187 92.3077 23.547 90.4109C22.9163 89.7787 19.3422 85.5637 18.5013 84.2992C18.0808 83.667 17.4501 82.6132 17.4501 81.138C17.4501 80.5058 17.4501 79.8735 17.8705 79.2413C21.0241 81.7703 25.0187 83.2455 29.644 83.8777L29.0132 80.7165C22.0753 79.0305 14.7169 72.9188 14.7169 69.1254C14.7169 68.2824 14.9272 67.6501 15.1374 67.0179C17.8705 69.5469 23.9675 72.0758 27.3313 72.0758C29.2235 72.0758 30.6952 71.4436 32.1668 70.8113C33.4283 70.1791 34.9 69.7576 36.7921 69.7576C41.2071 69.7576 46.4631 71.8651 51.2986 73.9726C51.5089 73.9726 51.9294 74.1833 52.1396 74.1833C52.9806 74.1833 53.401 73.7618 53.8215 73.1296L54.4522 72.0758C49.1963 69.1254 40.9969 65.7534 36.5819 65.7534C34.6897 65.7534 33.218 66.1749 31.7464 66.8071C30.2747 67.4394 28.803 68.0716 27.5416 68.0716C24.1777 68.0716 15.3477 64.6997 15.3477 61.3277C15.3477 57.5342 29.4337 55.8482 30.9054 55.8482L32.3771 52.687C22.2856 52.687 10.0917 56.2697 10.0917 61.1169C10.0917 62.3814 10.9326 63.2244 10.9326 64.4889C10.9326 66.1749 10.0917 67.4394 10.0917 69.3361C10.0917 70.6006 10.9326 72.2866 11.7736 73.5511C12.8248 75.0263 13.876 76.0801 13.876 77.1338C13.876 77.9768 13.2453 79.2413 13.2453 81.3488C13.2453 85.9852 15.7681 88.7249 21.0241 94.2044L22.0753 95.2581C17.8705 96.9441 9.88144 100.316 8.19952 101.159C1.89233 103.899 0.210414 107.06 0.210414 112.118C0.000174466 113.804 0.000174466 116.122 0.210414 118.019Z" fill="white"/>
<path d="M44.1502 11.8019C44.1502 11.5912 43.94 11.1697 43.5195 11.1697C43.3093 11.1697 43.099 11.3804 42.6786 11.5912C41.4171 12.6449 40.1557 13.9094 39.1045 15.1739C37.4226 17.0706 35.9509 19.8104 34.6895 22.5501L36.5816 23.6038C37.843 21.9178 42.0478 15.5954 44.1502 12.2234C44.1502 12.2234 44.1502 12.0127 44.1502 11.8019Z" fill="white"/>
<path d="M0 195.785C0 196.839 0.21024 197.471 0.840959 198.103C1.47168 198.736 2.31264 199.157 3.57407 199.157H6.72767C7.98911 199.157 8.83007 198.736 9.46078 198.103C9.88126 197.471 10.3017 196.839 10.3017 195.785V164.173H10.512C10.512 164.173 28.1721 195.364 28.8028 196.417C29.854 198.103 31.5359 199.368 33.8486 199.368H39.3148C40.5763 199.368 41.4172 198.946 42.0479 198.314C42.4684 197.682 42.8889 197.05 42.8889 195.996V156.164H113.529C114.16 156.164 114.791 155.954 115.211 155.532C115.632 155.111 115.842 154.478 115.842 153.846V150.896C115.842 150.053 115.632 149.631 115.211 149.21C114.791 148.788 114.16 148.577 113.529 148.577H35.951C34.6895 148.577 33.8486 148.999 33.2179 149.631C32.7974 150.263 32.3769 150.896 32.3769 151.949V182.929H32.1667C32.1667 182.929 15.3475 152.792 14.5065 151.317C13.8758 150.263 13.2451 149.631 12.4041 149.21C11.5632 148.788 10.7222 148.367 9.04031 148.367H3.36383C2.1024 148.367 1.26144 148.788 0.630719 149.42C0.21024 150.053 0 150.685 0 151.949V195.785Z" fill="white"/>
<path d="M81.7833 182.929C82.414 182.297 82.6242 181.665 82.6242 180.19C82.6242 175.764 81.1526 171.128 78.2092 167.545C75.2659 163.962 70.6406 161.433 64.1232 161.433C52.3497 161.433 45.6221 170.706 45.6221 180.4C45.6221 190.727 52.7702 200 64.1232 200C69.7996 200 75.4761 197.893 78.6297 194.099C80.1014 192.413 81.1526 190.095 81.1526 188.83C81.1526 188.409 81.1526 187.987 80.7321 187.566C80.5219 187.144 80.1014 186.934 79.2604 186.934H73.7942C72.743 186.934 71.902 187.355 71.4815 188.198C69.7996 190.516 67.487 191.781 64.1232 191.781C59.0774 191.781 55.7136 187.987 55.5033 183.562H79.2604C80.5219 183.562 81.1526 183.351 81.7833 182.929ZM55.7136 176.396C56.1341 172.181 59.2876 169.02 64.1232 169.02C68.9587 169.02 72.1123 172.181 72.5327 176.396H55.7136Z" fill="white"/>
<path d="M12.1934 39.41C12.1934 39.6207 12.4036 40.0422 12.6138 40.0422C12.8241 40.0422 13.0343 40.0422 13.4548 39.8315L25.8589 35.6165L25.2282 33.509C20.1825 34.352 16.3982 35.6165 12.1934 38.9885C12.1934 38.9885 12.1934 39.1992 12.1934 39.41Z" fill="white"/>
<path d="M19.7623 14.9631C17.8701 13.4879 15.5575 12.4342 13.0346 11.3804L12.6141 11.1697C12.1936 11.1697 11.9834 11.3804 11.9834 11.5912C11.9834 11.8019 11.9834 12.0127 12.4039 12.2234C15.3472 14.7524 21.0237 19.5996 22.9159 21.0748L24.3875 19.3889C22.9159 17.7029 21.2339 16.2276 19.7623 14.9631Z" fill="white"/>
</g>
<defs>
<clipPath id="clip0_20_81">
<rect width="193" height="200" fill="white"/>
</clipPath>
</defs>
</svg>
