<svg width="740" height="200" viewBox="0 0 740 200" fill="none" xmlns="http://www.w3.org/2000/svg">
<g clip-path="url(#clip0_20_121)">
<path d="M700.455 95.2273L740 200C728.409 198.409 716.591 196.136 704.773 194.318L682.5 136.364L659.545 189.545C648.409 187.727 637.273 187.045 625.909 185.682L666.136 94.0909L629.773 0H663.636L684.091 52.5L705.909 0H740L700.455 95.2273ZM603.182 0H572.5V181.591C582.5 182.273 592.955 182.727 603.182 183.864V0ZM546.136 179.545C518.182 177.727 490.227 175.909 461.818 175.455V0H492.955V145.909C510.909 146.364 528.864 147.727 546.136 148.636V179.545ZM428.409 71.1364V102.273H385.682V173.409H354.773V0H442.273V31.1364H385.682V70.9091H428.409V71.1364ZM302.273 31.1364V175C291.818 175 281.136 175 270.909 175.455V31.1364H238.636V0H334.773V31.1364H302.273ZM205 103.864C191.364 103.864 175 103.864 163.409 104.545V150.909C181.818 149.545 200 148.182 218.636 147.5V177.5L132.273 184.318V0H218.636V31.1364H163.409V73.1818C175.455 73.1818 194.091 72.5 205 72.5V103.864ZM31.8182 86.3636V195.455C20.6818 196.818 10.6818 198.409 0 200V0H29.7727L70.4545 113.636V0H101.818V187.045C90.6818 188.864 79.5455 189.545 67.7273 191.136L31.8182 86.3636Z" fill="white"/>
</g>
<defs>
<clipPath id="clip0_20_121">
<rect width="740" height="200" fill="white"/>
</clipPath>
</defs>
</svg>
