<svg xmlns="http://www.w3.org/2000/svg" width="390" height="200" fill="none"><path fill="#fff" d="M374.545 191.12c0-4.231 3.017-7.479 6.963-7.479 3.914 0 6.954 3.246 6.954 7.479 0 4.312-3.04 7.574-6.954 7.574-3.946 0-6.963-3.262-6.963-7.574m-1.535 0c0 5.061 3.871 8.879 8.5 8.879 4.618 0 8.49-3.818 8.49-8.879 0-4.981-3.872-8.784-8.49-8.784-4.629-.002-8.5 3.803-8.5 8.784m5.201 5.188h1.536v-4.44h1.624l2.691 4.44h1.656l-2.827-4.552c1.466-.174 2.601-.955 2.601-2.818 0-1.972-1.105-2.943-3.457-2.943h-3.825v10.313zm1.537-9.008h2.041c1.035 0 2.17.206 2.17 1.576 0 1.623-1.255 1.686-2.602 1.686h-1.609zM223.7.017c14.774 7.956 23.349 23.233 23.349 41.947 0 15.674-7.773 26.226-19.506 35.345 0 0-8.778 7.112-13.563 10.534l35.753 44.493c1.066-1.528 15.695-15.564 15.695-15.564h92.917V78.516h-93.067V44.142h99.267L364.59.031zm59.766 151.559-10.123 10.598 28.692 36.329 62.51.081v-46.993zM171.77.016 75.542 0 0 198.599l63.885-.096 12.353-36.775 59.856.016c-2.147-6.81-3.267-14.432-3.267-22.883 0-25.94 17.562-42.743 34.052-54.441-7.711-9.404-18.878-23.646-18.878-43.029C148 22.802 156.552 7.831 171.77.017M85.915 117.744l22.16-68.777 21.471 68.777zM197.686 28.643c-8.308 0-12.586 5.713-12.586 13.256 0 5.951 4.694 11.65 10.031 18.27 2.125-1.37 6.398-4.568 6.398-4.568 4.913-3.66 8.747-8.004 8.747-13.702 0-7.543-4.703-13.256-12.59-13.256M187.624 113.748c-8.687 7.131-14.894 15.452-14.894 26.593 0 12.843 11.659 26.289 24.201 27.228 8.528.636 17.479-2.769 24.2-9.07"/></svg>