<svg xmlns="http://www.w3.org/2000/svg" width="521" height="200" fill="none"><path fill="#fff" fill-rule="evenodd" d="M38.048 131.066c27.27-13.189 35.451 30.943 17.411 42.356-16.258 10.246-33.197-7.964-26.694-31.095 2.046-7.254 4.72-9.029 9.282-11.21zm25.409-17.729c-11.223-11.717-31.912-11.337-45.6-1.394-23.495 17.145-24.334 63.205.63 80.959 17.36 12.326 31.49 6.531 46.91-1.787l.147 7.418 25.54-.258-.207-92.067-25.33.201c-.68 1.42-.367 6.544-.734 7.406-2.203 4.566 1.24 1.094-1.356-.478M129.409 198.329c1.888-15.928-8.444-76.444 16.677-69.749 19.666 5.276-.891 53.111 15.733 69.952l26.641-.508c-8.863-16.79-6.66-14.864-6.713-36.422 0-12.58-2.412-33.225 13.374-33.225 25.121 0-.471 53.465 20.348 70.103l26.799-.258c-17.306-17.754-2.78-47.885-10.437-73.806-2.883-9.739-11.537-18.413-24.176-19.631-17.411-1.675-21.555 3.906-31.047 11.515-6.188-4.565-9.073-10.804-22.341-11.565-12.115-.712-20.365 3.02-25.977 9.209l-.207-6.303c-.118-.659-.305-.923-.618-1.379l-24.592.35.631 91.965 25.906-.2zM284.273 131.317c27.585-14.559 34.874 33.682 16.152 42.813-13.898 6.746-23.39-3.958-26.169-13.646-2.833-9.79-1.101-23.283 10.017-29.167m-10.93 61.009c12.314 9.503 35.998 9.855 48.27-1.254 25.645-23.333 20.663-65.081-3.252-80.603-18.25-11.82-31.204-4.261-44.105 3.247l-.208-40.175-26.851.456.681 124.582 24.792.144c.683-6.433.009.057.001.085z" clip-rule="evenodd"/><path fill="#fff" fill-rule="evenodd" d="M372.378 142.732c4.143-22.218 28.687-21.811 31.834.058zm54.332 26.124c-17.568 6.138-47.462 18.008-54.384-6.898l58.685-1.065c1.154-26.225-6.976-46.261-26.118-53.769-50.503-19.783-81.55 51.69-44.105 82.074 15.733 12.783 46.151 15.219 62.618 1.725 2.623-5.225 3.147-14.357 3.252-22.067zM520.218 106.311l-28.32.507-18.197 59.704-17.622-60.262-28.005.058c.891 7.862 27.586 85.421 31.571 92.168l29.474.143 31.152-92.269z" clip-rule="evenodd"/><path fill="#fff" d="M404.232 22.496q-.032 0-.039.006c-.681.706-17.193 25.376-17.063 25.494.092.085 1.445.546 3.005 1.025l3.179.976c.252.078.738-.527 1.864-2.32.838-1.335 1.592-2.47 1.676-2.521.14-.086 8.551 2.472 8.716 2.65.041.043-.016 1.396-.111 3.008-.1 1.61-.161 2.947-.134 2.97.027.02 1.561.519 3.411 1.105 1.849.586 3.471 1.07 3.603 1.076.299.014.394-2.06.837-18.241.187-6.842.255-12.339.154-12.435-.315-.301-8.447-2.787-9.098-2.793m2.449 7.29c.048.048-.074 2.721-.273 5.94s-.418 5.913-.488 5.986c-.166.175-5.691-1.552-5.694-1.78 0-.262 6.351-10.25 6.455-10.147M118.575 51.995c-5.13-.691-9.398-4.616-11.327-10.416-1.097-3.3-1.326-5.894-.773-8.779 1.208-6.315 6.877-10.821 14.728-11.708 3.242-.365 3.165-.384 3.643.887l.942 2.496.526 1.392-2.163.243c-5.193.584-8.334 2.204-9.704 5.003-1.641 3.354-.318 9.26 2.776 12.393 1.117 1.131 1.475 1.355 2.814 1.762 1.873.57 3.509.486 6.005-.305 1.982-.629 3.813-1.694 5.553-3.23l1.253-1.107.14.743c.47 2.505-.536 5.398-2.49 7.164-2.666 2.408-8.078 3.98-11.923 3.462M374.965 44.658c-1.697-.422-3.137-.82-3.2-.884-.109-.113 6.682-28.515 6.861-28.694.101-.101 6.635 1.481 6.8 1.646.058.06-1.445 6.527-3.344 14.372-2.441 10.09-3.536 14.273-3.742 14.295-.159.017-1.679-.314-3.375-.736M142.466 30.733c-1.941-7.873-3.492-14.35-3.447-14.395.223-.224 20.64-5.117 20.769-4.978.283.305 1.296 5.136 1.113 5.306-.101.093-3.185.9-6.856 1.791-4.864 1.183-6.673 1.703-6.673 1.921 0 .29 1.274 5.582 1.375 5.712.027.035 2.354-.5 5.17-1.189s5.301-1.285 5.523-1.325c.353-.064.487.26 1.08 2.61.372 1.475.599 2.73.504 2.788s-2.512.676-5.372 1.374c-2.861.698-5.266 1.308-5.345 1.357-.115.07 1.166 5.96 1.33 6.115.024.023 3.212-.739 7.085-1.692s7.068-1.713 7.1-1.69.28 1.283.55 2.798c.445 2.496.459 2.765.152 2.853-1.03.295-20.137 4.958-20.316 4.958-.118 0-1.802-6.441-3.742-14.314M357.988 40.827a11 11 0 0 1-2.225-.697c-2.333-1.068-3.373-2.804-5.004-8.353-1.217-4.143-1.641-5.272-2.539-6.763l-.72-1.196h1.432c3.68 0 5.894-1.928 5.894-5.132 0-1.505-.717-2.582-2.226-3.344-.798-.402-4.762-1.22-4.955-1.02-.077.078-1.092 5.336-2.257 11.683-1.164 6.347-2.162 11.585-2.217 11.64-.112.112-6.133-.952-6.651-1.176-.295-.127-.017-1.883 2.322-14.587 1.461-7.944 2.699-14.478 2.752-14.521.205-.17 12.386 2.186 14.032 2.713 2.853.915 5.022 2.581 6.179 4.75.423.79.482 1.202.482 3.32 0 2.175-.055 2.532-.551 3.572-1.201 2.516-3.466 4.14-6.13 4.394l-1.306.125.671.479c1.029.734 2.476 3.09 3.935 6.406 1.83 4.163 2.855 5.713 4.423 6.69l.622.388-.828.346c-1.004.42-3.57.56-5.135.283M178.795 37.406c-.108-.347-4.932-27.884-4.994-28.5-.052-.513-.039-.516 6.149-1.62 7.182-1.283 9.681-1.43 12.02-.708 2.725.842 4.43 2.507 5.241 5.119 1.171 3.773-.277 7.63-3.496 9.312-1.181.617-1.437.916-.786.92.891.005 2.867 1.51 5.938 4.523 3.413 3.35 4.769 4.381 6.253 4.757.491.124.893.305.893.401 0 .243-1.612 1.3-2.627 1.722-1.482.616-2.692.85-4.414.855-3.033.008-4.231-.913-8.451-6.491-2.409-3.185-3.532-4.42-5.001-5.502-.347-.255-.516-.467-.376-.47.778-.021 2.701-.995 3.654-1.852 1.305-1.174 1.663-1.942 1.657-3.56-.017-2.9-1.786-4.48-4.706-4.192q-3.907.386-3.907.964c0 .197.898 5.427 1.996 11.62 1.099 6.193 1.997 11.354 1.997 11.468s-.922.372-2.049.573-2.695.486-3.483.634c-1.068.2-1.453.207-1.508.027M311.934 3.096c-.256-.07-1.647 3.014-6.37 14.123-3.323 7.817-5.999 14.254-5.948 14.305.166.168 6.758.864 6.893.728.073-.072.593-1.337 1.156-2.811.694-1.819 1.125-2.676 1.339-2.67.919.033 8.621.974 8.713 1.065.059.06.292 1.365.518 2.9.225 1.536.461 2.843.523 2.906.062.062 1.511.277 3.22.479 3.945.465 4.262.476 4.262.154 0-.271-4.762-28.928-4.936-29.705-.091-.407-.408-.47-4.57-.91-2.459-.262-4.619-.515-4.8-.564m3.543 6.642c.027 0 .034.074.037.224 0 .182.338 2.85.743 5.93s.735 5.697.735 5.817-.213.206-.473.192c-.81-.044-5.504-.626-5.568-.69-.071-.072 4.069-10.746 4.361-11.246.09-.15.138-.227.165-.227M218.765 31.65c-.794-1.569-11.748-27.822-11.649-27.92.062-.063 1.883-.312 4.045-.554 3.001-.336 3.968-.38 4.086-.19.086.138 1.944 5.213 4.131 11.28 2.6 7.211 4.025 10.9 4.119 10.658.079-.204.863-5.517 1.743-11.807s1.639-11.501 1.688-11.58c.114-.186 7.219-.941 7.376-.784.121.122-5.586 29.868-5.794 30.197-.06.097-2.003.38-4.315.63-2.312.248-4.414.497-4.67.551-.351.075-.539-.044-.76-.481M280.918 30.33c-1.98-.783-3.238-2.46-3.522-4.697-.125-.985-.113-1.018.342-.888 3.114.888 3.647.926 4.906.355 1.535-.698 1.537-.708 2.026-13.262.237-6.07.441-11.044.454-11.056.116-.105 6.857.27 6.975.388.277.277-.709 22.386-1.064 23.864-.612 2.551-1.884 4.289-3.736 5.104-1.584.698-4.854.796-6.381.192M246.077 28.18c-.065-.954-.175-7.622-.246-14.818L245.703.278h5.343c2.939 0 7.771-.063 10.737-.14L267.177 0v5.742h-3.014c-1.657 0-4.873.063-7.146.139l-4.132.138v2.647c0 1.455.058 2.853.126 3.106l.122.46 5.655-.125 5.653-.125v5.741h-4.383c-2.41 0-4.964.06-5.675.135l-1.291.135v6.314l7.356-.14 7.356-.141v5.611l-4.571.137c-2.514.076-7.377.139-10.806.14h-6.234l-.118-1.735z"/></svg>