<svg xmlns="http://www.w3.org/2000/svg" width="1163" height="200" fill="none"><path fill="#fff" d="M315.496 112.399c0-32.7 20.962-33.286 49.211-33.286h3.221c27.557 0 42.652 4.632 42.652 36.271v22.033c0 26.509-6.848 37.789-43.63 37.789h-7.027c-34.899 0-44.427-9.58-44.427-35.966zm0 70.288h.567C324.725 194.104 340.681 200 360.287 200h10.14c41.012 0 71.019-10.427 71-57.632v-28.823c0-43.685-19.314-59.23-69.719-59.23h-15.664c-22.014 0-34.267 7.457-40.013 15.517h-.535V.01h-30.844v195.518h30.844zM815.338 57.786h-41.413V45.178c0-12.036 7.901-21.723 24.744-21.723l30.757.032V0l-40.899.01c-24.72 0-45.47 12.848-45.47 45.296v12.48h-16.606v24.74h16.606v117.416h30.868V82.526h41.413zM637.062 154.608c0 32.46 20.761 45.334 45.495 45.334h38.301v-24.746l-30.779.01c-16.821 0-22.16-8.407-22.16-20.454V82.526h41.444v-24.74h-41.444V0h-30.837v57.786h-16.609v24.74h16.609zM992.349 31.281h30.851V0l-30.851.01zM992.326 199.973h30.874V54.315h-30.851zM487.701 109.872c0-27.977 13.05-30.769 44.88-30.769l6.234.01c35.806 0 40.425 8.998 40.425 27.395l.031 7.81-91.57.036zm33.635 90.101h27.744c37.364 0 54.439-11.846 58.806-32.556l-27.445-8.3c-4.553 12.762-15.543 16.089-39.726 16.089h-7.122c-39.492 0-45.911-4.985-45.95-36.094l.058-.029h122.407v-26.946c0-48.754-25.361-57.822-65.887-57.822h-15.089c-32.079 0-70.971 5.607-70.971 55.221v34.393c0 48.196 33.703 56.071 63.175 56.044M934.117 156.457c0 13.679-9.389 18.749-45.917 18.749h-8.25c-31.042 0-34.982-5.977-34.982-17.784l.01-7.681c-.01-13.684 7.729-18.849 33.433-18.849h13.735c23.422 0 41.971 4.589 41.971 19.91zM895.781 54.316h-11.532c-41.84 0-59.974 12.857-61.149 32.112l29.406 9.733c1.351-13.156 16.474-17.048 39.404-17.048 34.099 0 42.16 1.973 42.16 26.569v13.364h-.609c-7.708-10.261-18.231-12.912-44.946-12.912h-12.056c-39.392 0-62.328 9.793-62.328 40.91v8.896c.039 25.691 9.834 44.033 50.954 44.033h29.927c29.765 0 32.748-4.876 38.625-13.385h.48v13.354h30.827v-93.627c0-40.785-27.12-52-69.163-52M1117.28 54.316c-13.7 0-27.69 5.185-36.34 19.35h-1.11v-19.35l-29.22.02v145.637h30.85v-87.634c0-17.681 10.18-33.236 34.14-33.236 17.12 0 25.38 4.642 27.21 9.51l19.43-13.088c-4.79-13.251-17.66-21.21-44.96-21.21M227.835.502h-79.861v40.013h-42.681l82.614 96.363 82.641-96.363h-42.713zM0 159.032h42.699v40.051h79.857v-40.051h42.701L82.651 62.699z"/></svg>