<svg width="613" height="200" viewBox="0 0 613 200" fill="none" xmlns="http://www.w3.org/2000/svg">
<path d="M173.635 66.7921C176.228 56.1479 176.139 45.0267 173.377 34.4252C170.516 23.5212 164.047 13.3579 154.564 7.07773C145.849 1.28158 135.294 -1.07731 124.94 0.457108C120.43 1.16978 116.069 2.6184 112.03 4.7451C102.998 9.53458 95.8806 17.6275 91.7169 26.9166C86.7111 37.9862 85.6391 50.5787 87.5301 62.5087C89.2278 73.1965 93.9713 83.599 101.857 91.1306C108.562 97.5312 117.185 101.55 126.398 102.568C136.11 103.774 146.182 101.105 154.215 95.5934C164.056 88.913 170.782 78.2482 173.635 66.7921ZM151.224 63.3001C149.646 69.4606 146.472 75.5153 141.176 79.242C136.34 82.7018 129.674 83.5346 124.208 81.1468C119.823 79.2374 116.483 75.4877 114.21 71.3607C109.817 63.2909 108.763 53.7441 109.936 44.7219C110.81 38.3129 112.959 31.8395 117.298 26.9258C120.215 23.5994 124.199 21.1149 128.639 20.5122C132.915 19.8251 137.292 20.8139 140.859 23.2727C145.165 26.2219 148.031 30.8227 149.904 35.603C153.23 44.3998 153.474 54.2226 151.224 63.3001Z" fill="white"/>
<path d="M508.601 1.93858C499.206 1.93858 489.825 1.75913 480.434 1.74072C480.839 3.58106 481.354 5.39379 481.709 7.26174C482.629 11.7246 482.252 16.2932 482.33 20.8158V89.235C482.33 93.0997 481.41 96.8678 480.43 100.585C489.82 100.585 499.206 100.815 508.601 100.765C507.901 97.8984 507.036 95.0551 506.852 92.0967C506.503 87.5787 506.742 83.0423 506.673 78.5196V22.4445C506.737 18.3038 506.498 14.1952 506.898 10.0821C507.156 7.30775 507.957 4.63468 508.601 1.93858Z" fill="white"/>
<path d="M606.963 90.2473C598.43 63.317 589.892 36.3882 581.35 9.46101C580.608 7.03185 580.629 4.43377 581.41 2.01685C570.368 2.01685 559.358 2.04905 548.334 2.01685C548.859 3.99061 549.158 6.07478 548.739 8.09915C548.33 9.93949 547.672 11.7062 547.124 13.5051C539.027 39.23 530.929 64.9549 522.832 90.6798C521.797 94.4341 519.151 97.397 517.219 100.705C527.917 100.705 538.617 100.705 549.319 100.705C547.966 97.9445 546.991 94.7699 547.736 91.6643C548.702 87.6478 549.834 83.6681 550.842 79.6607C560.131 79.6837 569.42 79.6607 578.704 79.6837C578.865 79.7343 579.164 79.8402 579.339 79.8862C580.393 83.8107 581.46 87.7398 582.454 91.6781C583.209 94.7699 582.238 97.9169 580.894 100.696C591.476 100.696 602.104 100.719 612.714 100.696C610.717 97.2452 607.947 94.1672 606.963 90.2473ZM555.599 61.722C558.237 52.3731 560.885 43.0288 563.545 33.6891C563.968 32.3088 564.143 30.8227 565.104 29.7001C566.351 33.0541 567.138 36.5646 568.187 39.9876C570.271 47.2293 572.369 54.4665 574.416 61.7174C568.145 61.7128 561.87 61.7036 555.599 61.7082V61.722Z" fill="white"/>
<path d="M67.7659 45.6511C74.023 39.0719 75.5505 29.1663 73.5491 20.5443C72.2624 14.9412 68.8728 10.0462 64.0806 6.87058C59.0197 3.52576 52.8775 2.01669 46.8504 2.13171C31.2444 2.13171 15.6352 2.13171 0.0230056 2.13171C0.989183 5.81239 1.90475 9.52987 1.90935 13.3486V89.2625C1.90935 93.1503 0.989182 96.9413 0 100.677C16.9909 100.709 33.9819 100.677 50.9728 100.677C60.6622 100.613 69.9743 95.101 75.0214 86.8747C79.6959 79.3063 80.8875 69.7642 78.6331 61.1974C76.9906 54.9356 72.8728 49.5526 67.7659 45.6511ZM44.366 20.4891C47.5359 20.4891 50.9314 21.6623 52.7763 24.3722C53.6466 25.784 54.1533 27.3894 54.2513 29.045C54.3492 30.7006 54.0353 32.3546 53.3376 33.8592C51.8055 37.0107 48.4699 38.7269 45.3183 39.8403C38.1134 41.8462 30.8855 43.7694 23.6944 45.7523C23.6944 37.3236 23.6944 28.8994 23.6944 20.4707C30.5634 20.4983 37.4647 20.4845 44.366 20.4891ZM57.7084 74.4984C56.4976 76.4243 54.8461 78.0346 52.8901 79.1962C50.9341 80.3578 48.7298 81.0374 46.4593 81.1788C38.868 81.1788 31.2766 81.1788 23.6806 81.1788C23.6806 75.2499 23.6806 69.3179 23.6806 63.3828C32.2795 61.0824 40.8693 58.7221 49.4453 56.3941C51.2212 55.819 53.057 56.6333 54.4648 57.6915C59.4245 61.4872 60.9934 69.1568 57.69 74.4984H57.7084Z" fill="white"/>
<path d="M269.186 12.5665C269.218 9.01462 270.171 5.56397 271.027 2.15015C261.586 2.15015 252.149 2.15015 242.718 2.15015C244.332 8.36589 244.77 14.8163 244.627 21.2207V42.6606H210.226C210.226 34.2717 210.226 25.8874 210.226 17.5078C210.187 12.3299 210.813 7.16838 212.09 2.15015H183.564C184.581 5.96425 185.511 9.83818 185.488 13.8133C185.512 38.9646 185.512 64.1159 185.488 89.2672C185.524 93.1503 184.664 96.946 183.785 100.705C193.222 100.737 202.649 100.705 212.104 100.705C210.979 96.2937 210.353 91.7705 210.236 87.2198C210.236 79.0027 210.236 70.7871 210.236 62.5731H244.655C244.655 71.5953 244.655 80.613 244.655 89.6353C244.613 93.4079 243.707 97.084 242.754 100.709C252.189 100.709 261.625 100.709 271.063 100.709C270.088 96.9782 269.094 93.1871 269.195 89.2948C269.202 63.7018 269.198 38.1257 269.186 12.5665Z" fill="white"/>
<path d="M308.655 82.7341C308.674 74.7317 308.674 66.7293 308.655 58.7269H330.118C333.707 58.7269 337.19 59.7023 340.636 60.6224C340.636 53.4727 340.636 46.323 340.636 39.1779C337.052 40.1717 333.417 41.0918 329.695 41.0918C322.683 41.0918 315.672 41.0918 308.66 41.0918V20.0798H352.823C351.42 14.0987 349.952 8.11757 348.563 2.13647C326.445 2.13647 304.33 2.13647 282.219 2.13647C283.065 5.5595 284.059 9.00092 284.059 12.5528C284.059 38.5291 284.059 64.5009 284.059 90.4681C284.008 93.9602 283.047 97.328 282.219 100.682C304.226 100.682 326.232 100.682 348.236 100.682L348.825 100.489C350.205 94.5859 351.544 88.6554 352.869 82.7341C338.116 82.7464 323.378 82.7464 308.655 82.7341Z" fill="white"/>
<path d="M442.132 41.4736C442.316 43.2312 442.238 45.0071 442.247 46.7692C442.247 61.2097 442.247 75.6472 442.247 90.0816C442.206 93.73 441.258 97.2681 440.361 100.779C449.293 100.779 458.226 100.779 467.161 100.779C466.701 98.9704 466.241 97.1761 465.873 95.3495C464.953 90.6199 465.321 85.7752 465.242 80.9857C465.242 58.5949 465.242 36.2041 465.242 13.8134C465.242 9.83823 466.163 5.9643 467.161 2.15019C458.36 2.22841 449.53 1.97997 440.747 2.26982C432.665 18.6028 424.574 34.9328 416.473 51.2596L415.411 51.3609C407.436 34.9604 399.479 18.5507 391.541 2.1318H362.354C363.472 6.05632 364.323 10.0821 364.309 14.186C364.34 36.7271 364.34 59.2713 364.309 81.8185C364.309 85.5406 364.41 89.2718 364.028 92.9755C363.748 95.6348 362.975 98.2021 362.34 100.797C371.265 100.797 380.187 100.797 389.112 100.797C388.192 97.1439 387.235 93.4356 387.226 89.6583C387.166 79.7711 387.226 69.8747 387.198 59.9874C387.281 53.7901 387.033 47.5652 387.336 41.3816C388.279 42.9137 388.855 44.6344 389.586 46.2677C395.776 60.8432 401.972 75.4125 408.173 89.9758C411.923 89.9758 415.682 89.9758 419.436 89.9758C426.384 74.7899 433.329 59.6071 440.274 44.4274C440.798 43.3922 441.097 42.104 442.132 41.4736Z" fill="white"/>
<path d="M254.45 167.367C251.943 165.623 248.625 165.503 245.731 166.184C242.134 166.985 239.962 170.629 239.852 174.144C239.75 179.665 239.852 185.186 239.806 190.707C239.806 193.927 241.117 197.548 244.213 199.011C245.672 199.663 247.251 200 248.849 200C250.446 200 252.026 199.663 253.484 199.011C256.438 197.594 257.8 194.18 257.846 191.061C257.846 185.701 257.846 180.346 257.846 174.99C257.823 172.133 256.861 169.064 254.45 167.367ZM251.63 194.668C250.222 196.384 247.158 196.338 245.893 194.479C244.94 193.141 244.867 191.434 244.857 189.879C244.857 184.933 244.857 179.996 244.857 175.055C244.857 173.214 245.428 170.914 247.346 170.136C248.02 169.867 248.757 169.794 249.471 169.925C250.185 170.056 250.847 170.386 251.381 170.877C252.486 171.931 252.762 173.541 252.762 175.018C252.762 180.232 252.762 185.462 252.762 190.707C252.808 192.073 252.568 193.568 251.63 194.668Z" fill="white"/>
<path d="M137.583 170.021C136.534 168.048 134.362 166.943 132.209 166.718C128.989 166.373 125.731 166.598 122.492 166.529C122.492 177.433 122.492 188.334 122.492 199.232C124.112 199.232 125.713 199.232 127.355 199.232C127.355 194.829 127.355 190.431 127.355 186.023C129.955 186.023 132.77 186.35 135.089 184.914C137.509 183.493 138.6 180.594 138.595 177.889C138.554 175.257 138.931 172.414 137.583 170.021ZM132.444 181.418C131.119 182.733 129.071 182.338 127.383 182.439C127.383 178.381 127.383 174.323 127.383 170.265C128.989 170.33 130.778 169.971 132.191 170.923C133.525 171.981 133.571 173.84 133.571 175.404C133.488 177.415 133.824 179.743 132.444 181.418Z" fill="white"/>
<path d="M319.55 191.424C318.244 183.111 316.712 174.834 315.336 166.529H308.246V199.232C309.691 199.232 311.14 199.232 312.585 199.232C312.608 190.251 312.539 181.266 312.622 172.29C313.947 181.307 315.773 190.233 317.333 199.232H321.74C323.272 190.03 325.205 180.879 326.452 171.627C326.314 180.829 326.424 190.03 326.387 199.232H330.74C330.74 188.328 330.74 177.427 330.74 166.529C328.412 166.529 326.079 166.529 323.751 166.529C322.352 174.829 320.774 183.097 319.55 191.424Z" fill="white"/>
<path d="M359.602 166.529C357.431 177.43 355.251 188.33 353.064 199.228C354.725 199.228 356.391 199.228 358.052 199.228C358.562 196.352 359.055 193.467 359.565 190.587C361.696 190.587 363.826 190.587 365.961 190.587C366.462 193.472 366.982 196.357 367.465 199.246H372.466C370.261 188.354 368.068 177.466 365.887 166.58C363.789 166.529 361.696 166.538 359.602 166.529ZM360.237 186.773C361.088 181.602 362.183 176.458 362.745 171.236C363.338 176.444 364.447 181.574 365.289 186.745C363.6 186.745 361.916 186.732 360.237 186.75V186.773Z" fill="white"/>
<path d="M399.685 166.534H394.721C394.721 177.438 394.721 188.339 394.721 199.237C399.125 199.237 403.528 199.237 407.93 199.237C407.93 197.703 407.93 196.186 407.93 194.686C405.169 194.686 402.432 194.686 399.68 194.686C399.696 185.304 399.697 175.92 399.685 166.534Z" fill="white"/>
<path d="M424.93 170.872C427.023 170.872 429.121 170.872 431.215 170.872C431.215 180.326 431.215 189.779 431.215 199.232H436.068V170.872H442.358C442.358 169.428 442.358 167.98 442.358 166.529H424.93C424.93 167.979 424.925 169.428 424.93 170.872Z" fill="white"/>
<path d="M469.152 195.091C469.152 191.521 469.152 187.951 469.152 184.38C471.802 184.38 474.453 184.38 477.098 184.38V180.35H469.157V170.688C472.079 170.688 475 170.688 477.926 170.688C477.926 169.308 477.926 167.928 477.926 166.548C473.353 166.548 468.777 166.548 464.197 166.548C464.197 177.452 464.197 188.351 464.197 199.246C468.878 199.246 473.557 199.246 478.234 199.246C478.234 197.866 478.234 196.485 478.234 195.105C475.207 195.082 472.175 195.091 469.152 195.091Z" fill="white"/>
<path d="M172.605 191.539C172.633 192.998 172.113 194.686 170.705 195.372C169.325 195.975 167.549 195.832 166.5 194.705C165.672 193.706 165.488 192.354 165.492 191.102C165.492 182.913 165.492 174.723 165.492 166.538C163.873 166.538 162.272 166.538 160.638 166.538C160.638 175.148 160.638 183.753 160.638 192.354C160.569 195.514 162.663 198.657 165.764 199.503C168.736 200.318 172.269 200.198 174.768 198.211C175.621 197.492 176.305 196.594 176.768 195.579C177.232 194.565 177.465 193.46 177.45 192.344C177.45 183.756 177.45 175.154 177.45 166.538H172.601C172.601 174.869 172.602 183.203 172.605 191.539Z" fill="white"/>
<path d="M217.307 180.184C217.908 177.441 217.922 174.602 217.349 171.852C217.066 170.595 216.417 169.449 215.484 168.561C214.55 167.672 213.374 167.08 212.104 166.86C208.616 166.299 205.069 166.612 201.559 166.534C201.559 177.435 201.559 188.333 201.559 199.227H206.413C206.413 194.659 206.413 190.09 206.413 185.526H209.127C210.374 189.625 211.667 193.702 212.904 197.806C213.088 198.266 213.13 198.85 213.521 199.223C215.209 199.301 216.902 199.223 218.582 199.223C216.962 194.358 215.363 189.486 213.783 184.606C214.646 184.155 215.405 183.529 216.012 182.767C216.619 182.006 217.06 181.126 217.307 180.184ZM211 181.597C209.619 182.37 207.931 182.025 206.399 182.098V170.265C208.101 170.38 210.158 169.805 211.538 171.112C212.849 172.621 212.637 174.792 212.679 176.633C212.61 178.381 212.582 180.497 211 181.597Z" fill="white"/>
</svg>
