<svg xmlns="http://www.w3.org/2000/svg" width="611" height="200" fill="none"><g clip-path="url(#a)"><path fill="#fff" d="M611 0 483.379 199.6l-239.81-48L0 190.8 65.69 88.2c2.177 1.2 4.551 2.2 7.52 2.6l-56.985 89.4 227.74-36.6 235.654 47 49.466-77.4h.396c4.155 0 7.518-1.6 9.101-3l-1.583-3.4-2.968-2.2L593.984 11 293.826 70.2c2.177-3.8 4.155-7.2 5.342-9.2zM415.71 77.8c3.759 0 6.727-3.8 6.727-7.6 0-3.4-2.177-4.6-4.551-4.6-4.155 0-7.123 4.2-7.123 7.6 0 2.4 1.583 4.6 4.947 4.6M87.257 51.2h1.979l31.658-48.8 160.467 62.2c.395-.4.395-.8.791-1.2 2.177-3.8 3.76-6.4 3.76-6.4l12.069-.8c-8.706 14.8-25.326 42-26.513 44.2-7.123 12.2-10.487 18-10.487 21.4 0 1.2.396 2.2 1.583 2.2 3.759 0 11.674-5.8 27.503-26 1.187-1.6 4.946-7.2 6.727-9.2l11.278-.4c-6.331 9.6-15.037 22.6-18.797 29.4-1.583 2.6-2.572 4.2-2.572 5 0 1.2.791 1.6 1.583 1.6 4.155 0 12.465-6.8 24.139-23.6 2.968-4.2 4.947-7.6 7.915-11.8l11.278-.4c-3.364 5-9.498 15.6-10.487 16.8-5.342 8.8-8.31 14.2-8.31 16.8 0 1.2.396 2.2 2.176 2.2 8.311 0 19.589-15.2 22.359-23.2 0-5.4.791-10 2.968-12.6.791-1.2 2.176-2.6 4.551-2.6 1.583 0 2.968.8 2.968 2.2 0 2.2-2.573 8-6.728 15.2 1.187 3 3.76 4.6 6.728 5.4 4.55-8.4 15.037-22.2 28.69-22.2 4.946 0 7.123 1.6 7.123 5.4 0 7.2-10.883 17.2-25.722 19.4-1.188 2.6-2.573 5.4-2.573 8.4 0 2.6 1.188 4.6 4.947 4.6 12.07 0 26.514-18.4 34.428-29 .396-.8 3.759-5 4.551-6.4l11.278-.8c-9.497 15.2-12.465 20.2-12.465 20.2-2.968 5-6.728 11.4-6.728 13.4 0 1.2.792 2.2 2.177 2.2 4.551 0 12.861-7.6 24.535-19.8 4.946-5 10.487-11 14.048-15.2 1.187-4.6 3.76-6.8 6.727-6.8 2.573 0 3.364 1.2 3.364 3.4 0 2.6-2.176 4.2-4.155 4.6v2.2c0 4.6.396 8 .396 13 0 4.6-.792 8.8-3.364 13 5.738-4.6 17.412-16 24.535-22.2 7.123-6.8 14.048-9.2 19.588-9.2 4.551 0 7.124 1.6 7.124 5.4 0 9.2-15.434 18-25.723 19.4-1.187 2.2-2.572 5.8-2.572 8.8 0 2.6 1.583 4.2 4.155 4.2 8.311 0 16.621-8.8 23.348-16.8 10.487-13 15.038-20.2 22.952-20.2 4.155 0 6.332 2.2 6.332 5 0 3.8-1.583 7.2-5.343 13.8 12.07-15.6 17.808-19 21.963-19 2.968 0 4.947 1.6 4.947 3.8-4.155 1.2-8.31 7.2-8.31 11.4 0 1.2.395 2.2.791 3 .396.4 1.187.8 2.572.8s2.572-.4 4.155-1.2l.792 2.2c-2.177 1.2-4.155 1.6-7.123 1.6-5.343 0-8.311-2.6-8.311-6.8 0-2.6 1.188-5.4 2.968-8-7.123 6.4-21.567 25.2-26.513 33.6l-11.278.4c1.583-2.6 11.278-16.8 17.807-28.6 2.177-3.8 3.364-5.4 3.364-7.2q0-1.2-1.187-1.2c-3.76 0-9.498 7.6-17.412 17.6-5.738 7.6-16.225 20.2-29.877 20.2-7.123 0-10.487-3.8-10.487-8.8 0-4.6 1.583-8.8 4.155-12.6-3.364 3-6.727 5.8-9.893 8.8-6.332 5.8-14.642 12.6-25.722 12.6-5.738 0-9.102-2.6-9.102-5.4 0-1.6 1.187-3 2.572-3 3.76 0 2.572 5.4 7.519 5.4 5.738 0 10.487-5.4 13.257-22.2.396-2.2 1.187-6.8 2.176-9.6-8.706 9.2-15.037 15.6-17.412 18.4-7.518 7.6-16.224 16-24.535 16-4.55 0-7.518-2.6-7.518-6.4 0-2.6 1.187-5.8 4.155-11.8-6.728 7.2-17.016 18-29.878 18-7.518 0-10.882-3.8-10.882-9.2 0-2.6.791-5.4 2.177-8.4-2.968-.8-5.343-2.6-7.124-5-3.363 5.4-7.518 11-13.256 16-5.738 5.4-11.279 7.2-15.829 7.2s-7.519-2.2-7.519-6.4c0-3 1.583-6.4 2.968-9.2-6.332 7.6-14.048 15.6-22.952 15.6-3.76 0-7.123-1.6-7.123-6.4 0-3 1.583-5.8 4.155-10.6-5.343 5.8-14.048 16.8-24.139 16.8-4.551 0-7.124-2.6-7.124-6.4 0-3.4 1.583-6.8 2.968-9.2-1.187 1.6-2.572 3-3.363 4.2-7.123 8-12.861 11.4-19.193 11.4-4.551 0-7.519-2.6-7.519-7.2 0-2.2.792-5 1.583-7.2-6.727 7.2-14.048 14.2-22.358 14.2-4.551 0-6.728-2.6-6.728-5.8 0-2.2.792-4.6 2.573-8l-2.77 3c-5.738 5.8-12.862 11-19.589 11-4.155 0-7.123-2.2-7.123-6.4 0-3 2.177-8 7.519-15.6l-3.364 3.6c-16.62 16-33.241 25.6-51.048 25.6-13.257 0-17.412-5.8-17.412-13 0-1.6.395-3.4.395-3.4l-2.572 3c-6.727 8.4-11.674 13-18.203 13-5.343 0-9.893-2.6-9.893-7.6 0-3 1.583-5.8 3.76-9.6 4.55-7.6 17.015-26 26.117-39.4C99.525 83 91.215 86 80.333 86 64.898 86 57.38 79.6 57.38 70.4c-.396-10.8 10.883-18.8 29.877-19.2m374.159 57.6c8.706-1.2 19.588-10.6 19.588-17.2 0-1.2-.396-2.2-1.583-2.2-5.144.6-11.278 7.2-18.005 19.4m-101.899 0c8.705-1.2 19.588-10 19.588-17.2 0-1.2-.792-2.2-2.177-2.2-5.342.6-11.871 9.8-17.411 19.4m-245.548-8c8.31-12.2 16.62-25.2 21.963-33.2-2.573-1.2-4.947-2.6-7.123-3.8-2.77 3.8-37.396 55.6-39.77 59.8-2.177 3.4-2.573 5-2.573 5.8s.396 1.6 1.583 1.6 2.968-.8 4.947-2.6c5.144-4 11.673-13.6 20.973-27.6m16.62-11.4 2.573-4.2c7.914 0 14.048 0 18.203-2.2 9.893-4.6 15.038-16 15.038-21.4 0-3.8-1.583-7.2-6.728-7.2-7.519 0-14.642 7.6-18.797 13 3.76 2.2 6.728 4.2 8.31 5.8l-1.187 2.2c-2.572-2.2-5.342-3.8-8.31-5.8-4.947 6.4-15.829 23.6-23.348 34.4 4.947-3.4 11.278-4.2 15.434-4.2v3c-14.642.4-23.348 10-23.348 20.2 0 5.4 2.968 9.2 10.882 9.2 18.204 0 30.273-19.8 30.273-32.4 0-5.8-2.176-11-11.278-11h-4.155c-1.583.2-2.77.6-3.562.6m132.173 4.8c0-2.2-1.583-3.8-4.155-3.8-4.551 0-8.706 3-15.038 10.6-4.947 6.8-10.487 16.4-10.487 20.6 0 1.2.396 2.6 2.572 2.6s5.738-1.6 11.279-7.6c4.946-5.4 10.882-13 15.037-20.6.792-.6.792-1.4.792-1.8m-164.226-42c1.583 0 3.759.4 5.342.8 6.727 1.2 12.07 3 17.016 4.6.792-1.2 1.583-2.6 2.572-3.8l13.257-.4c-1.187 1.6-3.364 5-6.331 8.4 2.572 1.2 4.946 2.6 7.518 3.8C146.221 55 154.135 50 164.226 50c10.882 0 15.038 6.4 15.038 12.6 0 5.8-3.364 12.6-7.519 16.4-5.342 5.4-12.861 8-18.797 9.2 3.364 1.6 9.102 4.6 9.102 14.2 0 8-4.551 15.6-9.498 21.4 9.893-5.8 24.139-19.4 30.273-27.4 1.187-1.6 4.155-5.4 5.342-7.6l11.674-.8s-15.037 22.6-18.203 28.6c-1.583 3.4-2.572 4.6-2.572 5.4s.395 1.6 1.583 1.6c4.55 0 13.256-7.6 19.192-16 2.968-3.8 12.861-19 12.861-19l12.07-.8c-9.497 15.2-12.861 20.2-12.861 20.2-3.364 5-5.738 9.6-6.332 12.2-.395.8-.395 1.2-.395 1.6 0 1.2.395 1.6 1.583 1.6 7.123 0 19.588-16.4 23.347-21.4 7.123-9.2 16.225-15.6 25.722-15.6 4.156 0 7.124 1.6 8.311 4.6 2.572-4.2 7.123-11.4 10.882-18 .396-.8.792-1.2 1.187-1.6L123.862 12.2zM61.93 71.4c0 3 .791 5.4 2.968 7.6 1.187 1.2 2.968 2.6 4.947 3l15.037-23.2c1.583 0 3.76-.4 5.738-.4h3.76L78.55 83.2h6.333c14.839-1.2 23.94-9.2 27.304-13.4 0 0 7.123-10 7.519-10.6-7.123-2.6-17.016-5.4-29.086-5.4-18.203.8-28.69 8-28.69 17.6m443.608 124c0 1.2-.396 2.6-1.187 3.4s-2.176 1.2-3.364 1.2-2.572-.4-3.363-1.2c-.792-.8-1.188-2.2-1.188-3.4s.396-2.6 1.188-3.4 2.176-1.2 3.363-1.2c1.188 0 2.573.4 3.364 1.2s1.187 1.6 1.187 3.4m-.989 0q0-1.8-1.187-3c-.792-.8-1.583-1.2-2.968-1.2q-1.781 0-2.968 1.2c-.792.8-1.187 1.6-1.187 3s.395 2.2 1.187 3c.791.8 1.583 1.2 2.968 1.2s2.176-.4 2.968-1.2c.791-1 1.187-2.2 1.187-3m-1.583 2.4h-1.187l-.792-2.2h-1.187v2.2h-1.187V192h2.572c.792 0 1.187 0 1.583.4s.396.8.396 1.2c0 .8-.396 1.2-1.187 1.6zm-3.364-2.8h1.187c.792 0 1.188-.4 1.188-.8s-.396-.8-.792-.8h-1.187v1.6z"/></g><defs><clipPath id="a"><path fill="#fff" d="M0 0h611v200H0z"/></clipPath></defs></svg>