<svg xmlns="http://www.w3.org/2000/svg" width="638" height="200" fill="none"><path fill="#fff" d="M446.674 15.358s-11.953 4.758-25.854 20.079-21.997 32.55-16.005 37.132c2.301 1.741 7.609 2.073 17.239-6.635a76.1 76.1 0 0 0 20.38-28.258c6.22-15.166 4.24-22.132 4.24-22.298m76.077 27.543c-15.446-7.92-26.734-17.622-38.479-23.624-11.206-5.753-18.452-8.158-27.512-6.946a28 28 0 0 0-3.732.933s4.665 15.933-13.901 42.699c-18.804 27.138-35.867 26.952-40.718 19.499-5.08-7.868 1.482-23.905 12.439-38.18 11.476-14.926 31.627-27.304 31.627-27.304s-6.427-3.928-22.204 5.018c-15.394 8.687-41.89 29.419-66.478 64.384-24.589 34.965-29.461 54.205-32.985 69.35s-.322 31.368 16.471 31.368c16.794 0 36.344-25.615 41.859-34.52 10.252-16.586 16.938-42.024 2.985-38.531-6.872 1.721-12.439 9.33-15.953 16.659a71.3 71.3 0 0 0-5.059 14.72 58 58 0 0 0-13.611 7.919 101 101 0 0 0-12.916 11.403s.062-12.107 9.713-31.7c9.651-19.592 27.367-28.538 37.401-29.377 9.04-.726 20.805 6.945 10.833 35.245s-39.391 62.705-70.293 63.13c-28.517.394-47.176-36.002-7.484-99.516 43.932-70.168 95.462-91.699 112.193-94.093s22.173 4.986 22.173 4.986a72 72 0 0 1 31.814-5.246c20.432 1.38 36.23 15.84 57.086 25.999-5.421 5.183-10.594 10.625-15.259 15.725m91.783-23.624c-14.161 9.08-33.753 17.311-52.578 15.55-4.768 4.923-9.868 10.624-14.979 16.844 32.643 6.458 61.244-13.766 76.451-30.984A101.5 101.5 0 0 0 637.619.317a127.3 127.3 0 0 1-23.086 18.98m-43.465 91.969q.372-.648.601-1.358a3.294 3.294 0 0 0-2.996-2.861c-3.11-.146-7.349.445-18.472 12.76a167.5 167.5 0 0 0-23.646 33.545c-6.364 11.631-8.946 20.297-5.286 22.536a5.27 5.27 0 0 0 3.856.394c2.477-.591 5.287-2.913 9.558-7.857 2-2.322 4.219-5.608 6.872-9.247 7.36-10.014 25.854-41.537 29.513-47.912m-115.542 13.393c1.856-4.852 4.219-14.378-.694-18.12-5.277-3.971-18.732 5.349-18.804 14.906-.094 9.786 9.474 14.212 11.765 14.834 1.306.353 1.762.301 2.395-.746a87 87 0 0 0 5.338-10.874m-10.179 17.798a40.6 40.6 0 0 1-9.247-5.898 29.7 29.7 0 0 1-6.924-8.428c-.187-.311-.374-.072-.581.208s-1.037 1.036-8.21 11.548c-7.173 10.511-18.193 32.29-8.22 36.001 6.385 2.374 17.011-8.811 22.805-16.223a138.5 138.5 0 0 0 10.709-16.295c.3-.633-.001-.778-.322-.913m113.116 25.159c-2.706 4.333-5.795 12.647 3.11 7.474 10.895-6.292 26.413-29.834 26.413-29.834h7.038a236 236 0 0 1-21.333 27.989c-11.04 12.232-24.506 23.345-33.991 22.246-11.081-1.296-7.609-15.84-7.609-15.84s-15.85 16.876-26.817 15.664c-14.813-1.638-10.294-19.945-10.294-19.945s-16.751 20.556-28.164 19.924c-17.893-1.037-13.394-22.806-8.418-38.137 2.664-8.2 5.131-14.637 5.131-14.637s-1.772.466-5.587 1.036c-1.99.28-5.618.487-5.618.487s-7.454 13.145-13.414 21.044c-5.961 7.899-31.296 35.131-46.202 29.678-13.787-5.038-9.226-26.143-1.203-42.916 11.714-24.454 44.658-59.585 63.659-54.94 19.696 4.778.446 40.718.446 40.718s0 .134.207.228c.394.145 1.42.259 3.794-.208a42.6 42.6 0 0 0 7.205-2.145s19.799-41.465 41.672-68.593C530.37 39.78 574.001-6.94 591.126 4.359c4.147 2.778 2.281 12.346-3.358 23.956a77 77 0 0 1-7.733 2.074c3.773-6.852 6.271-12.626 7.017-16.659 2.582-14.015-30.144 15.55-53.531 47.311a441 441 0 0 0-37.421 60.57 103 103 0 0 0 12.066-8.614 346 346 0 0 0 29.689-27.72 323 323 0 0 0 25.272-29.17c2.49-.12 4.971-.376 7.433-.767a320 320 0 0 1-27.885 32.944c-9.33 9.433-19.426 19.581-28.196 26.952a235 235 0 0 1-24.734 18.379s-20.452 41.247-9.329 43.89c6.541 1.576 19.457-18.317 19.457-18.317s16.855-25.718 27.014-37.318c13.86-15.756 25.791-24.879 37.712-25.044 6.946-.125 11.04 7.256 11.04 7.256l3.266-5.059h20.11s-37.557 63.731-40.563 68.531m56.081-148.257c-14.16 9.08-33.752 17.311-52.577 15.55-4.768 4.923-9.869 10.624-14.979 16.844 32.643 6.458 61.243-13.766 76.45-30.984A101.5 101.5 0 0 0 637.619.317a127.3 127.3 0 0 1-23.086 18.98M332.107 50.56h-19.126l-10.812 17.467h19.126zm-90.559 60.487c8.137-11.154 30.59-50.245 30.59-50.245a3.284 3.284 0 0 0-2.985-2.861c-3.11-.145-8.293.902-18.587 13.787-10.293 12.885-18.286 23.137-24.111 33.804-6.386 11.641-9.174 19.851-5.505 22.08a5.45 5.45 0 0 0 3.846.394c2.384-.601 5.504-2.996 9.786-7.92 2.011-2.301 4.291-5.401 6.966-9.039M138.923 58.18c-5.287-3.99-18.732 5.35-18.805 14.886-.083 9.796 12.098 12.792 13.673 12.865.464.038.928-.06 1.338-.28.281-.164.505-.41.642-.705a93 93 0 0 0 3.857-8.646c1.855-4.85 4.208-14.377-.705-18.12m-7.972 33.722a44.6 44.6 0 0 1-10.366-4.769 21.6 21.6 0 0 1-7.402-8.2c-.186-.31-.394-.072-.58.208-.187.28-1.265 1.627-8.459 12.18s-17.85 32.135-7.868 35.846c6.365 2.416 17.115-8.863 22.951-16.244a192 192 0 0 0 12.087-18.099c.238-.632 0-.777-.353-.891M287.159 98.4h7.007s-35.11 50.794-54.94 48.431c-11.071-1.296-7.785-14.959-7.785-14.959s-15.55 18.204-29.834 14.513c-12.958-3.327-4.592-24.879-4.592-24.879-1.472.591-29.513 32.198-49.219 24.62-20.618-7.961-9.91-34.426-5.992-42.387 3.328-6.707 7.008-13.238 7.008-13.238s-3.162.892-5.183 1.348-4.945 1.036-4.945 1.036-9.754 15.85-15.715 23.76c-5.96 7.909-31.295 35.089-46.223 29.678s-11.226-26.299-2.84-42.885c13.6-26.9 45.87-59.958 65.307-54.94 19.633 5.006 3.379 36.851 3.379 36.851s3.908.508 13.269-5.877c13.476-9.195 31.264-33.929 50.525-31.026 9.08 1.368 17.539 10.646 5.971 28.268-3.691 5.66-9.879 10.719-14.617 5.712-2.954-3.11-.373-8.78 2.727-12.657a12.12 12.12 0 0 1 10.366-4.748s3.182-7.256-4.914-7.153c-6.551.125-23.137 15.394-32.498 30.819-8.583 14.16-21.592 38.282-8.531 43.538 11.973 4.831 34.758-22.215 45.31-36.385 10.553-14.17 34.603-46.285 54.775-47.57 6.946-.457 11.082 5.877 11.082 5.877l2.332-3.69h20.173s-37.992 63.399-40.957 68.199c-2.332 3.752-5.432 12.19 3.11 7.463s26.444-27.719 26.444-27.719M276.181 199.99a83.54 83.54 0 0 0-50.69-14.793 31.1 31.1 0 0 0-24.734 13.404c-7.692-13.425-22.899-21.666-46.409-21.479-37.993.435-75.674 17.954-105.528 17.933-28.61 0-49.478-17.985-48.804-49.923C1.27 89.082 48.633 38.609 83.982 15.897 104.362 2.846 121.404-1.031 132.547.223c8.128.902 17.903 10.294 11.735 24.133-9.06 20.224-21.572 18.565-21.106 8.894.26-6.293 4.447-10.252 7.599-12.44 2-1.378 5.535-1.772 7.381-1.814 1.793-1.513 3.109-12.584-11.403-8.946S94.618 27.994 77.887 46.477 35.105 99.894 28.668 136.58c-3.006 17.011-1.037 48.037 39.298 47.684 34.209-.28 84.63-22.805 130.966-22.339 17.986.176 33.639 5.028 45.84 12.553 11.983 7.381 26.35 18.162 31.451 25.522"/></svg>