<svg width="209" height="200" viewBox="-10 -10 229 220" fill="none" xmlns="http://www.w3.org/2000/svg">
<path d="M133.003 0H75.9688V58.8393H133.003V0Z" fill="white"/>
<path d="M14.6426 64.86V93.1084L73.2157 93.3335V150.956H101.326V97.4976C102.482 75.7045 88.5265 64.3512 70.5278 64.86H14.6426Z" fill="white"/>
<path d="M134.359 65.1686C118 66.0821 105.837 77.3752 106.921 97.8062V151.264H135.031V93.6421L193.604 93.417V65.1686H137.719C136.594 65.1362 135.45 65.1077 134.359 65.1686Z" fill="white"/>
<path d="M26.0653 192.937C25.2383 193.25 24.2365 193.501 23.0598 193.689C21.883 193.878 20.6739 193.975 19.4324 193.98C15.9076 193.945 13.1762 193.007 11.2384 191.165C9.30055 189.323 8.31814 186.786 8.29116 183.551C8.36453 180 9.43551 177.35 11.504 175.6C13.5724 173.85 16.198 172.977 19.3806 172.981C20.8067 172.992 22.0741 173.112 23.1829 173.342C24.2916 173.572 25.2351 173.847 26.0135 174.166L27.6717 168.478C26.957 168.107 25.8602 167.781 24.3812 167.5C22.9021 167.219 21.1316 167.07 19.0697 167.056C13.6502 167.079 9.1505 168.537 5.57063 171.428C1.99075 174.32 0.133869 178.503 0 183.978C0.00720207 188.627 1.54705 192.435 4.61844 195.402C7.68983 198.368 12.2478 199.901 18.2924 200C20.4126 199.981 22.2479 199.829 23.7982 199.543C25.3484 199.258 26.4842 198.952 27.2053 198.625L26.0653 192.937Z" fill="white"/>
<path d="M32.4766 167.53V185.353C32.5068 190.401 33.7289 194.11 36.1428 196.48C38.5568 198.85 41.9812 200.023 46.4161 200C51.0129 200.01 54.5798 198.817 57.1168 196.421C59.6538 194.025 60.9407 190.367 60.9774 185.447V167.53H53.1008V185.874C53.0918 188.71 52.5394 190.812 51.4426 192.178C50.3457 193.545 48.7566 194.225 46.6752 194.217C44.6661 194.216 43.1136 193.518 42.0179 192.125C40.9221 190.732 40.3672 188.648 40.3532 185.874V167.53H32.4766Z" fill="white"/>
<path d="M66.1348 199.478H87.899V193.411H74.0113V167.53H66.1348V199.478Z" fill="white"/>
<path d="M94.2417 199.478H102.118V173.597H111.653V167.53H84.8105V173.597H94.2417V199.478Z" fill="white"/>
<path d="M115.893 167.53V185.353C115.923 190.401 117.145 194.11 119.559 196.48C121.973 198.85 125.397 200.023 129.832 200C134.429 200.01 137.996 198.817 140.533 196.421C143.07 194.025 144.357 190.367 144.393 185.447V167.53H136.517V185.874C136.508 188.71 135.955 190.812 134.859 192.178C133.762 193.545 132.173 194.225 130.091 194.217C128.082 194.216 126.53 193.518 125.434 192.125C124.338 190.732 123.783 188.648 123.769 185.874V167.53H115.893Z" fill="white"/>
<path d="M149.5 199.478H157.325V186.917H159.657C161.263 186.899 162.507 187.255 163.388 187.983C164.269 188.712 164.942 190.063 165.409 192.036C165.906 194.008 166.362 195.622 166.775 196.877C167.189 198.132 167.528 198.999 167.792 199.478H175.876C175.533 198.79 175.118 197.583 174.633 195.858C174.147 194.133 173.629 192.322 173.078 190.425C172.65 188.948 172.067 187.706 171.329 186.698C170.591 185.689 169.619 184.957 168.414 184.499V184.357C169.986 183.848 171.389 182.923 172.625 181.584C173.86 180.245 174.512 178.562 174.581 176.536C174.577 175.064 174.299 173.765 173.745 172.637C173.191 171.509 172.382 170.565 171.316 169.805C170.081 168.912 168.535 168.268 166.678 167.873C164.821 167.478 162.602 167.285 160.019 167.293C157.881 167.297 155.914 167.36 154.118 167.482C152.323 167.605 150.784 167.763 149.5 167.956V199.478ZM157.325 172.933C157.603 172.861 158.031 172.804 158.607 172.762C159.184 172.719 159.948 172.697 160.9 172.696C162.729 172.7 164.15 173.073 165.163 173.816C166.175 174.56 166.689 175.656 166.704 177.105C166.689 178.52 166.136 179.636 165.046 180.452C163.956 181.269 162.418 181.686 160.434 181.703H157.325V172.933Z" fill="white"/>
<path d="M197.755 191.06L200.45 199.26H209L198.118 167.311H187.754L177.131 199.26H185.267L187.754 191.06H197.755ZM188.894 185.656L190.967 178.877C191.251 177.93 191.525 176.909 191.789 175.814C192.054 174.719 192.315 173.686 192.573 172.715H192.677C192.938 173.683 193.219 174.71 193.519 175.796C193.819 176.882 194.126 177.91 194.439 178.877L196.615 185.656H188.894Z" fill="white"/>
</svg>
