<svg xmlns="http://www.w3.org/2000/svg" width="172" height="200" fill="none"><g clip-path="url(#a)"><mask id="b" width="320" height="282" x="-74" y="-41" maskUnits="userSpaceOnUse" style="mask-type:luminance"><path fill="#fff" d="M-73.899-40.463H245.03v280.839H-73.899z"/></mask><g mask="url(#b)"><path fill="#fff" d="M86.01 199.997c2.613.052 4.118-.592 7.717-2.245l69.312-29.1c1.435-.578 2.304-1.039 3.576-1.664 0 0 2.365-1.763 2.592-2.034 2.317-2.754 2.366-5.173 2.626-7.67.114-1.114.167-2.317.167-3.611V15.657C172 4.22 167.789 0 156.38 0H15.62C4.211 0 0 4.22 0 15.657v138.016c0 1.294.052 2.497.166 3.611.26 2.497.309 4.916 2.626 7.67.225.269 2.57 2.018 2.592 2.034 1.272.626 2.142 1.086 3.577 1.664l69.312 29.1c3.598 1.653 5.103 2.297 7.716 2.245zm40.705-96.079c-9.464 0-14.144-4.71-14.144-14.241V40.162c0-9.531 4.68-14.242 14.144-14.242h5.659c9.463 0 14.032 4.602 14.032 14.132v15.666h-11.422V40.709c0-3.067-1.415-4.491-4.352-4.491h-1.959c-3.046 0-4.46 1.424-4.46 4.491v48.42c0 3.068 1.414 4.492 4.46 4.492h2.178c2.935 0 4.35-1.424 4.35-4.491V71.82h11.424v17.856c0 9.531-4.678 14.241-14.144 14.241zm-101.34-77.34H51.27v10.625H37.016v21.691h13.708V69.52H37.016v23.116h14.47v10.626H25.375zm31.73 0h18.278c9.465 0 14.142 4.71 14.142 14.241v20.376c0 9.53-4.677 14.24-14.142 14.24h-6.637v27.826h-11.64zm37.672 0h11.642v76.683H94.777zM73.534 65.14c2.938 0 4.35-1.426 4.35-4.493v-19.28c0-3.068-1.412-4.492-4.35-4.492h-4.788V65.14zm-37.07 80.396-.348-.032-.315-.031-.316-.033-.318-.032-.315-.063-.317-.064-.283-.063-.318-.064-.285-.095-.315-.064-.286-.096-.284-.128-.285-.094-.315-.128-.286-.127-.284-.127-.284-.128-.286-.159-.252-.157-.284-.16-.255-.159-.252-.159-.254-.191-.252-.191-.252-.191-.223-.191-.22-.191-.222-.223-.221-.191-.223-.223-.22-.222-.19-.223-.19-.255-.19-.223-.159-.254-.188-.255-.16-.254-.157-.256-.158-.286-.16-.255-.124-.286-.127-.287-.127-.287-.126-.286-.095-.255-.128-.287-.062-.286-.094-.286-.064-.318-.095-.287-.064-.319-.03-.286-.065-.318-.032-.286-.032-.319-.03-.319-.03-.317v-1.051l.03-.351v-.318l.03-.319.032-.349.064-.317.032-.318.063-.287.095-.318.064-.319.093-.286.095-.318.096-.286.127-.32.126-.286.127-.286.127-.287.125-.286.159-.286.158-.255.157-.255.16-.255.158-.255.19-.254.19-.255.188-.255.19-.223.221-.223.19-.222.221-.223.223-.223.22-.19.255-.224.22-.19.252-.192.254-.159.253-.191.254-.159.252-.159.284-.16.286-.159.285-.158.284-.128.285-.127.316-.159.252-.096.317-.096.286-.127.284-.064.283-.096.318-.063.284-.095.316-.063.316-.033.317-.063.316-.032.316-.032.316-.032.318-.032h1.358l.35.032.347.032h.317l.315.032.348.063.286.032.315.064.317.063.285.064.284.063.284.065.286.095.284.064.252.096.287.094.284.128.284.127.285.128.284.159.284.127.255.159.284.16.253.159.286.159.252.19.252.161.253.19.253.191.254.223.252.191-.19.255-.22.223-.191.254-.221.255-.19.255-.189.222-.223.255-.188.254-.19.224-.221.255-.19.254-.221.254-.192.224-.188.254-.222.255-.19.255-.221.222-.19.255-.253-.191-.252-.223-.255-.159-.252-.191-.252-.16-.254-.159-.253-.158-.284-.16-.254-.127-.252-.127-.255-.096-.284-.095-.283-.096-.287-.064-.315-.063-.316-.064-.316-.032-.347-.031-.35-.032h-.663l-.316.032-.287.031-.315.064-.284.064-.286.095-.284.096-.284.127-.284.127-.255.16-.252.159-.254.159-.22.19-.223.192-.22.191-.191.223-.22.223-.191.254-.157.223-.159.255-.157.286-.16.255-.126.286-.095.287-.126.286-.095.319-.063.316-.063.287-.064.35-.032.318-.03.319v.732l.03.318.032.286.031.32.19.858.096.287.094.255.127.318.127.287.157.287.158.254.16.255.188.254.192.223.22.224.19.222.22.191.255.191.252.191.252.159.254.159.285.128.283.127.287.127.315.096.317.095.317.065.316.063.316.031.347.033h.727l.35-.033.347-.031.317-.032.315-.064.317-.064.317-.095.283-.064.285-.127.254-.127.284-.128.222-.127.253-.159v-2.898H36.97v-4.645h10.437v10.345l-.22.19-.254.191-.221.16-.254.19-.253.159-.252.192-.254.159-.253.159-.285.159-.568.319-.286.125-.285.159-.315.128-.284.127-.318.127-.284.128-.284.095-.286.095-.284.097-.316.094-.284.096-.317.064-.284.063-.317.064-.317.064-.317.031-.347.032-.316.033-.347.031-.318.032-.347.031h-1.36zm100.398-.063h-.347l-.316-.033-.318-.032-.347-.031-.316-.064-.316-.032-.318-.063-.315-.064-.317-.064-.315-.064-.318-.094-.284-.065-.315-.096-.317-.094-.286-.128-.315-.096-.284-.095-.317-.128-.285-.126-.284-.128-.284-.158-.286-.127-.285-.159-.252-.159-.286-.159-.252-.159-.254-.159-.253-.192-.251-.19-.254-.192-.253-.19-.222-.192-.253-.222.191-.255.22-.223.191-.255.22-.255.192-.222.188-.255.223-.255.188-.223.222-.254.189-.223.222-.254.19-.256.19-.222.221-.254.19-.255.221-.223.19-.255.252.192.284.19.254.191.285.192.254.158.285.191.252.16.286.126.252.16.284.128.286.127.283.127.285.095.285.128.317.095.315.096.284.095.318.065.316.063.316.064.347.031.318.063h.316l.347.033h.695l.348-.033.318-.063.283-.064.286-.063.253-.096.221-.127.254-.191.188-.223.127-.255.096-.286.031-.318v-.064l-.031-.382-.127-.319-.159-.222-.221-.192-.254-.19-.253-.127-.283-.128-.318-.127-.379-.159-.221-.064-.252-.063-.286-.097-.284-.063-.315-.096-.319-.064-.346-.094-.317-.065-.347-.094-.316-.064-.318-.096-.316-.064-.315-.096-.286-.095-.316-.063-.285-.096-.283-.095-.286-.096-.348-.127-.315-.128-.317-.127-.317-.128-.284-.159-.317-.158-.254-.159-.284-.16-.252-.191-.254-.159-.22-.192-.223-.222-.221-.223-.19-.223-.189-.222-.159-.223-.157-.255-.158-.287-.127-.221-.096-.254-.093-.287-.095-.254-.064-.319-.063-.287-.032-.317-.032-.32-.032-.349v-.733l.032-.318.032-.286.032-.319.063-.286.064-.287.095-.287.064-.286.125-.286.127-.286.127-.287.157-.287.158-.286.19-.255.19-.254.221-.255.221-.223.221-.255.255-.223.22-.159.254-.191.253-.191.252-.159.286-.159.284-.128.284-.159.286-.127.316-.096.315-.127.286-.095.252-.065.57-.127.317-.063.284-.064.315-.032.318-.031.316-.032.316-.032h1.36l.348.032.347.032h.316l.349.031.316.065.347.031.317.063.286.064.315.063.317.065.284.063.317.096.285.096.284.063.317.127.284.096.285.127.284.128.317.127.284.159.252.128.286.159.285.159.251.159.287.191.253.159.253.191.252.192.252.19-.188.255-.159.255-.189.254-.19.255-.189.287-.159.254-.19.254-.19.255-.158.255-.189.255-.191.255-.159.254-.188.287-.191.254-.188.255-.16.255-.188.255-.254-.192-.284-.159-.253-.159-.254-.192-.284-.127-.254-.159-.284-.127-.252-.128-.286-.127-.252-.127-.284-.095-.254-.128-.349-.095-.631-.191-.318-.064-.316-.063-.315-.065-.316-.032-.318-.031-.284-.032h-.695l-.348.063-.317.065-.285.063-.252.128-.222.127-.284.255-.191.286-.125.287-.032.317v.065l.032.414.156.35.128.191.22.223.286.159.253.159.316.127.349.128.379.127.253.063.252.096.286.063.283.096.317.064.349.095.696.192.346.063.317.096.347.095.318.064.316.095.316.096.284.095.317.096.284.096.285.094.349.126.316.16.316.126.315.16.287.159.284.159.252.159.254.192.253.159.251.222.255.223.22.255.223.223.188.255.191.286.157.255.159.287.127.255.096.286.092.286.064.286.063.319.064.319.032.318.032.35v.764l-.032.35-.032.318-.031.35-.064.319-.096.318-.061.287-.096.318-.127.286-.127.256-.125.286-.159.254-.158.255-.189.255-.159.255-.189.222-.222.223-.189.191-.254.223-.221.191-.254.191-.252.157-.253.192-.285.159-.284.127-.284.159-.319.128-.315.127-.315.095-.317.096-.285.095-.316.064-.285.064-.283.063-.318.064-.317.032-.283.031-.318.032-.347.033-.316.031h-1.328zm-86.985-.638.254-.572.125-.319.096-.285.254-.572.124-.287.127-.286.128-.319.125-.287.127-.286.095-.286.128-.287.125-.286.127-.319.127-.286.125-.287.128-.286.126-.287.095-.286.125-.319.127-.286.128-.287.125-.286.127-.287.127-.286.125-.319.096-.286.127-.287.127-.286.126-.287.127-.286.126-.319.126-.286.127-.287.094-.286.128-.286.125-.287.127-.319.127-.286.125-.287.127-.286.128-.286.095-.287.126-.284.127-.32.127-.286.125-.286.127-.287.127-.286.125-.286.095-.32.254-.572.126-.286.127-.287.127-.286.125-.319.127-.287.096-.286.127-.286.125-.287.127-.286.127-.319.125-.287.128-.286.127-.286.092-.287.128-.286.127-.319.127-.287.125-.286.127-.286.127-.287.125-.286.096-.319.127-.287.128-.286.125-.286h5.85l.127.286.128.286.125.287.127.319.096.286.125.287.254.572.127.287.125.319.127.286.127.287.093.286.127.286.128.287.127.319.125.286.127.287.127.286.125.286.096.287.127.319.125.286.128.287.126.286.128.286.125.286.127.32.095.286.125.286.127.287.254.572.125.32.128.284.127.287.093.286.127.286.128.287.125.286.127.319.126.287.127.286.126.286.095.287.127.286.125.319.127.286.128.287.127.286.125.287.127.286.096.319.125.286.127.287.126.286.126.287.127.286.127.319.127.286.094.287.127.286.127.287.125.286.127.319.127.286.127.287.125.286.096.286.127.287.126.319.126.286.126.287.126.286.127.286.127.285.096.319.125.286.127.286.127.287h-6.516l-.126-.287-.095-.286-.126-.286-.128-.319-.093-.285-.127-.286-.128-.286-.093-.287-.127-.286-.128-.287-.094-.287-.125-.318-.128-.286-.095-.287-.128-.286H57.88l-.125.286-.096.287-.127.286-.127.318-.094.287-.126.287-.127.286-.096.287-.125.286-.127.286-.095.285-.126.319-.127.286-.094.286-.128.287h-6.387zm27.905-22.886h6.485l.157.256.158.286.189.253.159.286.159.255.157.286.158.253.19.287.158.255.16.254.156.285.159.255.189.286.158.255.16.284.157.255.19.254.16.285.156.255.159.286.157.255.19.285.16.255.156.286.159.253.157.254.19.287.16.255.156.286.16.253.156.287.19.254.16.285.157.255.158-.255.16-.285.188-.254.158-.287.157-.253.16-.286.188-.255.16-.287.159-.254.156-.253.191-.286.157-.255.159-.285.158-.255.19-.286.157-.255.16-.285.157-.254.16-.255.188-.284.159-.255.158-.286.157-.255.19-.285.158-.254.158-.255.16-.287.188-.253.159-.286.157-.255.16-.286.19-.253.157-.286.158-.256h6.484v23.173h-6.105V131.42l-.158.254-.189.289-.159.255-.188.255-.16.286-.19.255-.157.255-.16.288-.188.255-.159.253-.19.255-.157.289-.19.254-.157.255-.16.287-.19.256-.157.255-.19.286-.158.255-.19.255-.157.288-.16.255-.19.255-.156.287-.19.256-.158.255-.19.254-.16.287-.157.255-.19.256-.157.286-.19.255-.16.254-.189.289-.158.255h-.126l-.19-.287-.16-.257-.188-.286-.159-.255-.188-.286-.16-.257-.188-.286-.16-.255-.19-.286-.157-.255-.19-.289-.157-.254-.19-.287-.16-.254-.188-.289-.159-.254-.188-.287-.192-.255-.158-.288-.19-.255-.158-.286-.19-.255-.157-.288-.19-.255-.158-.286-.19-.255-.158-.287-.19-.257-.157-.286-.19-.255-.16-.286-.188-.254-.16-.289-.188-.255v13.639h-6.01zm28.865 0h18.282v5.254h-12.241v3.788h11.006v4.933h-11.006v3.947h12.399v5.251h-18.44zm-41.683 13.624-.096-.288-.125-.318-.127-.287-.096-.288-.124-.287-.127-.318-.096-.289-.127-.286-.125-.286-.096-.288-.127-.32-.093-.286-.127-.288-.127-.287-.095-.286-.126-.32-.127-.288-.095-.286-.127-.288-.126-.318-.095-.288-.126-.287-.126.287-.095.288-.127.318-.127.288-.094.286-.127.288-.127.32-.125.286-.095.287-.127.288-.128.286-.093.32-.127.288-.128.286-.095.286-.125.289-.128.318-.125.287-.094.288-.127.287-.127.318-.096.288-.125.287h5.345zm-12.127 37.025h66.64l-34.014 11.24z"/></g></g><defs><clipPath id="a"><path fill="#fff" d="M0 0h172v200H0z"/></clipPath></defs></svg>