<svg xmlns="http://www.w3.org/2000/svg" width="300" height="200" fill="none"><path fill="#fff" fill-rule="evenodd" d="M101.851.56h3.286v.05a102.7 102.7 0 0 1 46.444 12.7 98.6 98.6 0 0 1 16.327-7.595l4.518 6.853 4.397-1.326.867-8.465A98 98 0 0 1 193.453.258l2.53 8.157 4.594-.048L203.959 0a99 99 0 0 1 15.076 1.59l.496 8.988 4.469 1.07 5.493-7.533a98 98 0 0 1 14.98 5.876l-1.938 8.145 3.976 2.296 7.048-5.378a100 100 0 0 1 12.464 9.255l-4.522 7.35 3.059 3.424 9.252-3.209a100 100 0 0 1 9.796 12.458l-5.514 5.303 2.104 4.08 8.575-.692a98 98 0 0 1 6.226 14.526l-7.061 4.32 1.173 4.439 8.653 1.186a98.4 98.4 0 0 1 2.202 15.902l-8.453 2.66.069 4.591 8.416 3.364a98.7 98.7 0 0 1-2.255 16.545l-8.385.21-1.202 4.432 6.805 5.287a99 99 0 0 1-6.182 14.399l-7.497-1.829-2.318 3.962 4.789 6.348a100 100 0 0 1-8.845 11.462l-7.182-3.742-3.198 3.295 3.27 7.632a99.6 99.6 0 0 1-12.875 9.966l-5.641-5.29-3.969 2.311 1.059 7.955a98.4 98.4 0 0 1-15.343 6.364l-4.13-7.249-4.472 1.036-1.495 8.845a98.6 98.6 0 0 1-15.246 1.898l-2.352-8.186-4.588-.046-3.508 8.168a98 98 0 0 1-15.822-2.237l-.217-9.392-4.429-1.209-5.918 7.591a98.3 98.3 0 0 1-14.941-6.617C138.66 194.854 120.85 200 101.848 200 45.753 200 0 155.201 0 100.278 0 46.429 43.978 2.323 98.563.614V.556h3.267q.012.005.021.004M94.413 193.92a119 119 0 0 0 2.51-1.86 124.1 124.1 0 0 1-32.225-43.068 96.6 96.6 0 0 0-29.283 18.929 96.57 96.57 0 0 0 58.998 25.999M31.28 163.78a102.6 102.6 0 0 1 31.159-20.146 122.2 122.2 0 0 1-8.46-41.034H5.955c.589 23.536 10.096 44.973 25.325 61.18M6.03 96.029h47.915a122.2 122.2 0 0 1 8.313-41.88A102.6 102.6 0 0 1 32.65 35.348C17.05 51.28 7.107 72.557 6.029 96.028m30.852-64.74A96.6 96.6 0 0 0 64.5 48.783 124.06 124.06 0 0 1 95.424 6.574 96.57 96.57 0 0 0 36.882 31.29m70.665-24.761a124.06 124.06 0 0 1 31.081 42.493 96.6 96.6 0 0 0 28.192-17.732 96.6 96.6 0 0 0-59.273-24.761m63.505 28.821a102.5 102.5 0 0 1-30.197 19.043 122.3 122.3 0 0 1 8.218 41.637h48.602c-1.076-23.472-11.021-44.749-26.623-60.68m26.695 67.251h-48.706a122.2 122.2 0 0 1-8.364 40.795 102.5 102.5 0 0 1 31.746 20.385c15.227-16.21 24.736-37.644 25.324-61.18m-29.461 65.32a96.6 96.6 0 0 0-29.862-19.166 124.1 124.1 0 0 1-32.33 43.31q1.27.967 2.564 1.902a96.58 96.58 0 0 0 59.628-26.046M59.726 96.029h38.841V61.963a103 103 0 0 1-30.91-5.747 116.5 116.5 0 0 0-7.931 39.813m45.411 0h38.157a116.5 116.5 0 0 0-7.848-39.603 103 103 0 0 1-30.309 5.536zm38.12 6.571h-38.12v33.295a103 103 0 0 1 30.125 5.475 116.5 116.5 0 0 0 7.995-38.77m-44.691 0H59.76a116.5 116.5 0 0 0 8.077 38.98 103 103 0 0 1 30.728-5.685zm34.432 44.136a97 97 0 0 0-27.861-5.043v43.492a118.2 118.2 0 0 0 27.861-38.449m-34.432-5.041a97.1 97.1 0 0 0-28.454 5.245 118.2 118.2 0 0 0 28.454 38.869zM69.905 50.847a97 97 0 0 0 28.66 5.316v-44.65a118.2 118.2 0 0 0-28.66 39.334m35.232 5.316a97 97 0 0 0 28.069-5.112 118.2 118.2 0 0 0-28.069-38.917zm95.471-30.866c40.235 0 73.05 32.817 73.05 73.052 0 40.237-32.815 73.053-73.05 73.053a72.6 72.6 0 0 1-23.612-3.934 102.3 102.3 0 0 1-16.545 14.294l.207 1.85 7.538 3.053 5.776-6.483a85 85 0 0 0 9.467 2.584l.237 9.273 9.267 1.343 3.903-8.878a83 83 0 0 0 9.315-.048l2.58 8.737 9.298-1.1 1.46-9.48a84 84 0 0 0 9.398-2.649l4.084 6.703 8.704-3.454-.905-8.382a86 86 0 0 0 8.321-4.998l5.449 5.452 7.645-5.408-2.925-8.133a88 88 0 0 0 6.233-6.405l6.536 3.959 6.135-7.074-4.844-7.295a85 85 0 0 0 4.114-7.172l8.011 1.728 3.493-8.687-6.506-4.968a84 84 0 0 0 2.524-9.348l8.343-.295 1.25-9.283-7.906-3.379a84 84 0 0 0-.069-10.182l8.12-2.84-1.553-9.234-8.416-.873a85 85 0 0 0-2.766-9.665l7.216-4.328-3.391-8.728-9.174.927a86 86 0 0 0-4.879-7.997l5.687-6.249-5.759-7.382-8.185 3.388a87 87 0 0 0-7.206-6.833l4.147-7.179-7.2-5.984-7.748 5.381a86 86 0 0 0-7.86-4.24l1.876-8.103-8.638-3.62-5.528 7.022a85 85 0 0 0-9.282-2.187l-.51-8.471-9.309-1.023-3.276 8.208a86 86 0 0 0-9.39.32l-2.799-8.022-9.233 1.551-.902 8.625a85 85 0 0 0-9.595 2.99l-5.024-6.88-8.384 4.17.184.95a102.3 102.3 0 0 1 16.41 13.205 72.6 72.6 0 0 1 26.391-4.945m-19.186 137.102a66.4 66.4 0 0 0 19.186 2.816c36.831 0 66.867-30.037 66.867-66.867S237.439 31.48 200.608 31.48a66.5 66.5 0 0 0-21.763 3.648c15.471 17.496 24.854 40.285 24.854 65.152-.001 23.457-8.348 45.06-22.277 62.119" clip-rule="evenodd"/><path fill="#fff" fill-rule="evenodd" d="M27.834 45.395h67.254v27.829H61.075v16.234h30.921v26.283H61.076v37.491H27.834zm244.611 107.837h-36.72l-4.115-13.915h-28.876l-3.673 13.915h-36.717l32.245-108.996h45.608zm-47.81-37.491-8.287-28.005-7.39 28.005zM118.28 84.048h32.467v69.959H118.28zm16.233-45.222c11.069 0 20.1 9.027 20.1 20.098s-9.031 20.1-20.1 20.1-20.1-9.03-20.1-20.1 9.03-20.098 20.1-20.098" clip-rule="evenodd"/></svg>