<svg xmlns="http://www.w3.org/2000/svg" width="934" height="200" fill="none"><mask id="a" width="934" height="200" x="0" y="0" maskUnits="userSpaceOnUse" style="mask-type:luminance"><path fill="#fff" d="M0 0h933.654v200H0z"/></mask><g mask="url(#a)"><path fill="url(#b)" d="M260.447 73.847c-6.295 11.523-19.649 36.886-20.842 38.768-3.575 5.606-10.624 2.303-9.054-6.073 3.065-16.515 19.758-49.498 32.697-73.431-22.285 5.799-14.481-10.867-1.273-14.822 23.817-7.106 61.173-15.16 91.399-11.99 13.594 1.43 11.883 10.627 1.113 11.085-31.344 1.981-60.735 8.101-69.883 11.702-5.72 8.46-8.827 14.675-13.519 22.22 8.492-1.798 18.131-3.54 25.312-3.714 7.187-.174 9.002 1.652 8.875 4.747-.156 4.025-4.197 4.766-8.092 5.795-11.072 3.034-15.504 4.077-26.84 7.587-6.319 1.982-6.517 1.911-9.898 8.126zm430.311 14.812c-8.554-2.072-29.717-.845-49.338 7.252 4.829-17.747 22.304-49.196 41.741-76.064 8.563-11.83-5.371-11.4-14.802.377-8.369 10.442-45.796 57.6-48.785 76.433-1.858 11.678 6.757 18.502 20.427 14.703 13.675-3.794 27.335-11.825 47.263-13.523 6.082-.543 10.661-7.447 3.494-9.178m-132.372 22.064c17.381 7.323 40.251-15.855 55.034-37.466C634.663 42.133 651.648 8.376 646.701 5.7c-2.749-1.142-5.899-.24-8.813 4.648-47.069 78.792-66.449 91.485-70.481 87.149-2.396-2.581 2.197-14.345 12.397-35.409 8.851-18.299 21.743-36.32 15.216-41.1-6.295-4.628-14.929 6.017-21.464 15.01-13.123 18.04-36.314 65.835-15.17 74.725m246.263-21.62c-11.449 0-14.721 11.64-2.574 13.844 55.411 10.065 127.58-56.917 130.905-87.767.782-7.276-3.952-12.415-11.049-13.76-35.007-6.639-175.588 39.316-175.588 116.117 0 31.294 22.295 57.247 58.608 57.247 41.354 0 85.198-29.954 104.428-54.973 5.187-6.757 4.211-18.237-7.917-8.942-35.267 27.052-67.883 33.583-87.047 33.729-30.716.241-54.708-29.09-24.091-64.839C823.063 41.524 902.4 16.251 905.027 19.45c3.098 3.737-50.333 69.596-100.378 69.652m-60.998-80.86c-21.078 9.372-56.628 41.289-69.633 59.805-7.979 11.362 4.362 11.905 13.151 3.284 17.589-17.256 44.886-42.355 46.343-41.293.26.184-10.902 23.324-15.881 48.13a37.7 37.7 0 0 0-6.413-12.094c-3.956-5.214-13.326-4.355-8.691 3.87a63 63 0 0 1 6.635 19.322c1.65 9.117 1.65 14.779 2.683 19.021 2.839 11.594 14.415 10.127 15.872-1.109 6.616-50.947 25.482-80.84 30.047-90.82 3.574-7.771-5.993-11.73-14.113-8.116M318.135 109.425c-15.697-.141-22.756-11.49-20.969-23.951 3.513-24.561 25.105-49.905 49.842-52.08 3.862-.335 5.894-3.407 9.652-3.747 9.261-.859 16.146 9.584 13.944 25.316-3.381 23.942-29.141 54.684-52.469 54.462m35.805-66.66c-26.902 3.968-49.079 48.65-40.11 52.684 9.667 4.398 43.972-21.923 40.11-52.66zM126.637 156.598a42.88 42.88 0 0 1-20.762 36.725 42.815 42.815 0 0 1-42.151 1.128 42.874 42.874 0 0 1-53.152-10.09 42.94 42.94 0 0 1-9.19-36.58 42.94 42.94 0 0 1 8.169-17.547 42.89 42.89 0 0 1 33.897-16.496 42.5 42.5 0 0 1 20.276 5.073 42.8 42.8 0 0 1 42.195 1.042 42.85 42.85 0 0 1 15.243 15.629 42.9 42.9 0 0 1 5.57 21.116zM10.779 133.207h8.035a44 44 0 0 1-5.215-3.718 41 41 0 0 0-2.839 3.718h.02m-7.733 22.735h7.658v-22.706a40 40 0 0 0-7.62 22.706zm10.497 27.873a48 48 0 0 1 6.012-4.223h-8.846v-22.225h-7.62a40.17 40.17 0 0 0 10.496 26.448zm28.933 13.165a59.5 59.5 0 0 1-14.122-19.913q-.761.27-1.51.576v1.935h-4.536a46.5 46.5 0 0 0-7.723 5.251 40.2 40.2 0 0 0 27.891 12.151m-14.655-21.253a33 33 0 0 1-.967-2.628v2.973zm14.929-1.255a45.4 45.4 0 0 0-13.057 2.114 54.65 54.65 0 0 0 13.057 18.436zm0-17.176H39.58v5.988H26.84v4.832a52.5 52.5 0 0 0 2.31 7.234 46.4 46.4 0 0 1 13.595-2.204l.01-15.855zm0-17.162h-1.622v5.498H26.84v6.058h12.741v4.29h3.188zm0-21.941a54.7 54.7 0 0 0-11.411 14.977h9.789v5.521h1.622zm0-1.935a40.15 40.15 0 0 0-28.184 12.245 44.6 44.6 0 0 0 7.059 4.742h8.11a56 56 0 0 1 13.005-16.926zm1.414 0c5 4.41 9.17 9.683 12.308 15.567h.584a8.04 8.04 0 0 1 5.796 2.51 45.4 45.4 0 0 0 9.317-5.912 40.14 40.14 0 0 0-28.01-12.104zm23.908 63.277 6.955-22.225H64.276v20.687a47.3 47.3 0 0 1 8.912 5.799 46 46 0 0 0 3.362-4.223zm7.813 5.073a29.2 29.2 0 0 0 8.3 1.198 29.76 29.76 0 0 0 18.003-6.276h-4.291l-1.302-5.629h-10.67l-1.387 5.634h-4.829a47 47 0 0 1-3.833 5.129zm18.343-20.927-2.791-11.991-2.896 12.009zm16.867 4.213a29.21 29.21 0 0 0-2.61-27.473 29.2 29.2 0 0 0-10.523-9.567 29.15 29.15 0 0 0-13.792-3.455c-2.81 0-5.611.396-8.304 1.189a42.3 42.3 0 0 1 5.513 8.088l.966-3.1h19.126zm-37.912-38.428a47.5 47.5 0 0 1-9.384 6.021 8.044 8.044 0 0 1-2.027 10.89c.236 1.09.424 2.171.575 3.275h1.934v6.262h11.17l4.829-15.596a40.8 40.8 0 0 0-7.097-10.852m-29.023 9.286a42 42 0 0 0 5.008-.368 8.02 8.02 0 0 1 5.795-6.276 55 55 0 0 0-10.836-13.906zm0 17.162h5.484v-6.262h11.284a82 82 0 0 0-.444-2.515 8.04 8.04 0 0 1-7.72-.49 8.04 8.04 0 0 1-3.729-6.782c-1.612.151-3.244.26-4.828.279zm0 17.166q2.753.035 5.484.415v-16.161h-5.48v15.746zm0 21.951a56.1 56.1 0 0 0 11.694-15.458h-6.21v-4.648a43 43 0 0 0-5.484-.415zm28.066-10.211a45 45 0 0 0-7.945-5.257h-6.866a57.3 57.3 0 0 1-13.255 17.393 40.07 40.07 0 0 0 28.066-12.108zm42.109-54.387-2.429 1.935-3.428-3.403 2.009-2.5a45 45 0 0 0-3.914-3.082l-1.848 2.548-4.192-2.378 1.306-2.973a41 41 0 0 0-4.574-1.934l-1.132 2.996-4.696-1.246.523-3.227a38 38 0 0 0-4.951-.727l-.311 3.199h-4.829l-.344-3.293q-2.506.134-4.975.58l.542 3.237-4.682 1.274-1.188-3.142a43 43 0 0 0-4.999 2.019 42.9 42.9 0 0 1 8.686 7.182 30.61 30.61 0 0 1 32.379 9.167 30.664 30.664 0 0 1 4.425 33.381l2.725 9.517h-9.916a30.88 30.88 0 0 1-29.679 6.243 43.7 43.7 0 0 1-8.69 7.177 38 38 0 0 0 5.03 2.01l1.085-3.09 4.716 1.118-.453 3.336c1.641.283 3.3.467 4.96.557l.255-3.232 4.829-.118.424 3.256a36.5 36.5 0 0 0 4.933-.713l-.58-3.143 4.654-1.368 1.245 3.011a38 38 0 0 0 4.569-1.935l-1.363-2.897 4.14-2.501 1.934 2.581a43 43 0 0 0 3.913-3.1l-2.027-2.388 3.357-3.492 2.499 1.982a42 42 0 0 0 3.014-3.987l-2.561-1.779 2.339-4.242 2.895 1.246a44 44 0 0 0 1.934-4.62l-2.9-1.038 1.169-4.728 3.126.472c.302-1.548.505-3.115.613-4.686l-3.074-.307v-4.832l3.121-.349a40 40 0 0 0-.617-4.926l-3.051.51-1.306-4.662 2.956-1.142a44 44 0 0 0-1.886-4.62l-2.834 1.288-2.442-4.176 2.555-1.864a41 41 0 0 0-2.989-3.982m255.307-39.221c8.266-22.225 21.832-47.96 25.19-54.105-2.627.812-3.909 1.614-6.64 2.426-8.836 2.595-9.067-5.181 1.061-11.971 14.901-9.995 30.085-14.166 48.277-14.213 19.211-.061 23.45 9.862 22.61 16.308-1.886 14.49-31.522 32.195-50.893 41.382 6.616 6.182 28.802 21.895 46.008 29.737 8.092 3.69 1.438 10.872-10.35 7.456-15.17-4.375-40.718-19.842-54.652-30.549-3.947 8.748-8.408 17.874-11.883 25.802-4.904 11.079-13.722 1.085-8.723-12.302zM396.6 63.607c20.842-12.23 44.113-25.122 45.023-32.85.792-6.763-13.925-4.059-28.764 1.141-4.829 8.437-9.549 18.346-16.259 31.681zm167.619-42.845c7.3-12.165-5.639-16.897-20.276-7.998-14.637 8.9-31.061 22.451-50.884 49.999 7.794-36.107 11.586-38.278 12.128-45.413.5-6.162-4.192-10.626-14.948-2.288-9.007 6.955-26.02 27.16-39.171 55.071-5.942 12.618 1.419 23.296 6.394 13.07 4.588-9.418 20.517-35.89 30.452-48.054-6.634 20.125-10.426 38.033-11.482 51.207-.801 10.018 8.266 14.755 14.071 3.983 11.798-21.895 48.206-60.088 49.432-58.936.368.344-23.799 40.849-28 69.727-2.151 14.666 7.879 21.423 11.038 10.57 11.44-39.306 22.059-59.016 41.246-90.966zM665.596 155.38h-11.873v-11.121h-7.455v28.387h7.455v-10.858h11.873v10.858h7.455v-28.387h-7.455zm-34.804 1.062a76 76 0 0 1-6.819-.764 7.4 7.4 0 0 1-2.895-.963 1.753 1.753 0 0 1-.707-1.5 2.38 2.38 0 0 1 1.216-2.195 7.7 7.7 0 0 1 3.867-.722 17.5 17.5 0 0 1 3.282.26 5.2 5.2 0 0 1 2.122.873c.566.425.999 1.01 1.254 1.67l6.286-3.421a7.2 7.2 0 0 0-1.569-2.602 7.1 7.1 0 0 0-2.506-1.715 21.3 21.3 0 0 0-8.478-1.364 18 18 0 0 0-6.554 1.085 8.8 8.8 0 0 0-4.169 3.138 8.3 8.3 0 0 0-1.438 4.936 8.8 8.8 0 0 0 .821 4.152 5.43 5.43 0 0 0 2.838 2.388 20 20 0 0 0 5.734 1.18q3.04.245 6.045.764c.92.104 1.797.439 2.556.967a2.2 2.2 0 0 1 .656 1.709 2.36 2.36 0 0 1-.585 1.698 3.55 3.55 0 0 1-1.849.911c-1.09.21-2.2.305-3.31.283a15.3 15.3 0 0 1-3.697-.363 4.85 4.85 0 0 1-2.117-1.015 3.85 3.85 0 0 1-1.051-1.68l-6.258 3.336a5.03 5.03 0 0 0 1.806 2.964c1.25.981 2.697 1.68 4.239 2.048 2.106.526 4.272.773 6.442.736q6.761.001 10.147-2.242a7.54 7.54 0 0 0 3.348-6.705q-.072-7.162-8.667-7.875zm-65.658-6.181a20.2 20.2 0 0 1 1.556 8.512 16.2 16.2 0 0 1-1.815 7.979 11.76 11.76 0 0 1-5.013 4.879 15.96 15.96 0 0 1-7.309 1.614q-7.298.002-10.84-3.643c-2.363-2.43-3.546-6.214-3.546-11.362a15.7 15.7 0 0 1 1.933-8.008 12.33 12.33 0 0 1 5.126-4.888 15.4 15.4 0 0 1 7.068-1.623 17.95 17.95 0 0 1 8.129 1.609 10.16 10.16 0 0 1 4.72 4.902zm-6.102 8.484c0-2.997-.627-5.144-1.928-6.455a6.5 6.5 0 0 0-4.947-1.935 7.6 7.6 0 0 0-3.31.67 4.68 4.68 0 0 0-2.183 2.392 11.75 11.75 0 0 0-.802 4.832c0 3.016.608 5.181 1.844 6.493a6.45 6.45 0 0 0 4.909 1.935 7.7 7.7 0 0 0 3.357-.661 4.7 4.7 0 0 0 2.202-2.411c.627-1.543.92-3.199.858-4.86m39.134 8.493h-1.382l-8.893-22.979H574.48v28.387h6.347v-22.994h1.377l8.865 22.994h13.411v-28.387h-6.352zm83.934 5.408h7.451v-28.387H682.1zm-411.755-28.387h-7.451v28.387h20.399v-6.465h-12.948zm452.624 4.704a10.8 10.8 0 0 1 1.575 6.03 10.95 10.95 0 0 1-1.537 6.05 9.1 9.1 0 0 1-4.683 3.492 24 24 0 0 1-7.983 1.132h-4.305v6.979h-7.455v-28.387h13.198a17.9 17.9 0 0 1 6.757 1.16 9.3 9.3 0 0 1 4.461 3.544zm-6.045 6.03a5.8 5.8 0 0 0-.58-2.85 3.23 3.23 0 0 0-1.736-1.467 9 9 0 0 0-3.088-.434h-5.484v9.447h4.611a11.6 11.6 0 0 0 3.485-.435 3.88 3.88 0 0 0 2.08-1.467 4.87 4.87 0 0 0 .74-2.794zm-357.048 10.405a6.7 6.7 0 0 1-4.196 1.18 8.1 8.1 0 0 1-3.702-.774 5.2 5.2 0 0 1-2.358-2.586 11.9 11.9 0 0 1-.839-4.903q.001-4.174 1.933-5.851a7.17 7.17 0 0 1 4.914-1.684 7.27 7.27 0 0 1 3.866.892 3.41 3.41 0 0 1 1.462 3.034l7.724-2.407a7.34 7.34 0 0 0-3.862-6.337 18.7 18.7 0 0 0-9.19-1.935 16.9 16.9 0 0 0-7.413 1.586 12.07 12.07 0 0 0-5.206 4.832 15.35 15.35 0 0 0-1.933 7.941q0 7.575 3.702 11.207 3.692 3.632 11.015 3.633c4.673 0 8.068-.868 10.185-2.595a8.777 8.777 0 0 0 3.263-6.941l-7.78-1.661a4.22 4.22 0 0 1-1.585 3.369M220.95 150.232a20.25 20.25 0 0 1 1.557 8.513 16.2 16.2 0 0 1-1.821 7.974 11.7 11.7 0 0 1-4.998 4.884 16.05 16.05 0 0 1-7.318 1.614c-4.867 0-8.483-1.218-10.846-3.643-2.357-2.43-3.541-6.214-3.541-11.362a15.55 15.55 0 0 1 1.933-8.013 12.27 12.27 0 0 1 5.112-4.888 15.45 15.45 0 0 1 7.073-1.623 17.95 17.95 0 0 1 8.125 1.613 10.2 10.2 0 0 1 4.724 4.931m-6.115 8.513c0-2.997-.628-5.144-1.882-6.455a6.5 6.5 0 0 0-2.264-1.495 6.5 6.5 0 0 0-2.678-.44 7.6 7.6 0 0 0-3.315.67 4.7 4.7 0 0 0-2.178 2.392 11.85 11.85 0 0 0-.802 4.832q0 4.524 1.839 6.493a6.4 6.4 0 0 0 4.909 1.935 7.7 7.7 0 0 0 3.362-.661 4.73 4.73 0 0 0 2.202-2.411c.609-1.548.882-3.204.807-4.86m177.318-3.398h-11.882v-11.088h-7.451v28.387h7.451v-10.858h11.882v10.858h7.446v-28.387h-7.446zM178.13 166.403h-1.604l-4.668-22.144h-10.223L157 166.403h-1.618l-5.186-22.144h-7.724l7.436 28.387h11.586l4.385-20.956h1.716l4.24 20.965h11.798l7.214-28.387h-7.728zm336.134-17.44a10.73 10.73 0 0 1 1.584 6.03 10.9 10.9 0 0 1-1.546 6.05 9.04 9.04 0 0 1-4.683 3.492 23.9 23.9 0 0 1-7.973 1.132h-4.32v6.979h-7.45v-28.387h13.156c2.31-.048 4.602.344 6.762 1.16a9.36 9.36 0 0 1 4.47 3.544m-6.045 6.03a5.8 5.8 0 0 0-.58-2.85 3.16 3.16 0 0 0-1.707-1.415 9 9 0 0 0-3.093-.439h-5.484v9.447h4.616a11.6 11.6 0 0 0 3.485-.434 3.87 3.87 0 0 0 2.089-1.463c.509-.859.745-1.85.674-2.846m14.637 17.653h7.445v-28.387h-7.445zM315.49 150.421a16.8 16.8 0 0 1 1.749 8.234 13.65 13.65 0 0 1-2.112 7.81 12.63 12.63 0 0 1-5.739 4.647 21.4 21.4 0 0 1-8.242 1.506h-11.77v-28.359h10.1c3.53-.124 7.053.394 10.398 1.528a10.5 10.5 0 0 1 5.616 4.667v-.033m-6.234 8.234a10.1 10.1 0 0 0-.966-4.888 5.58 5.58 0 0 0-2.957-2.563 14.1 14.1 0 0 0-5.046-.759h-3.428v15.949h4.291c1.453.033 2.9-.189 4.273-.656a5.46 5.46 0 0 0 2.819-2.35 9.1 9.1 0 0 0 1.014-4.705zm-60.154 2.619 7.521 10.754v.618h-8.186l-6.258-9.579h-5.936v9.579h-7.413v-28.387h13.962c3.98 0 7.083.712 9.318 2.137a7.012 7.012 0 0 1 3.348 6.37 8.93 8.93 0 0 1-1.462 5.332 9.4 9.4 0 0 1-4.894 3.176m-1.439-7.248a3.86 3.86 0 0 0-.613-2.373 3.06 3.06 0 0 0-1.721-1.123 11.6 11.6 0 0 0-2.9-.288h-6.234v7.498h4.914c1.65.08 3.301-.213 4.828-.864a2.97 2.97 0 0 0 1.736-2.85zm179.866-9.767 8.817 28.387h-8.252l-1.334-4.705h-11.859l-1.34 4.705h-8.044l8.804-28.387zm-2.462 17.761-3.735-13.227h-.966l-3.744 13.198zm37.337 3.439h-1.302l-5.918-21.2h-12.91v28.387h6.219v-22.31h1.339l6.762 22.31h10.563l6.823-22.31h1.363v22.31h6.196v-28.387h-12.906l-6.224 21.2z"/><path fill="#fff" d="M210.685 57.884a26.7 26.7 0 0 0-9.714-8.116 17.408 17.408 0 0 0 7.531-14.368c0-9.957-6.757-17.478-19.22-17.478h-4.867v39.962zm-28.811-39.972h-24.129v39.962h24.129zm0 42.473h-24.129v39.967h24.129zm2.541-.01v39.972h4.914c16.344 0 26.694-11.594 26.694-26.646a26.34 26.34 0 0 0-3.64-13.326zm-116.55-2.491L53.741 17.922H42.929v39.962zm-27.44 0V17.922H29.613L15.495 57.884zm0 2.491H14.608L.49 100.347h20.795l5.838-16.657h13.302zm2.504 0V83.69h13.312l5.823 16.657H82.86L68.746 60.38H42.924zm99.533-2.491a26.8 26.8 0 0 0-9.714-8.116 17.45 17.45 0 0 0 7.522-14.369c0-9.956-6.758-17.477-19.216-17.477h-4.913v39.962zm-28.811-39.972H89.522v39.962h24.129zm0 42.473H89.522v39.967h24.129zm2.49-.01v39.972h4.913c16.358 0 26.708-11.594 26.708-26.646a26.3 26.3 0 0 0-3.64-13.326z"/></g><defs><linearGradient id="b" x1="14" x2="924.265" y1="180.403" y2="32.247" gradientUnits="userSpaceOnUse"><stop stop-color="#fff"/><stop offset="1" stop-color="#fff"/></linearGradient></defs></svg>