<svg xmlns="http://www.w3.org/2000/svg" width="717" height="200" fill="none"><path fill="#fff" d="M0 100c0 55.011.136 100 .317 100 .272 0 37.215-6.848 41.748-7.755l2.357-.454v-73.424h28.104v-6.712c0-3.673.136-13.242.317-21.315l.272-14.603H44.422v-32.2h16.545c9.111 0 16.545-.09 16.545-.226 0-.5 3.626-39.23 3.853-41.18L81.637 0H0zM678.027 5.85l-36.173 2.994v180.68l1.496.227c1.315.226 71.348 5.306 72.753 5.26.408 0 .544-4.807.544-22.449v-22.449h-30.824V117.46h26.291V78.458h-27.197v-25.85l1.042-.182c.544-.136 5.168-.317 10.29-.499 5.122-.136 11.785-.362 14.868-.544l5.53-.272V2.721l-1.224.045c-.725.046-17.542 1.406-37.396 3.084M445.808 12.11c.453 4.535 5.621 72.88 5.53 72.97-.045.091-6.709-16.28-14.823-36.371-8.068-20.091-14.867-36.735-15.049-37.053-.272-.498-12.782 1.814-33.316 6.168l-1.949.408V174.15h40.342l-.227-3.266c-.453-6.077-2.13-56.326-1.949-58.322.136-1.768 1.496 1.316 14.37 32.427 7.796 18.911 14.414 34.557 14.595 34.83.272.272 6.573-.136 17.271-1.043 9.292-.817 16.907-1.542 16.907-1.588.046-.045-.181-32.744-.498-72.653-.318-39.91-.59-77.596-.59-83.81l-.045-11.201h-40.841zm-319.114.181c-27.107 1.814-42.02 20.363-46.734 58.005-.952 7.8-1.36 34.285-.68 43.537 2.266 30.023 10.38 49.524 24.795 59.456 7.751 5.306 19.4 8.163 30.914 7.483 13.1-.726 22.03-4.444 30.053-12.472 6.572-6.576 10.153-12.743 13.598-23.265 4.805-14.694 6.981-36.644 5.893-59.501-1.224-25.578-5.077-41.497-13.009-53.696-7.57-11.61-19.537-18.549-33.498-19.41-2.221-.137-4.578-.273-5.213-.364-.634-.045-3.354.046-6.119.227m6.391 35.647c3.309 3.582 4.714 17.868 4.714 48.435 0 37.642-2.357 53.288-7.524 49.932-2.221-1.497-3.899-8.798-4.714-20.907-.59-8.844-.59-49.343 0-57.823.861-11.973 2.402-18.594 4.714-20.182 1.269-.907 1.496-.861 2.81.544m57.296 46.802v82.585h41.566l.272-5.759c.181-3.22.544-13.651.816-23.266s.634-18.05.816-18.73c.226-.952 2.176 5.17 8.159 25.851 4.352 14.92 8.023 27.301 8.204 27.482.363.409 42.881-2.947 43.335-3.401.136-.181-4.578-15.011-10.471-33.061l-10.698-32.744 2.267-1.995c7.524-6.576 13.734-19.275 15.502-31.837.771-5.488.272-19.093-.907-24.127-4.532-19.728-16.545-35.057-31.866-40.771-6.663-2.449-6.119-2.404-37.622-2.585l-29.373-.181zm46.733-43.447c3.219 1.588 5.848 5.67 7.253 11.293.952 3.764.816 15.692-.227 19.501-1.949 7.166-5.394 11.338-10.561 12.925l-1.043.272V49.887l1.496.317c.771.136 2.176.635 3.082 1.088m54.35-17.505v21.088h23.117v121.542h43.516V62.132h23.571V19.955l-.998-.182c-.951-.226-87.393-7.12-88.617-7.075-.453 0-.589 4.536-.589 21.089m204.432 65.76v82.312h44.875V17.234h-44.875zm96.097-76.6c-24.568 1.316-45.011 2.405-45.419 2.405-.771.045-.816 1.36-.816 21.36v21.315h23.117v119.275h43.969V63.039h24.478V41.723c0-11.746-.136-21.27-.318-21.27-.226.046-20.443 1.134-45.011 2.495"/></svg>