<svg xmlns="http://www.w3.org/2000/svg" width="977" height="200" fill="none"><path fill="url(#a)" d="M805.85 199.35c5.569-14.174 46.075-116.499 46.075-116.499l-21.559 4.975 36.288-62.857L971.258 0l-25.536 30.65 30.915-7.322z"/><path fill="#fff" d="M643.684 45.732h-42.528v17.692h9.737v64.179h-9.737v17.692h42.528c29.122 0 49.762-19.171 49.762-49.781s-20.645-49.782-49.762-49.782m-3.109 81.871h-4.415V63.424h4.415c16.231 0 26.36 12.986 26.36 32.09 0 19.103-10.129 32.089-26.36 32.089M198.34 45.733v34.79h15.944V64.667h14.488v62.935h-12.224v17.692h50.96v-17.692h-12.224V64.668h14.493v15.854h15.945v-34.79zm499.246 0V63.43h9.743v64.173h-9.743v17.692h76.519v-34.784h-15.944v17.092h-25.565v-23.86H752.9V86.046h-20.304V63.43h25.565v17.092h15.944v-34.79zm-502.182 81.87-25.985-81.87h-52.288v17.691h11.328l-20.37 64.179h-8.723v17.692h41.744v-17.692h-10.359l4.146-14.078h30.186l4.146 14.078H158.87v17.692h45.263v-17.692zm-55.297-31.77 9.547-31.787h.672l9.547 31.787zm446.112 31.77-25.984-81.87h-52.289v17.691h11.328l-20.371 64.179h-8.723v17.692h41.744v-17.692h-10.359l4.146-14.078h30.187l4.145 14.078h-10.359v17.692h45.264v-17.692zm-55.297-31.77 9.546-31.787h.673l9.546 31.787zm-56.395 31.77v-9.148c0-12.807-4.98-19.412-16.23-21.26v-.656c11.877-3.445 18.482-11.552 18.482-23.894 0-18.179-14.947-26.913-39.553-26.913h-43.694v17.692h9.737v64.179h-9.737v17.692h44.747v-17.692h-9.737V108.41h8.689c8.421 0 12.186 3.748 12.186 15.294v21.591h34.556v-17.692zm-45.985-36.885V63.43h8.661c8.69 0 13.558 4.969 13.558 13.647s-4.868 13.647-13.558 13.647h-8.661zm-39.151 4.795c0 30.611-20.645 51.429-49.761 51.429s-49.762-20.818-49.762-51.429c0-30.61 20.646-51.428 49.762-51.428s49.761 20.818 49.761 51.428M339.624 65.29c-14.017 0-23.25 11.126-23.25 30.224s9.233 30.224 23.25 30.224c14.018 0 23.251-11.126 23.251-30.224s-9.233-30.224-23.251-30.224M50.714 89.804v17.692h17.172v14.291c-3.625 2.107-8.135 3.333-14.416 3.333-14.415 0-25.166-11.607-25.166-29.602 0-17.994 11.373-29.602 25.788-29.602 9.558 0 16.981 3.922 21.368 11.3h15.945v-33.12H75.46v5.786c-6.174-3.916-13.872-5.787-21.99-5.787C22.382 44.095 0 64.913 0 95.524c0 30.61 22.382 51.428 53.47 51.428 14.763 0 28.937-3.495 39.683-11.114V89.81h-42.44z"/><defs><linearGradient id="a" x1="-49.381" x2="-48.82" y1="99.674" y2="99.674" gradientUnits="userSpaceOnUse"><stop stop-color="#fff"/></linearGradient></defs></svg>