<svg xmlns="http://www.w3.org/2000/svg" width="200" height="200" fill="none"><path fill="#fff" d="M99.722 0c55.155 0 99.823 44.935 99.823 99.945 0 55.111-44.668 100.055-99.823 100.055C44.677 200 0 155.056 0 99.945 0 44.935 44.676 0 99.722 0m-.001 50.083c-22.34-.114-46.388.429-67.979 2.782-6.303.641-9.618 2.138-10.366 8.985-1.175 12.412-1.282 25.146-1.282 38.095 0 13.055.107 25.791 1.283 38.202.747 6.85 4.06 8.349 10.366 8.99 21.59 2.355 45.639 2.782 67.978 2.782 22.444 0 46.493-.428 68.079-2.782 6.311-.641 9.616-2.14 10.372-8.99 1.168-12.411 1.282-25.147 1.282-38.202 0-12.949-.114-25.683-1.282-38.095-.754-6.847-4.061-8.344-10.372-8.985-21.586-2.353-45.635-2.896-68.08-2.782"/><path fill="#fff" fill-rule="evenodd" d="M59.213 99.945c0-22.258 18.064-40.45 40.51-40.45 22.551 0 40.613 18.192 40.613 40.45 0 22.365-18.062 40.45-40.614 40.45-22.445 0-40.51-18.085-40.51-40.45" clip-rule="evenodd"/></svg>