<svg xmlns="http://www.w3.org/2000/svg" width="973" height="200" fill="none"><path fill="#fff" d="M233.264 168.771c-3.592-3.147-8.644-7.246-10.825-9.263a4.216 4.216 0 0 1-1.492-3.712c1.363-14.524 7.441-79.706 7.586-81.448.561-6.214-1.107-10.732-5.79-15.735s-10.312-11.07-11.226-11.974a26.2 26.2 0 0 0-8.667-5.532 26.1 26.1 0 0 0-10.113-1.763c-9.768 0-26.206-.71-27.746-.742a26.9 26.9 0 0 0-16.904 4.6c-5.164 3.227-11.354 7.18-12.413 7.94-3.608 2.549-5.677 5.196-6.335 9.036-1.01 6.052-2.678 15.735-2.886 17.172-.674 4.372 1.122 6.228 4.731 6.035 1.218 0 11.627-.758 17.641-1.114 3.609-.21 5.325-1.21 6.784-5.6.337-1.081 3.481-10.118 5.196-15.024a6.46 6.46 0 0 1 2.095-3.413 6.4 6.4 0 0 1 3.695-1.509c4.058-.71 9.414-1.404 10.473-1.533a10.22 10.22 0 0 1 7.714 1.614c1.091.71 7.682 5.341 8.532 5.955a8.26 8.26 0 0 1 2.419 2.836c.581 1.12.9 2.357.933 3.619 0 1.323.289 20.56.289 20.56s-.081 3.227-3.913 1.984c-5.47-1.775-19.423-6.568-25.661-5.341a90 90 0 0 0-13.183 4.373c-4.282 1.856-10.649 4.713-17.353 8.069a40.3 40.3 0 0 0-10.633 6.81c-4.394 4.019-4.571 9.392-4.891 14.396-.498 8.069-1.701 25.692-1.604 26.998a18.75 18.75 0 0 0 1.898 8.58 18.65 18.65 0 0 0 5.591 6.752c7.297 5.567 17.096 12.91 18.652 14.088 4.924 3.809 14.258 3.857 18.556 1.614 9.462-4.841 29.509-15.218 29.943-15.461.433-.241 1.234-.225 1.603.775.209.646.337 1.114.497 1.614a6.78 6.78 0 0 0 2.117 3.098c4.459 3.76 13.761 11.765 14.354 12.266a7.58 7.58 0 0 0 4.409 2.153 7.54 7.54 0 0 0 4.797-1.008c7.12-3.873 10.921-6.261 11.499-6.584 3.287-1.824 2.261-3.89-.369-6.181m-40.094-23.594-20.096 10.328a10.05 10.05 0 0 1-8.548.162c-1.604-.839-7.217-3.76-10.328-5.261-2.614-1.275-4.122-4.002-4.635-7.456-.273-1.904-.882-12.523-1.251-18.849a9.99 9.99 0 0 1 2.919-8.375c1.347-1.082 6.527-3.825 9.205-5.359a82 82 0 0 1 10.297-4.647c3.656-1.42 6.992-1.049 14.21.888a64 64 0 0 1 8.836 2.791 6.72 6.72 0 0 1 2.405 5.778v24.094a6.17 6.17 0 0 1-.633 3.392 6.13 6.13 0 0 1-2.349 2.514zm777.828-20.027c-1.439-2.421-8.786-14.814-11.222-18.429-2.759-4.164-3.624-3.97-16.681-7.44-7.327-1.953-31.818-8.65-37.818-10.329-8.45-2.404-9.381-3.743-10.153-10.36-.238-2.162-.462-5.374-.766-9.521-.29-3.857.172-4.955 3.525-6.827 2.166-1.21 9.625-5.519 12.833-7.214 3.882-2.098 6.991-1.21 11.691.678 2.423.952 10.073 4.212 12.958 5.407 2.885 1.194 2.627 1.969 5.836 8.327 1.491 2.97 4.046 2.452 5.934 1.614 1.895-.84 11.565-5.972 13.552-7.085 3.789-2.147 4.522-3.76 3.209-5.745-1.921-2.776-2.311-3.13-3.724-5.084-1.406-1.952-2.726-3.453-5.644-7.036-3.333-4.083-2.931-3.712-9.908-5.148-4.892-1.033-24.603-5.083-30.471-6.23a12.3 12.3 0 0 0-8.503 1.276c-3.379 1.468-16.932 7.552-20.529 9.247-8.437 3.986-9.896 4.067-10.952 6.068-1.505 2.872-.884 1.484-4.812 9.101-4.509 9.022-5.743 10.716-4.812 13.798 1.604 5.359 4.812 13.524 7.472 21.19 2.667 7.665 2.905 8.876 18.734 13.087 9.143 2.437 36.888 9.764 40.096 10.878 5.44 1.824 6.08 2.695 8.39 7.746 1.01 2.227 2.403 5.793 3.202 7.73 1.287 3.227 2.984 6.455 2.297 10.587-.865 5.067-6.047 6.455-8.872 8.069-3.38 1.887-10.826 5.632-14.833 7.439-5.195 2.372-5.888 3.05-12.971-.403-6.113-2.97-8.021-4.116-12.193-6.294a9.44 9.44 0 0 1-4.455-3.357c-1.816-2.017-4.621-4.841-6.786-7.568-3.209-3.858-5.711-2.857-9.269-1.066-2.891 1.452-13.261 6.875-15.909 8.344a3.1 3.1 0 0 0-1.287.932 3.1 3.1 0 0 0-.653 1.449 3.1 3.1 0 0 0 .138 1.586c.185.509.495.959.905 1.31 2.931 2.953 9.618 9.15 11.961 11.296 4.555 4.132 8.113 7.359 12.186 8.457 8.02 2.178 21.784 5.777 31.039 8.165 11.222 2.873 8.529 2.147 18.133-1.614 3.321-1.322 21.639-8.778 25.983-10.957 5.215-2.631 5.921-3.34 8.403-12.087a3480 3480 0 0 0 5.789-20.544c1.268-5.1 1.604-8.989-1.043-13.443M335.906 39.796c-2.775-.097-8.532 0-11.997.13a8.07 8.07 0 0 0-4.542 1.537 8.15 8.15 0 0 0-2.883 3.852c-5.838 19.93-26.751 91.793-27.633 94.472-1.011 3.115-3.352 2.857-3.897.226-.546-2.63-16.375-91.986-16.937-94.536-.689-3.034-1.603-5.31-7.024-5.471-6.511-.21-16.374-.42-19.598-.468-4.972 0-8.019 1.033-6.864 5.52 1.026 3.905 24.778 99.232 31.001 124.181.93 3.76 4.892 5.519 8.693 5.035 3.304-.42 6.864-.888 8.708-1.226a25.1 25.1 0 0 1 11.018.5c1.427.323 3.111.694 4.683 1.001 2.614.532 5.886-2.437 6.864-6.036.834-3.083 27.376-95.763 34.465-120.567 1.364-4.551-.481-8.037-4.106-8.15zM95.772 54.224c-4.057-5.536-6.046-5.778-14.017-5.745-1.395 0-17.385.193-23.415.403s-10.296 1.614-14 4.712a119 119 0 0 0-8.292 9.328c-.45.484-1.348 2.114-2.326 1.92s-1.139-1.29-.978-3.227c.721-8.553 2.967-43.75 3.608-54.87C36.69 2.954 35.053 0 30.803 0 29.2 0 12.745.549 5.93.549a5.65 5.65 0 0 0-4.37 1.776A5.746 5.746 0 0 0 .027 6.81C.026 8.552 1.934 148.823 2.239 171.078a2.73 2.73 0 0 0 .864 2.211 2.69 2.69 0 0 0 2.263.677l18.091-.177a2.53 2.53 0 0 0 1.778-.631c.49-.433.795-1.039.852-1.693 0-.936 3.448-56.257 4.346-75.074.257-6.6 2.55-14.734 5.39-17.058 2.838-2.324 8.916-7.068 11.562-8.956a9.8 9.8 0 0 1 6.736-1.97c2.983 0 8.019.114 10.569.195 3.368.096 3.4.387 6.223 2.372 1.395.984 3.4 2.437 5.164 3.792 2.903 2.211 4.25 4.035 4.202 8.198 0 .871 1.732 67.263 2.02 83.531 0 4.47.722 7.875 5.245 7.875h12.686c4.25 0 4.554-3.502 4.891-7.407 0-1.114 3.416-67.118 4.94-84.096.577-7.133-.706-10.586-4.074-15.266-.866-1.065-6.014-7.617-10.264-13.379zm586.179 102.96c-6.892.371-10.133.581-11.961.775-3.816.371-6.067 1.097-6.991 7.891-1.076 7.73-.548 12.297-7.717 15.395-7.169 3.099-9.43 3.518-12.831 3.906-6.19.742-7.794.952-13.68-.258-8.018-1.614-11.146-4.131-15.396-11.297a67.2 67.2 0 0 1-6.078-12.765 19.5 19.5 0 0 1-1.059-5.81c.882-14.395 2.823-78.608 2.919-80.35.353-6.165 1.235-10.99-3.528-15.945-4.763-4.954-10.745-11.297-11.66-12.216-4.506-4.374-8.933-5.778-16.711-5.778-9.623 0-28.676-.645-30.167-.678-6.591-.145-5.998-.306-12.06 2.954s-13.889 9.23-16.167 10.522a10.37 10.37 0 0 0-3.895 3.615 10.46 10.46 0 0 0-1.606 5.083c-.721 5.245-2.405 11.167-3.047 16.767-.497 4.341 1.315 6.181 4.812 5.987 1.219 0 11.467-.774 17.32-1.129 3.577-.194 5.614-1.065 6.913-5.422.32-1.05 3.4-9.102 4.94-13.976 1.122-3.405 2.999-5.777 5.982-6.197 4.811-.662 5.821-1.049 8.901-1.42 5.901-.71 6.976 0 8.9.936 1.155.613 4.908 3.405 8.501 5.745 2.389 1.614 4.346 3.228 4.185 8.07 0 1.306.433 12.457.241 14.523s1.411 7.617-2.599 7.117c-4.811-.597-10.151-3.857-20.063-5.197a20.8 20.8 0 0 0-8.853.162c-4.715 1.614-12.926 4.76-13.872 5.18-7.762 3.325-9.35 4.245-19.326 9.328-6.559 3.324-9.622 7.294-10.537 14.524-.945 8.069-1.78 28.71-1.86 30.017a19.14 19.14 0 0 0 1.831 9.592 19 19 0 0 0 6.316 7.417c7.394 5.536 15.653 11.829 17.642 13.265a19.138 19.138 0 0 0 19.39 1.614c9.189-4.841 27.584-14.039 28.002-14.297s2.245-1.614 2.581-.598c.225.662 1.011 2.743 1.156 3.228a10.3 10.3 0 0 0 2.485 3.13c4.812 4.842 8.564 9.005 12.317 12.911 8.757 9.183 9.959 9.941 20.609 12.459 11.499 2.727 12.285 2.92 14.434 3.308s4.025 1.775 20.56-.759 17.544-2.937 19.248-3.227c1.696-.291 8.403-.856 11.129-11.959 2.727-11.102 4.232-17.316 4.614-19.656.39-2.34 2.601-6.842-4.31-6.487zm-101.47-18.978c-.128 4.276-.224 6.971-3.432 8.424-1.603.726-11.948 6.229-18.315 9.682a10.9 10.9 0 0 1-5.239 1.586 10.9 10.9 0 0 1-5.346-1.166c-3.704-1.856-5.147-2.324-9.718-5.003a9.5 9.5 0 0 1-3.594-3.355 9.56 9.56 0 0 1-1.442-4.714c-.273-4.341-.963-14.895-1.155-18.817-.193-3.921.85-6.665 5.549-9.585 2.133-1.308 11.114-5.794 14.129-7.231a21.7 21.7 0 0 1 11.339-1.613c1.844.387 10.633 2.872 13.632 3.76 2.727.807 3.673 4.066 3.592 6.697-.176 4.955.001 19.318-.047 21.335zm279.056 30.565c-3.604-3.228-8.661-7.262-10.826-9.263a4.17 4.17 0 0 1-1.221-1.662 4.2 4.2 0 0 1-.284-2.05c1.36-14.524 7.439-79.706 7.604-81.448.562-6.214-1.128-10.732-5.809-15.751-4.68-5.019-10.297-11.055-11.228-11.974a26.039 26.039 0 0 0-18.781-7.278c-9.763 0-26.22-.71-27.745-.743a26.8 26.8 0 0 0-16.932 4.6c-5.169 3.227-11.341 7.165-12.43 7.907-3.611 2.566-5.664 5.212-6.317 9.07-1.03 6.051-2.693 15.718-2.905 17.17-.66 4.358 1.136 6.214 4.813 6.02 1.234 0 11.611-.759 17.638-1.114 3.611-.193 5.307-1.21 6.773-5.6.35-1.065 3.479-10.102 5.195-15.008a6.44 6.44 0 0 1 2.099-3.418 6.4 6.4 0 0 1 3.703-1.504c4.04-.71 9.381-1.404 10.457-1.533a10.17 10.17 0 0 1 7.73 1.614c1.076.71 7.67 5.325 8.535 5.938a8.4 8.4 0 0 1 2.41 2.841 8.4 8.4 0 0 1 .944 3.615c0 1.323.27 20.56.27 20.56s0 3.227-3.901 2c-5.453-1.775-19.434-6.584-25.659-5.341a90 90 0 0 0-13.196 4.373c-4.271 1.856-10.634 4.713-17.354 8.069a40.5 40.5 0 0 0-10.615 6.794c-4.397 4.003-4.588 9.408-4.911 14.395-.496 8.07-1.697 25.709-1.605 27.015a18.9 18.9 0 0 0 1.908 8.58 18.7 18.7 0 0 0 5.598 6.752c7.301 5.567 17.097 12.91 18.655 14.088 4.925 3.792 14.259 3.857 18.536 1.614 9.466-4.841 29.514-15.234 29.943-15.461.436-.225 1.235-.241 1.604.759.212.662.357 1.13.502 1.614a6.75 6.75 0 0 0 2.132 3.098c4.456 3.744 13.744 11.732 14.351 12.249a7.497 7.497 0 0 0 9.189 1.162c7.123-3.873 10.925-6.278 11.5-6.6 3.221-1.792 2.211-3.858-.416-6.149zm-40.096-23.626c-1.597.855-13.546 7.004-20.094 10.36a10.15 10.15 0 0 1-8.549.162c-1.604-.839-7.215-3.776-10.311-5.277-2.627-1.259-4.119-4.002-4.647-7.456-.257-1.888-.884-12.507-1.234-18.849a10 10 0 0 1 .475-4.526 10 10 0 0 1 2.442-3.833c1.347-1.082 6.509-3.841 9.203-5.359a80 80 0 0 1 10.297-4.647c3.638-1.436 6.978-1.081 14.213.888a60 60 0 0 1 8.832 2.791 6.8 6.8 0 0 1 1.915 2.591 6.85 6.85 0 0 1 .495 3.187v24.094a6.1 6.1 0 0 1-.66 3.4 6 6 0 0 1-2.403 2.474zM716.337 50.157a13.3 13.3 0 0 0-4.76-3.14 13.2 13.2 0 0 0-5.63-.846c-8.278 0-19.665.63-23.837.871-6.298.371-9.156 1.953-12.074 5.39-2.918 3.438-7.519 8.376-8.304 9.086-4.205 3.808-4.641 2.243-4.463-2.033.099-2.518.739-9.812.977-12.91.449-5.568-3.063-6.956-7.599-7.005-5.437 0-12.061-.08-14.899-.08-8.885 0-10.601-.178-10.601 10.57 0 7.924.385 90.598.432 115.968 0 4.728 3 7.471 6.239 7.471 3.24 0 11.13-.096 13.52-.096s5.116-2.97 5.453-7.682c1.364-19.962 4.815-74.235 5.085-77.462a12.4 12.4 0 0 1 1.36-4.935 12.3 12.3 0 0 1 3.228-3.957c4.278-3.39 10.054-7.618 11.929-9.344a9.92 9.92 0 0 1 7.168-2.453c4.542 0 7.572.113 10.51.258a12.5 12.5 0 0 1 6.409 1.71c2.331 1.372 5.631 5.39 6.72 6.456 1.882 1.92 2.806 2.743 2.806 6.455 0 17.945 1.38 78.834 1.38 83.126 0 5.132 1.881 7.698 4.587 7.828 3.816.145 9.018.113 10.826.113 3.209 0 4.991-2.195 5.42-6.149 2.152-18.575 7.057-75.493 7.717-81.723 1.109-10.44-.74-12.636-5.743-18.897-5.466-6.81-10.087-12.443-13.856-16.59M479.941 33.05a17.85 17.85 0 0 0-9.957 3.048 18 18 0 0 0-6.597 8.1 18.14 18.14 0 0 0-1.014 10.424 18.1 18.1 0 0 0 4.911 9.234 17.9 17.9 0 0 0 9.181 4.933c3.477.695 7.082.336 10.357-1.03a17.95 17.95 0 0 0 8.044-6.645 18.1 18.1 0 0 0 3.021-10.022 18.12 18.12 0 0 0-5.257-12.764 17.9 17.9 0 0 0-5.823-3.91 17.8 17.8 0 0 0-6.866-1.368m9.045 47.074c-5.998 0-14.995.161-18.283.161-5.1 0-7.217 1.42-7.169 7.037 0 4.647.161 64.309.209 84.644 0 4.211 2.438 6.761 6.206 6.874s4.812 0 9.495.194c4.683.193 6.928-2.372 7.297-6.585 1.812-20.979 7.249-83.772 7.505-86.596a5.01 5.01 0 0 0-1.258-4.14 4.932 4.932 0 0 0-4.002-1.59m-35.892 88.598c-3.593-3.228-8.645-7.246-10.826-9.248a4.1 4.1 0 0 1-1.22-1.661 4.1 4.1 0 0 1-.256-2.05c1.348-14.524 7.426-79.722 7.571-81.449.561-6.212-1.107-10.748-5.79-15.75s-10.313-11.07-11.226-11.975a26.3 26.3 0 0 0-8.661-5.526 26.1 26.1 0 0 0-10.104-1.768c-9.783 0-26.238-.694-27.745-.726a26.88 26.88 0 0 0-16.952 4.583c-5.165 3.227-11.339 7.181-12.413 7.94-3.625 2.55-5.677 5.196-6.336 9.037-1.025 6.052-2.678 15.75-2.902 17.187-.658 4.357 1.139 6.213 4.812 6.02l17.641-1.114c3.609-.21 5.308-1.21 6.768-5.6.352-1.065 3.496-10.103 5.212-15.025a6.46 6.46 0 0 1 2.115-3.364 6.4 6.4 0 0 1 3.674-1.477c4.058-.71 9.415-1.404 10.473-1.533a10.12 10.12 0 0 1 7.714 1.614c1.091.694 7.683 5.325 8.533 5.939a8.26 8.26 0 0 1 2.41 2.838 8.3 8.3 0 0 1 .926 3.617c0 1.323.304 20.56.304 20.56s-.08 3.228-3.913 2c-5.453-1.79-19.422-6.567-25.66-5.341a89.6 89.6 0 0 0-13.184 4.358c-4.282 1.856-10.649 4.712-17.368 8.068-7.089 3.535-9.463 5.745-10.617 6.811-4.395 4.018-4.587 9.392-4.892 14.394-.497 8.069-1.7 25.708-1.603 27.016-.052 2.97.6 5.91 1.903 8.576a18.7 18.7 0 0 0 5.586 6.755c7.297 5.551 17.096 12.91 18.652 14.088 4.923 3.809 14.257 3.841 18.54 1.614 9.478-4.842 29.525-15.218 29.942-15.476s1.235-.21 1.604.774c.192.646.337 1.113.481 1.614a7 7 0 0 0 2.133 3.115c4.474 3.744 13.745 11.732 14.434 12.248a7.514 7.514 0 0 0 9.19 1.162c7.121-3.873 10.937-6.277 11.531-6.6 3.159-1.872 2.133-3.954-.481-6.245m-40.095-23.61c-1.604.855-13.536 7.004-20.095 10.361a10.07 10.07 0 0 1-8.532.161c-1.7-.839-7.202-3.761-10.313-5.277-2.63-1.259-4.137-3.986-4.65-7.44-.273-1.905-.866-12.539-1.251-18.865a9.96 9.96 0 0 1 .484-4.53 9.9 9.9 0 0 1 2.451-3.83c1.315-1.081 6.511-3.841 9.189-5.357a78 78 0 0 1 10.296-4.665c3.641-1.42 7.009-1.049 14.21.904a61 61 0 0 1 8.853 2.776 6.64 6.64 0 0 1 1.91 2.589 6.7 6.7 0 0 1 .48 3.188v24.094a6.1 6.1 0 0 1-.633 3.399 6.03 6.03 0 0 1-2.383 2.492z"/></svg>