<svg xmlns="http://www.w3.org/2000/svg" width="173" height="200" fill="none"><path fill="url(#a)" d="M15.822 146.608v-2.602h1.276c2.271 0 4.423-.92 6.336-2.081 2.431-1.521 3.746-4.162 4.185-6.924.08-.64.16-1.321.16-1.961V13.128c-.04-1.441-.519-6.204-4.424-8.485-2.91-1.881-5.5-2.001-6.218-2.001h-.16l-1.195-.04V.04h56.672v2.602h-.957c-.716 0-3.307.16-6.256 2.04-3.866 2.242-4.344 7.045-4.384 8.486l-.04 2.001v1.801l.04 35.141h50.176l.04-35.14v-3.803c-.04-1.441-.518-6.244-4.424-8.485-2.909-1.881-5.5-2.001-6.217-2.001h-.16l-.717-.04V0h56.712v2.642h-1.395c-.717 0-3.308.16-6.257 2.04-3.866 2.242-4.344 7.045-4.384 8.446V133.08c0 .24-.159 6.284 4.424 8.925 2.909 1.881 5.5 2.001 6.217 2.001h1.395v2.602H99.555l.04-2.642h.877c.717 0 3.268-.08 6.257-2.001 3.587-2.081 4.264-6.364 4.384-8.085V83.81H60.737l-.12 49.31.04 1.401c.12 1.721.997 5.723 4.624 7.804 2.91 1.881 5.38 1.721 6.097 1.721h.837v2.602zm26.782-13.368h2.59V69.201h81.462v64.079h2.59V11.127h-2.59V66.68H45.234V11.127h-2.59V133.24z"/><path fill="#fff" d="M172.009 156.454H0v3.122h171.969v-3.122zM7.333 181.309H19.05v-11.447h6.297v29.498H19.01v-12.008H7.333v12.008H.996v-29.498h6.297v11.447zM37.184 199.4h-6.297v-29.498h6.297zM52.01 180.748l3.786 1.481c4.663 1.761 6.934 4.483 6.934 8.445 0 5.924-4.902 9.326-10.322 9.326-4.862 0-9.126-2.562-10.96-7.244l5.38-2.922c.997 2.521 3.11 4.202 5.66 4.202 2.032 0 3.746-1.04 3.746-2.961 0-1.441-.956-2.402-3.069-3.162l-3.507-1.281c-4.264-1.561-6.974-4.163-6.974-8.445 0-5.363 4.065-8.845 9.565-8.845 4.344 0 8.17 2.401 9.963 6.363l-5.22 3.042c-.877-1.961-2.432-3.562-4.584-3.562-1.913 0-3.268 1.041-3.268 2.602.04 1.44 1.076 2.281 2.87 2.961M73.012 175.785H65.28v-5.883H87v5.883H79.31V199.4h-6.297z"/><path fill="#fff" fill-rule="evenodd" d="M88.436 184.671c0-8.525 6.815-15.289 15.303-15.289a15.247 15.247 0 0 1 15.304 15.289c0 8.525-6.815 15.289-15.304 15.289a15.247 15.247 0 0 1-15.303-15.289m6.456 0c0 5.083 3.906 9.165 8.847 9.165 4.982 0 8.848-4.042 8.848-9.165 0-5.083-3.906-9.166-8.848-9.166-4.981 0-8.847 4.043-8.847 9.166M132.953 169.902c6.297 0 10.721 3.402 10.721 9.446 0 4.202-2.511 7.164-6.018 8.525l8.05 11.567h-7.413l-7.173-10.807h-1.674v10.807h-6.217v-29.498h9.724zm-3.507 13.488h3.547c2.511 0 4.344-1.481 4.344-3.922 0-2.482-1.833-3.883-4.344-3.883h-3.547z" clip-rule="evenodd"/><path fill="#fff" d="m158.459 180.708 6.496-10.806h7.054l-10.441 16.69V199.4h-6.297v-12.808l-10.442-16.69h7.174zM166.988 195.117H163.8v.921h1.116v3.402h.916v-3.402h1.116v-.921zM167.546 195.157h1.116l1.315 2.962 1.315-2.962h1.076v4.283h-.916v-2.562l-1.156 2.562h-.598l-1.156-2.562v2.562h-.916v-4.283z"/><defs><linearGradient id="a" x1="32.998" x2="149.096" y1="55.063" y2="94.639" gradientUnits="userSpaceOnUse"><stop offset="1" stop-color="#fff"/></linearGradient></defs></svg>