<svg xmlns="http://www.w3.org/2000/svg" width="1264" height="200" fill="none"><g fill="#fff" clip-path="url(#a)"><path d="M115.324 198.239h85.439v-24.295h-57.662v-25.705h52.388v-22.535h-52.388v-24.648h57.662V76.408h-85.439zM462.354 123.944l-31.293-47.536h-35.16l51.686 73.944-25.316 47.887h31.644l63.991-121.83h-31.644zM566.075 99.296q21.624 0 25.315 16.901l.352.704 27.073-2.816-.351-1.057c-3.165-17.605-14.768-38.38-51.334-38.38-12.306 0-24.26 3.169-32.699 8.803-10.196 6.69-15.822 16.549-15.822 28.169 0 21.127 12.658 32.746 42.192 39.084 18.283 4.226 24.612 6.69 24.612 15.141 0 9.155-8.79 10.564-14.064 10.564-12.657 0-20.041-5.986-21.096-17.606v-1.056h-27.776v1.056c1.406 25.352 19.69 40.845 47.466 40.845 27.425 0 43.598-12.676 43.598-34.155 0-22.535-16.525-30.634-42.895-36.268-20.393-4.225-24.612-9.859-24.612-17.253.703-8.099 10.548-12.676 20.041-12.676M701.792 169.718l-30.94-93.31h-37.27V198.24h26.37v-81.69l28.48 80.986.351.704h25.667l28.831-82.394v82.394h26.018V76.409h-36.917zM855.793 76.408h-32.347L779.145 198.24h28.831l8.79-26.056h45.356l8.79 26.056h28.831l-43.95-121.126zm-1.055 73.24h-29.886l15.119-43.662zM1079.41 129.93l46.76-53.522h-34.81l-38.32 46.831v-46.83h-27.78v121.83h27.78v-38.028l8.79-10.211 34.81 47.887.35.352h32.35zM245.416 76.408h-28.128V198.24h86.494v-25h-58.366zM347.38 76.408h-28.128V198.24h86.493v-25H347.38zM985.182 155.282c-3.516 14.084-12.306 21.479-26.37 21.479-20.393 0-32.347-14.085-32.347-39.085v-.352c0-24.648 11.954-39.085 32.347-39.085 14.064 0 23.206 7.043 26.37 21.479l.352.705 28.126-2.817-.35-1.057C1008.39 90.141 988.346 75 958.461 75c-37.27 0-60.476 23.944-60.476 61.972v.704c0 38.38 23.206 61.972 60.476 61.972 29.885 0 49.579-15.141 54.849-41.549l.35-1.057-28.126-2.817zM28.128 146.127v3.521c0 17.606 7.032 26.408 20.744 26.408 14.064 0 20.393-8.098 20.393-25.352V76.408h28.128v75c0 30.986-17.58 48.592-48.52 48.592-31.645 0-49.225-17.958-49.225-50.352v-6.338zM1140.94 34.507v.704l30.24 16.197-33.4 10.212 5.27 16.901 46.76-14.436-29.53 55.281 15.47 8.451 29.53-55.282 14.07 46.479 16.87-5.282-10.19-33.45 30.23 16.197c.36 0 .36 0 .71-.352 16.52-32.042 4.57-71.48-27.43-88.38C1219.7 2.464 1209.15 0 1198.95 0c-23.55 0-46.41 12.324-58.01 34.507"/></g><defs><clipPath id="a"><path fill="#fff" d="M0 0h1264v200H0z"/></clipPath></defs></svg>