<svg xmlns="http://www.w3.org/2000/svg" width="1673" height="200" fill="none"><mask id="a" width="1673" height="200" x="0" y="0" maskUnits="userSpaceOnUse" style="mask-type:luminance"><path fill="#fff" d="M1672.12 0H0v200h1672.12z"/></mask><g fill="#fff" mask="url(#a)"><path d="M274.01 75.196c23.984-18.968 37.999-43.234 43.42-65.822h-34.602C277.631 36 261.574 63.256 238.5 79.444h-2.265V9.375h-36.179V153.36h36.179V98.833l16.521-10c16.967 16.608 27.139 43.653 31.223 64.527h41.377c-6.108-30.401-25.784-60.28-51.346-78.164M374.011 45.963h-35.287V153.34h35.287zM374.64 0h-36.644v28.357h36.644zM539.948 44.95c-14.701 0-29.403 5.332-37.999 18.741h-2.041c-5.662-12.342-17.413-18.74-34.379-18.74-14.924 0-28.698 5.331-37.089 18.74h-2.024l-5.438-16.818h-31.669l3.843 35.577v70.928h35.288V93.744c0-17.046 7.017-30.035 22.387-30.035 9.281 0 17.635 4.685 17.635 24.073v65.596h35.289V93.744c0-16.416 7.016-30.035 22.387-30.035 9.263 0 17.635 4.685 17.635 24.073v65.596h35.269V82.66c0-24.493-14.479-37.692-39.113-37.692M649.935 136.539c-7.5 0-14.109-1.941-19.882-4.72V93.724c0-16.609 7.24-30.035 22.61-30.035s22.387 12.78 22.387 37.063c0 18.094-4.306 35.787-25.115 35.787m17.653-91.591c-14.702 0-29.163 5.332-37.311 18.741h-.224V0h-35.287v146.993c3.842 1.242 7.852 2.343 11.972 3.321 13.625 3.218 28.476 4.949 42.547 4.949 36.161 0 62.186-13.846 62.186-56.224 0-33.882-14.924-54.091-43.883-54.091M797.652 91.594h-40.244c0-20.874 9.263-27.902 21.718-27.902 11.528 0 18.99 6.17 18.99 21.94 0 2.343-.222 3.619-.446 5.962M781.595 44.95c-33.488 0-60.626 14.266-60.626 54.301s25.56 56.015 59.94 56.015c17.634 0 32.336-2.553 47.707-7.028v-24.546l-2.711 1.958c-9.282 5.962-22.164 10.874-36.402 10.874-19.547 0-31.594-9.108-32.039-29.178h73.565l.52-2.343c1.354-5.962 1.8-12.133 1.8-17.465 0-25.123-16.057-42.588-51.773-42.588M881.464 68.162h-2.042l-5.884-21.293h-31.352l3.768 35.577v70.926h35.268V93.739c0-11.713 7.927-18.112 24.226-18.112 3.824 0 11.509.735 15.129 1.382V44.963c-19.232 0-32.337 8.514-39.113 23.217M973.182 135.683c-6.33 0-8.353-3.619-8.353-9.372V0h-35.288v129.073c0 19.179 12.882 24.914 29.626 24.914 6.552 0 13.57-.857 20.345-2.133v-17.308l-1.578.489c-1.577.42-3.174.629-4.752.629"/><path d="M1025.51 153.428c-11.69 14.878-26.32 19.319-47.168 19.319v27.254c31.208 0 57.678-21.713 74.178-46.643 20.59-31.101 33.23-72.622 37.55-106.486h-35.49c-1.58 33.864-10.64 67.727-19.68 89.458h-1.35c-9.04-21.731-18.08-55.367-19.66-89.458h-37.087c2.264 32.797 18.526 80.315 36.977 106.713M1098.23 101.379h58.94l2.85-22.307h-57.71zM1213.89 81.363c0-36.207 14.26-55.176 40.71-55.176 12.88 0 28.27 5.647 37.77 13.952V14.91c-11.77-4.895-26.89-7.238-41.37-7.238-49.33 0-74.87 26.626-74.87 73.69s27.6 73.899 74.2 73.899c14.24 0 30.07-2.763 42.95-8.952v-25.35c-10.39 9.371-25.78 15.56-38.66 15.56-25.1 0-40.71-19.388-40.71-55.175M1628.65 95.42c26.45-12.57 37.33-32.797 40.24-48.567h-37.31c-2.71 19.598-14.01 35.787-28.26 43.881V0h-35.08v153.356h35.08V107.57l7.92-3.829c13.32 11.084 21.25 30.035 23.73 49.634h37.1c-2.71-23.427-16.73-47.71-43.42-57.938M1520.27 68.162h-2.05l-5.88-21.293h-31.35l3.76 35.577v70.926h35.28V93.739c0-11.713 7.92-18.112 24.2-18.112 3.82 0 11.51.735 15.13 1.382V44.963c-19.23 0-32.34 8.514-39.11 23.217M1433.18 108.202c0 15.542-6.1 28.322-21.27 28.322-11.76 0-15.81-8.531-15.81-17.465 0-12.133 6.33-17.046 17.86-17.046h19.22zm35.29-26.836c0-24.283-17.21-36.416-52.92-36.416-16.74 0-31 2.343-46.6 6.172v21.975c9.96-4.266 25.1-9.423 38.45-9.423 15.6 0 25.78 5.332 25.78 18.322v5.542h-26.47c-20.58 0-45.9 5.542-45.9 34.073 0 17.256 9.95 33.655 35.72 33.655 15.14 0 28.26-5.543 36.41-18.533h2.02l5.67 16.609h31.61l-3.79-35.577V81.349zM1349.5 135.683c-6.32 0-8.34-3.619-8.34-9.372V0h-35.29v129.073c0 19.179 12.88 24.914 29.62 24.914 6.56 0 13.58-.857 20.34-2.133v-17.308l-1.57.489c-1.58.42-3.17.629-4.76.629M137.144 116.576V89.059c-5.458 0-14.535 0-16.781-.035-1.931-.035-5.421.28-8.094-2.185-1.782-1.644-2.06-4.196-.705-7.29.353-.805 1.021-1.924 1.93-3.287 1.226-1.836 19.918-24.983 23.594-29.58H101.54c-1.652 1.747-10.247 13.53-15.018 21.573-.278.472-.612.996-.872 1.45V23.203H51.494v46.504c-.26-.455-.576-.98-.873-1.451-4.789-8.025-13.365-19.826-15.017-21.574H.056c3.675 4.598 22.368 27.745 23.593 29.58.91 1.364 1.578 2.483 1.93 3.287 1.337 3.095 1.078 5.63-.704 7.29-2.674 2.466-6.163 2.168-8.094 2.186-2.246.035-11.323.035-16.781.035v27.517h28.866c11.88.088 18.897-7.674 21.291-11.258.409-.595.706-1.102.929-1.486.222-.385.352-.63.426-.717v28.812h34.156v-28.812s.205.332.427.717c.223.384.52.891.928 1.486 2.395 3.584 9.412 11.363 21.292 11.258"/></g></svg>