<svg xmlns="http://www.w3.org/2000/svg" width="658" height="200" fill="none"><path fill="#fff" d="M46.73 149.693h5.12c23.362 0 38.124-12.47 59.232-42.934h.41l-15.368 47.866H0v-.41c9.218-5.315 11.479-10.222 14.756-23.712L38.528 35.64c1.433-5.926 2.254-10.222 2.254-13.49 0-4.497-1.225-7.363-5.12-10.222v-.41h54.3v.41c-9.225 5.315-11.48 10.222-14.756 23.712zM146.872 136.06a28 28 0 0 0-.411 3.887c0 3.478 1.643 5.727 4.922 5.727a10.45 10.45 0 0 0 5.332-1.638v.41c-6.356 8.82-14.354 12.273-23.173 12.273-13.331 0-19.074-7.976-19.074-18.82a33.1 33.1 0 0 1 1.03-8.82l13.122-53.385c1.643-6.54 2.666-10.427 2.666-13.287 0-3.686-1.232-6.137-4.309-8.594v-.41h40.611zM158.114 4.415c10.474 0 17.862 7.546 17.862 17.35a19.44 19.44 0 0 1-5.743 13.886 19.67 19.67 0 0 1-13.965 5.71c-10.468 0-17.862-7.546-17.862-17.35a19.29 19.29 0 0 1 5.67-13.956 19.51 19.51 0 0 1 14.013-5.69z"/><path fill="#fff" d="M218.043 53.355h15.353l-2.459 5.116h-13.916l-22.926 92.855c-8.393 34.157-23.128 48.264-53.419 48.674v-.41c10.851-7.359 15.555-25.152 24.969-66.057l17.397-75.062h-9.414l.63-2.249 10.417-4.499 1.841-5.727C193.887 16.747 215.993 0 239.323 0c12.895 0 23.33 6.339 23.33 16.974 0 12.073-8.827 18.82-19.036 18.82-6.759 0-11.463-3.685-12.484-7.976 6.135-1.027 12.894-6.345 12.894-18.001 0-3.888-2.049-6.54-5.732-6.54-7.371 0-13.512 10.226-17.396 34.15z"/><path fill="#fff" d="M218.44 119.276c0-32.54 26.828-68.142 61.833-68.142 16.796 0 25.194 8.598 25.194 20.67 0 22.913-24.783 32.734-53.454 33.963a79 79 0 0 0-1.028 11.662c0 16.389 7.786 24.35 18.638 24.35 9.218 0 15.566-4.501 23.345-14.731h1.224c-8.6 19.85-23.345 29.671-41.163 29.671-20.253 0-34.589-12.891-34.589-37.443m34.252-16.659c17.177-5.313 30.057-25.133 30.057-41.283 0-4.086-1.436-6.535-4.094-6.535-9.196 0-21.667 25.121-25.963 47.818M336.9 130.121a15.5 15.5 0 0 0-.631 4.299c0 5.931 3.884 9.41 8.796 9.41 3.279 0 7.567-1.841 11.464-5.528l.208.41c-7.567 12.07-17.605 18.007-30.5 18.007-14.735 0-22.516-8.597-22.516-21.89a45.5 45.5 0 0 1 1.437-10.027l16.577-66.286h-7.352l.631-2.66c21.287-5.527 34.995-17.389 48.097-38.055h1.842l-8.828 35.598h19.244l-2.257 5.117h-18.418zM397.641 136.06a28 28 0 0 0-.41 3.887c0 3.478 1.642 5.727 4.921 5.727a10.45 10.45 0 0 0 5.332-1.638v.41c-6.355 8.82-14.353 12.273-23.173 12.273-13.33 0-19.073-7.976-19.073-18.82a33.1 33.1 0 0 1 1.03-8.82l13.122-53.385c1.642-6.54 2.666-10.427 2.666-13.287 0-3.686-1.232-6.137-4.309-8.594v-.41h40.61zM408.884 4.415c10.474 0 17.861 7.546 17.861 17.35a19.44 19.44 0 0 1-5.742 13.886 19.67 19.67 0 0 1-13.966 5.71c-10.467 0-17.861-7.546-17.861-17.35a19.29 19.29 0 0 1 5.678-13.965 19.51 19.51 0 0 1 14.03-5.681zM549.849 136.048a13.9 13.9 0 0 0-.631 3.89c0 3.48 1.64 5.73 5.122 5.73a9.8 9.8 0 0 0 5.115-1.639v.41c-6.143 8.826-14.129 12.28-22.928 12.28-13.518 0-19.454-7.981-19.454-18.83 0-2.862.631-5.724 1.262-8.826l11.669-46.864a27.6 27.6 0 0 0 1.262-7.565c0-3.272-1.262-5.32-4.504-5.32-6.352 0-12.906 8.39-17.409 25.581l-14.742 59.75h-32.964l18.021-72.44a25.2 25.2 0 0 0 1.224-7.161c0-3.48-1.432-5.73-4.914-5.73-6.346 0-12.691 8.39-17.195 26.193l-14.767 59.138h-33.172l19.655-78.99c1.432-6.543 2.46-10.433 2.46-13.295 0-3.688-1.262-6.14-4.1-8.599v-.41h40.37l-5.936 23.534c7.569-16.164 16.993-25.576 31.123-25.576 13.511 0 19.447 9.204 19.447 21.075a31 31 0 0 1-.404 4.299c7.778-16.17 17.605-25.374 31.539-25.374 13.719 0 19.453 8.826 19.453 20.463a56.4 56.4 0 0 1-1.432 11.454zM567.072 119.276c0-32.54 26.835-68.142 61.833-68.142 16.796 0 25.194 8.598 25.194 20.67 0 22.913-24.784 32.734-53.454 33.963a79 79 0 0 0-1.022 11.662c0 16.389 7.78 24.35 18.632 24.35 9.218 0 15.565-4.501 23.345-14.731h1.262c-8.606 19.85-23.345 29.671-41.17 29.671-20.253 0-34.62-12.891-34.62-37.443m34.252-16.659c17.176-5.313 30.057-25.133 30.057-41.283 0-4.086-1.43-6.535-4.088-6.535-9.177 0-21.648 25.121-25.944 47.818zM657.245 149.465c-.042 3.945-3.273 7.112-7.223 7.079-3.951-.032-7.13-3.251-7.107-7.196s3.239-7.128 7.19-7.114a7.217 7.217 0 0 1 7.14 7.231m-.699.11a6.375 6.375 0 0 0-6.429-6.294 6.374 6.374 0 0 0-6.328 6.395 6.374 6.374 0 0 0 6.378 6.345 6.4 6.4 0 0 0 4.515-1.907 6.38 6.38 0 0 0 1.838-4.539zm-5.7.493 2.379 3.335h-.927l-2.329-3.291h-1.572v3.291h-.764v-8.028h2.708c1.761 0 2.525 1.017 2.525 2.344a2.18 2.18 0 0 1-2.045 2.337zm-2.339-.504h1.725c1.487 0 1.945-.823 1.945-1.697 0-1.015-.696-1.619-1.763-1.619h-1.882z"/></svg>