<svg width="270" height="201" viewBox="0 0 270 201" fill="none" xmlns="http://www.w3.org/2000/svg">
<g clip-path="url(#clip0_61_30)">
<path d="M110.434 124.866V201L124.645 191.444L138.856 201V124.866H110.434Z" fill="white"/>
<path d="M144.539 127.43C145.099 127.43 145.647 127.596 146.114 127.907C146.58 128.218 146.944 128.66 147.159 129.177C147.374 129.694 147.43 130.263 147.322 130.813C147.213 131.362 146.944 131.867 146.548 132.263C146.152 132.66 145.647 132.93 145.097 133.041C144.548 133.151 143.977 133.096 143.459 132.883C142.94 132.67 142.497 132.308 142.184 131.843C141.871 131.379 141.703 130.832 141.702 130.272C141.69 129.531 141.973 128.816 142.488 128.283C143.004 127.751 143.71 127.444 144.452 127.43H144.539ZM144.539 132.836C145.055 132.845 145.562 132.7 145.996 132.419C146.43 132.139 146.77 131.736 146.974 131.262C147.177 130.788 147.235 130.264 147.14 129.757C147.044 129.25 146.8 128.783 146.438 128.415C146.076 128.047 145.612 127.796 145.106 127.692C144.6 127.588 144.074 127.637 143.596 127.832C143.118 128.028 142.709 128.361 142.421 128.789C142.133 129.217 141.979 129.721 141.979 130.237C141.968 130.569 142.022 130.9 142.14 131.211C142.257 131.522 142.435 131.807 142.663 132.049C142.892 132.29 143.166 132.484 143.47 132.62C143.774 132.755 144.102 132.828 144.434 132.836H144.539ZM145.259 131.883C145.175 131.774 145.118 131.646 145.094 131.511L144.99 131.095C144.947 130.949 144.854 130.823 144.727 130.741C144.599 130.658 144.446 130.624 144.296 130.644H144.035V131.875H143.35V128.531H144.66C145.406 128.531 145.892 128.851 145.892 129.561C145.892 130.125 145.502 130.428 144.964 130.428C145.311 130.48 145.571 130.584 145.684 130.956L145.814 131.459C145.856 131.61 145.926 131.751 146.022 131.875L145.259 131.883ZM144.035 130.151H144.486C145.042 130.151 145.224 129.96 145.224 129.648C145.224 129.336 144.99 129.128 144.582 129.128H144.044L144.035 130.151Z" fill="white"/>
<path d="M124.463 1.63742C127.17 1.75871 116.655 -5.29331 94.0542 12.2501C81.3615 22.1437 79.7999 28.0088 86.7926 14.1214C93.1086 1.59408 95.104 5.77853 98.4789 5.80452C98.93 5.80452 99.1296 5.57926 99.1122 5.27604C99.0342 3.04088 62.83 -3.51732 54.0587 2.44311C51.2217 4.37506 52.9048 7.22532 55.5336 8.42087C57.9021 9.49513 58.2752 9.50379 58.3099 9.33919C58.4053 8.75874 54.0327 8.13497 54.5099 5.68322C55.6204 2.01804e-05 81.6218 1.35151 90.4451 3.0842C95.8241 4.11514 88.4497 1.62874 78.8976 11.1758C67.0985 22.9754 59.3683 35.9186 46.3459 35.3294C36.6637 34.8963 35.8916 24.7081 41.1404 20.8442C45.3569 17.7167 50.7446 17.041 55.7245 20.9049C56.5921 21.5719 57.0345 20.6449 56.7743 20.2464C56.3752 19.6227 49.1048 13.9135 40.5852 19.8826C25.8363 30.2787 48.7318 52.8036 71.9916 24.119C78.3597 16.5818 83.5825 7.05205 89.3433 6.22902C83.6346 10.1795 82.446 15.3776 79.2706 23.1574C76.4076 30.1574 75.0455 29.3344 73.7875 31.3529C72.92 32.6958 73.588 34.0733 74.8286 33.952C75.8784 33.8653 77.2318 32.3666 77.6483 31.0584C78.4551 28.6759 95.9629 12.1028 108.881 5.5013C99.7022 12.0075 81.7259 34.827 90.4191 33.6747C92.1108 33.4581 94.3058 25.5484 103.251 14.5546C108.69 7.79709 113.046 2.41713 124.463 1.63742Z" fill="white"/>
<path d="M215.985 1.11753C202.034 1.9059 197.488 18.7909 187.667 18.8429C187.771 18.8429 188.335 14.6324 184.266 14.7711C172.623 15.1869 169.378 31.994 162.628 31.7947C161.067 31.7514 160.893 30.6685 163.028 27.6449C165.717 23.911 178.47 5.4839 188.656 1.90591C189.02 1.77596 188.977 1.16085 188.587 1.1955C172.545 2.58165 162.689 29.7241 152.66 31.8727C150.474 32.3232 148.244 31.4741 147.663 30.2353C146.656 28.0954 148.964 25.3491 149.233 24.9246C155.827 27.7489 167.044 15.6721 160.399 14.9184C157.753 14.6151 155.523 15.6721 153.354 17.0322C145.849 21.7278 145.737 29.2823 141.442 31.1709C138.605 32.4271 137.165 30.885 138.362 28.9098C141.442 23.8417 150.847 16.5557 143.707 14.8577C140.948 14.1993 136.896 16.859 133.573 19.1114C142.119 7.90098 145.589 4.50492 152.209 1.78461C152.278 1.78461 152.209 1.58535 152.139 1.56802C150.821 1.33411 146.318 2.01852 143.221 4.60022C127.708 17.5087 126.199 30.9024 117.037 31.2922C115.458 31.3615 114.591 31.2402 113.905 29.8628C110.912 23.989 123.952 12.8998 124.793 17.1795C124.923 17.8726 124.368 18.4703 123.258 19.3713C119.458 22.4728 125.756 24.6907 126.78 18.7216C127.7 13.255 121.852 14.0867 117.549 17.6647C109.081 24.6734 110.999 30.4778 106.27 31.6387C103.06 32.4271 104.284 23.5558 112.725 15.8367C113.046 15.5421 112.725 14.8837 112.361 15.0656C107.745 17.2315 101.473 23.1659 101.473 30.7378C101.473 33.64 105.056 35.7452 109.94 31.2835C111.337 34.1858 117.471 35.6153 122.954 31.2835C123.206 32.7043 124.143 34.0992 125.808 33.9432C127.361 23.3912 140.028 14.2599 142.214 16.9716C144.401 19.6832 133.122 27.3157 134.909 31.8553C136.176 35.0695 141.598 33.6487 144.279 31.145C145.676 34.0385 152.747 35.4767 158.16 31.145C158.412 32.6091 162.169 36.5163 168.346 31.2662C168.83 32.0014 169.469 32.6224 170.219 33.0862C170.968 33.55 171.809 33.8454 172.684 33.9519C179.538 34.515 186.044 23.1313 186.608 21.7278C188.021 21.5216 189.392 21.0917 190.669 20.4543C177.95 37.1313 196.629 38.0497 205.652 24.9766C208.012 21.5632 211.222 16.2092 207.448 14.9876C201.973 13.203 190.322 25.9729 201.236 13.3763C204.793 9.26981 208.263 4.94676 216.037 1.76729C216.93 1.3861 216.471 1.0309 215.985 1.11753ZM150.612 23.0273C158.568 13.8441 162.091 15.3948 159.288 18.9988C156.061 23.0793 149.519 24.3268 150.612 23.0187V23.0273ZM182.461 23.4432C172.918 35.6499 168.649 31.7254 174.462 24.0929C182.965 13.1597 189.211 14.7537 182.453 23.4345L182.461 23.4432ZM198.945 19.4147C208.801 13.6708 206.84 18.5483 202.294 24.0409C189.411 39.6351 183.667 28.3726 198.928 19.432L198.945 19.4147Z" fill="white"/>
<path d="M114.174 11.0891C115.042 13.4543 119.432 13.4456 118.512 11.0891C117.592 8.7327 113.237 8.75869 114.174 11.0891Z" fill="white"/>
<path d="M98.8615 95.5922H74.7948V54.2243C74.8028 53.4336 75.0813 52.6693 75.5843 52.0585H65.4336C65.949 52.6898 66.2309 53.4791 66.2318 54.2936V97.2729V100.496C66.2318 101.787 66.3445 102.306 65.4423 103.623H99.7638C100.493 103.674 101.189 103.946 101.759 104.403V94.7951C101.126 95.3073 100.336 95.5885 99.5208 95.5922H98.8615Z" fill="white"/>
<path d="M104.188 59.6996V60.566C104.631 60.2342 105.137 59.9937 105.674 59.8583C106.212 59.723 106.771 59.6956 107.319 59.7776H120.611V101.561C120.568 102.308 120.292 103.024 119.821 103.606H130.059C129.727 103.163 129.486 102.658 129.35 102.121C129.215 101.584 129.187 101.026 129.269 100.478V97.2989V59.7776H142.483C143.775 59.7776 144.296 59.665 145.615 60.566V52.1018H104.188V59.6996Z" fill="white"/>
<path d="M45.2357 52.0585H35.6923C36.2178 52.6501 36.5506 53.3874 36.6467 54.1723V87.0933C34.7987 92.9325 28.6042 96.0426 21.195 96.0426C14.0288 96.0426 9.44797 90.7406 9.44797 82.1812V54.2503C9.4542 53.4514 9.73265 52.6783 10.2375 52.0585H0C0.521193 52.6865 0.803845 53.478 0.798187 54.2936V58.3395V84.0871C0.798187 95.6528 9.18768 104.81 21.195 104.81C29.3069 104.81 33.6448 101.527 36.6467 98.5984V103.606H45.9124C45.5802 103.163 45.3393 102.658 45.2038 102.121C45.0683 101.584 45.0408 101.026 45.1229 100.478V84.4597C45.1229 84.3297 45.1229 84.1998 45.1229 84.0698V58.3741V55.1946C45.1229 53.8951 45.0101 53.384 45.9124 52.0671L45.2357 52.0585Z" fill="white"/>
<path d="M200.013 100.912C199.362 100.045 188.665 83.0995 188.665 83.0995C194.903 82.1379 200.004 76.5327 200.004 68.1811C200.004 56.2083 192.196 52.0758 179.529 52.0758H160.078C160.519 52.6284 160.79 53.2963 160.859 53.9991V101.648C160.788 102.348 160.517 103.012 160.078 103.563H170.229C169.728 102.95 169.447 102.187 169.431 101.397V84.3037H180.57L187.329 95.5662C190.391 100.487 191.511 101.7 190.556 103.614H202.39C201.523 103.025 201.245 102.592 200.013 100.929M177.924 76.8879H169.439V59.561H177.924C186.21 59.561 191.276 61.4929 191.276 68.1638C191.276 74.8346 186.132 76.8272 177.924 76.8272" fill="white"/>
<path d="M262.913 103.589C261.993 103.017 261.256 101.102 260.145 98.3905L243.661 55.7058C243.071 54.1377 242.585 53.5139 243.531 52.0845H231.168C232.105 53.5139 231.619 54.1377 231.038 55.7058L214.554 98.3905C213.452 101.128 212.715 103.043 211.795 103.589H223.837C223.021 102.22 222.536 100.314 224.401 95.4795L226.726 89.0946H247.964L250.316 95.4795C252.181 100.322 251.704 102.22 250.879 103.589H262.913ZM237.371 82.0512H229.754L237.371 62.4633L244.989 82.0599L237.371 82.0512Z" fill="white"/>
<path d="M267.154 95.2976C267.714 95.2976 268.263 95.4635 268.729 95.7745C269.195 96.0854 269.559 96.5273 269.774 97.0444C269.989 97.5616 270.046 98.1307 269.937 98.68C269.828 99.2293 269.559 99.7341 269.163 100.131C268.767 100.527 268.262 100.798 267.713 100.908C267.163 101.018 266.593 100.963 266.074 100.75C265.556 100.537 265.112 100.175 264.799 99.7107C264.486 99.246 264.318 98.6991 264.317 98.1392C264.305 97.3985 264.588 96.6834 265.104 96.1508C265.619 95.6181 266.325 95.3113 267.067 95.2976H267.154ZM267.154 100.704C267.67 100.712 268.178 100.567 268.611 100.287C269.045 100.006 269.385 99.6036 269.589 99.1295C269.793 98.6555 269.85 98.1316 269.755 97.6246C269.66 97.1176 269.415 96.6505 269.053 96.2826C268.691 95.9148 268.227 95.6629 267.721 95.5591C267.215 95.4552 266.689 95.5041 266.211 95.6995C265.733 95.8949 265.324 96.2279 265.036 96.6562C264.748 97.0845 264.594 97.5887 264.594 98.1045C264.583 98.4367 264.637 98.7678 264.755 99.0787C264.872 99.3896 265.05 99.6742 265.279 99.9159C265.507 100.158 265.781 100.352 266.085 100.487C266.389 100.622 266.717 100.696 267.05 100.704H267.145H267.154ZM267.874 99.7506C267.79 99.6413 267.733 99.5136 267.709 99.3781L267.605 98.9622C267.563 98.8165 267.469 98.6908 267.342 98.6081C267.214 98.5254 267.061 98.4912 266.911 98.5117H266.651V99.7419H266V96.3979H267.31C268.056 96.3979 268.542 96.7271 268.542 97.4375C268.542 97.9919 268.151 98.3038 267.614 98.3038C267.969 98.3645 268.23 98.4684 268.334 98.8323L268.464 99.3348C268.506 99.4856 268.576 99.6268 268.672 99.7506H267.874ZM266.651 98.0179H267.102C267.666 98.0179 267.839 97.836 267.839 97.5154C267.839 97.1949 267.605 96.9956 267.197 96.9956H266.659L266.651 98.0179Z" fill="white"/>
</g>
<defs>
<clipPath id="clip0_61_30">
<rect width="270" height="201" fill="white"/>
</clipPath>
</defs>
</svg>
