<svg width="270" height="200" viewBox="20 -40 230 280" fill="none" xmlns="http://www.w3.org/2000/svg">
<path d="M110.434 124.243V200L124.645 190.492L138.856 200V124.243H110.434Z" fill="white"/>
<path d="M144.539 126.795C145.099 126.795 145.647 126.96 146.114 127.269C146.58 127.579 146.944 128.018 147.159 128.533C147.374 129.048 147.43 129.614 147.322 130.161C147.213 130.707 146.944 131.209 146.548 131.604C146.152 131.999 145.647 132.268 145.097 132.377C144.548 132.487 143.977 132.433 143.459 132.221C142.94 132.009 142.497 131.649 142.184 131.186C141.871 130.724 141.703 130.18 141.702 129.622C141.69 128.885 141.973 128.174 142.488 127.644C143.004 127.114 143.71 126.809 144.452 126.795H144.539ZM144.539 132.174C145.055 132.183 145.562 132.038 145.996 131.759C146.43 131.48 146.77 131.08 146.974 130.608C147.177 130.136 147.235 129.615 147.14 129.11C147.044 128.606 146.8 128.141 146.438 127.775C146.076 127.409 145.612 127.158 145.106 127.055C144.6 126.952 144.074 127 143.596 127.195C143.118 127.389 142.709 127.721 142.421 128.147C142.133 128.573 141.979 129.075 141.979 129.588C141.968 129.918 142.022 130.248 142.14 130.557C142.257 130.867 142.435 131.15 142.663 131.39C142.892 131.631 143.166 131.824 143.47 131.958C143.774 132.093 144.102 132.166 144.434 132.174H144.539ZM145.259 131.226C145.175 131.117 145.118 130.99 145.094 130.855L144.99 130.441C144.947 130.296 144.854 130.171 144.727 130.089C144.599 130.007 144.446 129.973 144.296 129.993H144.035V131.217H143.35V127.89H144.66C145.406 127.89 145.892 128.209 145.892 128.916C145.892 129.476 145.502 129.778 144.964 129.778C145.311 129.829 145.571 129.933 145.684 130.303L145.814 130.803C145.856 130.953 145.926 131.094 146.022 131.217L145.259 131.226ZM144.035 129.502H144.486C145.042 129.502 145.224 129.312 145.224 129.002C145.224 128.691 144.99 128.485 144.582 128.485H144.044L144.035 129.502Z" fill="white"/>
<path d="M124.463 1.62542C127.17 1.74611 116.655 -5.27097 94.0542 12.1855C81.3615 22.0301 79.7999 27.8662 86.7926 14.0475C93.1086 1.5823 95.104 5.74601 98.4789 5.77187C98.93 5.77187 99.1296 5.54773 99.1122 5.24601C99.0342 3.02192 62.83 -3.50378 54.0587 2.42712C51.2217 4.34949 52.9048 7.18562 55.5336 8.37525C57.9021 9.44419 58.2752 9.45281 58.3099 9.28902C58.4053 8.71145 54.0327 8.09077 54.5099 5.65117C55.6204 -0.00386681 81.6218 1.34093 90.4451 3.06503C95.8241 4.09086 88.4497 1.61678 78.8976 11.1166C67.0985 22.8577 59.3683 35.7367 46.3459 35.1505C36.6637 34.7195 35.8916 24.5818 41.1404 20.737C45.3569 17.625 50.7446 16.9526 55.7245 20.7974C56.5921 21.4612 57.0345 20.5388 56.7743 20.1422C56.3752 19.5215 49.1048 13.8406 40.5852 19.7802C25.8363 30.1248 48.7318 52.538 71.9916 23.9956C78.3597 16.4957 83.5825 7.01321 89.3433 6.19427C83.6346 10.1252 82.446 15.2975 79.2706 23.0387C76.4076 30.0041 75.0455 29.1851 73.7875 31.1937C72.92 32.5299 73.588 33.9005 74.8286 33.7798C75.8784 33.6936 77.2318 32.2023 77.6483 30.9006C78.4551 28.53 95.9629 12.039 108.881 5.47015C99.7022 11.9441 81.7259 34.6505 90.4191 33.504C92.1108 33.2885 94.3058 25.4179 103.251 14.4785C108.69 7.75456 113.046 2.40126 124.463 1.62542Z" fill="white"/>
<path d="M215.985 1.10807C202.034 1.89253 197.488 18.6939 187.667 18.7456C187.771 18.7456 188.335 14.556 184.266 14.6939C172.623 15.1077 169.378 31.8315 162.628 31.6332C161.067 31.5901 160.893 30.5125 163.028 27.504C165.717 23.7886 178.47 5.4528 188.656 1.89254C189.02 1.76323 188.977 1.15117 188.587 1.18565C172.545 2.56493 162.689 29.5729 152.66 31.7108C150.474 32.1591 148.244 31.3142 147.663 30.0815C146.656 27.9523 148.964 25.2196 149.233 24.7971C155.827 27.6074 167.044 15.5905 160.399 14.8405C157.753 14.5388 155.523 15.5905 153.354 16.9439C145.849 21.6162 145.737 29.1333 141.442 31.0125C138.605 32.2625 137.165 30.7281 138.362 28.7626C141.442 23.7196 150.847 16.4698 143.707 14.7801C140.948 14.125 136.896 16.7715 133.573 19.0128C142.119 7.8579 145.589 4.47867 152.209 1.77184C152.278 1.77184 152.209 1.57356 152.139 1.55632C150.821 1.32357 146.318 2.00459 143.221 4.57349C127.708 17.418 126.199 30.7453 117.037 31.1332C115.458 31.2022 114.591 31.0815 113.905 29.7108C110.912 23.8661 123.952 12.8319 124.793 17.0904C124.923 17.7801 124.368 18.3749 123.258 19.2714C119.458 22.3575 125.756 24.5644 126.78 18.6249C127.7 13.1853 121.852 14.0129 117.549 17.5732C109.081 24.5472 110.999 30.3229 106.27 31.478C103.06 32.2625 104.284 23.4351 112.725 15.7543C113.046 15.4612 112.725 14.806 112.361 14.9871C107.745 17.1422 101.473 23.0472 101.473 30.5815C101.473 33.4694 105.056 35.5641 109.94 31.1246C111.337 34.0124 117.471 35.4348 122.954 31.1246C123.206 32.5383 124.143 33.9263 125.808 33.7711C127.361 23.2713 140.028 14.1853 142.214 16.8835C144.401 19.5818 133.122 27.1764 134.909 31.6935C136.176 34.8917 141.598 33.478 144.279 30.9867C145.676 33.8659 152.747 35.2969 158.16 30.9867C158.412 32.4435 162.169 36.3314 168.346 31.1074C168.83 31.8389 169.469 32.4568 170.219 32.9183C170.968 33.3798 171.809 33.6737 172.684 33.7797C179.538 34.34 186.044 23.0127 186.608 21.6162C188.021 21.411 189.392 20.9833 190.669 20.349C177.95 36.9434 196.629 37.8572 205.652 24.8489C208.012 21.4524 211.222 16.1249 207.448 14.9094C201.973 13.1336 190.322 25.8402 201.236 13.3061C204.793 9.21994 208.263 4.91832 216.037 1.7546C216.93 1.3753 216.471 1.02186 215.985 1.10807ZM150.612 22.9093C158.568 13.7715 162.091 15.3146 159.288 18.9007C156.061 22.961 149.519 24.2024 150.612 22.9007V22.9093ZM182.461 23.3231C172.918 35.4693 168.649 31.5642 174.462 23.9696C182.965 13.0905 189.211 14.6767 182.453 23.3144L182.461 23.3231ZM198.945 19.3145C208.801 13.5991 206.84 18.4525 202.294 23.9179C189.411 39.4347 183.667 28.2281 198.928 19.3318L198.945 19.3145Z" fill="white"/>
<path d="M114.174 11.0303C115.042 13.3837 119.432 13.375 118.512 11.0303C117.592 8.68549 113.237 8.71136 114.174 11.0303Z" fill="white"/>
<path d="M98.8615 95.1146H74.7948V53.9518C74.8028 53.1649 75.0813 52.4045 75.5843 51.7966H65.4336C65.949 52.4248 66.2309 53.2103 66.2318 54.0207V96.787V99.9938C66.2318 101.278 66.3445 101.795 65.4423 103.106H99.7638C100.493 103.156 101.189 103.427 101.759 103.882V94.3215C101.126 94.8312 100.336 95.1109 99.5208 95.1146H98.8615Z" fill="white"/>
<path d="M104.188 59.3999V60.2619C104.631 59.9318 105.137 59.6925 105.674 59.5578C106.212 59.4231 106.771 59.3958 107.319 59.4775H120.611V101.054C120.568 101.798 120.292 102.509 119.821 103.089H130.059C129.727 102.648 129.486 102.145 129.35 101.611C129.215 101.077 129.187 100.521 129.269 99.9765V96.8128V59.4775H142.483C143.775 59.4775 144.296 59.3654 145.615 60.2619V51.8397H104.188V59.3999Z" fill="white"/>
<path d="M45.2357 51.7966H35.6923C36.2178 52.3854 36.5506 53.119 36.6467 53.9V86.6579C34.7987 92.4681 28.6042 95.5628 21.195 95.5628C14.0288 95.5628 9.44797 90.2871 9.44797 81.7701V53.9776C9.4542 53.1826 9.73265 52.4134 10.2375 51.7966H0C0.521193 52.4216 0.803845 53.2091 0.798187 54.0207V58.0465V83.6666C0.798187 95.1749 9.18768 104.287 21.195 104.287C29.3069 104.287 33.6448 101.02 36.6467 98.1059V103.089H45.9124C45.5802 102.648 45.3393 102.145 45.2038 101.611C45.0683 101.077 45.0408 100.521 45.1229 99.9765V84.0372C45.1229 83.9079 45.1229 83.7786 45.1229 83.6493V58.081V54.9172C45.1229 53.6242 45.0101 53.1156 45.9124 51.8053L45.2357 51.7966Z" fill="white"/>
<path d="M200.013 100.408C199.362 99.5455 188.665 82.6838 188.665 82.6838C194.903 81.727 200.004 76.1495 200.004 67.8394C200.004 55.9258 192.196 51.8138 179.529 51.8138H160.078C160.519 52.3637 160.79 53.0282 160.859 53.7276V101.14C160.788 101.837 160.517 102.498 160.078 103.045H170.229C169.728 102.436 169.447 101.677 169.431 100.89V83.8821H180.57L187.329 95.0887C190.391 99.9851 191.511 101.192 190.556 103.097H202.39C201.523 102.511 201.245 102.08 200.013 100.425M177.924 76.5029H169.439V59.262H177.924C186.21 59.262 191.276 61.1843 191.276 67.8221C191.276 74.4599 186.132 76.4426 177.924 76.4426" fill="white"/>
<path d="M262.913 103.071C261.993 102.502 261.256 100.597 260.145 97.899L243.661 55.4259C243.071 53.8656 242.585 53.2449 243.531 51.8225H231.168C232.105 53.2449 231.619 53.8656 231.038 55.4259L214.554 97.899C213.452 100.623 212.715 102.528 211.795 103.071H223.837C223.021 101.709 222.536 99.8128 224.401 95.0025L226.726 88.6492H247.964L250.316 95.0025C252.181 99.8214 251.704 101.709 250.879 103.071H262.913ZM237.371 81.6408H229.754L237.371 62.1499L244.989 81.6494L237.371 81.6408Z" fill="white"/>
<path d="M267.154 94.8214C267.714 94.8214 268.263 94.9865 268.729 95.2959C269.195 95.6053 269.559 96.045 269.774 96.5596C269.989 97.0742 270.046 97.6405 269.937 98.1871C269.828 98.7337 269.559 99.236 269.163 99.6305C268.767 100.025 268.262 100.294 267.713 100.404C267.163 100.514 266.593 100.459 266.074 100.247C265.556 100.035 265.112 99.6751 264.799 99.2127C264.486 98.7503 264.318 98.2061 264.317 97.6489C264.305 96.9119 264.588 96.2004 265.104 95.6703C265.619 95.1403 266.325 94.835 267.067 94.8214H267.154ZM267.154 100.201C267.67 100.209 268.178 100.065 268.611 99.7858C269.045 99.5069 269.385 99.1061 269.589 98.6344C269.793 98.1626 269.85 97.6413 269.755 97.1369C269.66 96.6324 269.415 96.1676 269.053 95.8016C268.691 95.4356 268.227 95.1849 267.721 95.0816C267.215 94.9783 266.689 95.0269 266.211 95.2213C265.733 95.4157 265.324 95.7471 265.036 96.1733C264.748 96.5995 264.594 97.1011 264.594 97.6144C264.583 97.9449 264.637 98.2744 264.755 98.5837C264.872 98.8931 265.05 99.1763 265.279 99.4168C265.507 99.6573 265.781 99.8505 266.085 99.985C266.389 100.12 266.717 100.193 267.05 100.201H267.145H267.154ZM267.874 99.2524C267.79 99.1436 267.733 99.0165 267.709 98.8817L267.605 98.4679C267.563 98.3229 267.469 98.1978 267.342 98.1155C267.214 98.0332 267.061 97.9992 266.911 98.0196H266.651V99.2437H266V95.9162H267.31C268.056 95.9162 268.542 96.2438 268.542 96.9507C268.542 97.5024 268.151 97.8127 267.614 97.8127C267.969 97.8731 268.23 97.9765 268.334 98.3386L268.464 98.8386C268.506 98.9886 268.576 99.1292 268.672 99.2524H267.874ZM266.651 97.5283H267.102C267.666 97.5283 267.839 97.3472 267.839 97.0283C267.839 96.7093 267.605 96.511 267.197 96.511H266.659L266.651 97.5283Z" fill="white"/>
</svg>
