<svg xmlns="http://www.w3.org/2000/svg" width="267" height="200" fill="none"><path fill="#fff" d="M23.439 151.75c15.993 0 23.418 10.2 23.418 19.89v21.46H36.76v-21.46c0-6.12-3.55-16.014-13.321-16.014S10.098 165.5 10.098 171.64v21.46H0v-21.46c0-9.771 7.425-19.89 23.439-19.89M162.644 193.814c-16.014 0-23.439-10.2-23.439-19.91v-21.5h10.098v21.5c0 6.12 3.549 16.014 13.341 16.014s13.321-9.873 13.321-16.014v-21.5h10.097v21.5c0 9.772-7.425 19.91-23.418 19.91M87.697 190.183a17.23 17.23 0 0 1-8.16 3.488c-10.2 1.612-24.48-5.1-25.03-19.991-.53-15.218 14.463-21.644 24.255-21.399 16.523.449 22.439 12.913 22.439 20.012V193.1h-10.2v-20.705c0-4.508-2.04-16.116-12.525-16.32s-13.525 9.241-13.545 16.32c0 4.508.959 15.666 12.75 16.319 3.61.204 8.75-.795 10.097-2.04zM132.963 199.22a16.65 16.65 0 0 1-9.302.224c-4.733-1.224-12.627-3.366-12.627-19.726v-45.184h10.199v17.951h9.404v6.344h-9.404s.245 12.709 0 22.99c-.204 9.16 2.591 12.24 4.59 13.321a11.22 11.22 0 0 0 7.079.449zM195.629 170.314c0-10.057 5.202-17.156 14.28-18.074 6.446-.652 8.772.551 8.772.551v4.08a13.9 13.9 0 0 0-7.12.184c-4.08 1.264-5.793 7.568-5.793 9.689v26.519h-10.2zM252.849 190.183a17.3 17.3 0 0 1-8.16 3.489c-10.2 1.611-24.479-5.1-25.009-19.992-.592-15.258 14.401-21.643 24.193-21.378 16.524.449 22.439 12.913 22.439 20.012V193.1h-10.199v-20.705c0-4.508-2.04-16.115-12.526-16.319-10.485-.204-13.524 9.241-13.545 16.319 0 4.508.979 15.667 12.75 16.32 3.631.204 8.751-.796 10.098-2.04zM127.088 17.36c-3.876 7.487-8.404 23.561-8.404 23.561s-.408 1.204-1.224-.183c-.551-.898-6.997-9.69-10.2-13.647-3.733-4.55-20.297-22.032-39.33-12.118-17.135 8.996-10.567 30.824-5.304 39.045 3.203 4.977 9.364 12.77 11.118 14.952.306.388.225.53-.265.408-1.469-.387-5.304-1.407-12.24-3.203-6.283-1.611-12.362-1.366-14.177 1.347-1.285 2.04-2.04 5.018.469 9.649 5.039 9.077 18.91 23.5 41.696 28.212.449 0 .408.449 0 1.122a5.18 5.18 0 0 0 .327 5.875c3.406 4.08 7.16 5.569 22.276 8.16 21.011 3.61 28.395-3.509 29.273-4.427a.2.2 0 0 1 .122-.036.2.2 0 0 1 .122.036 51.47 51.47 0 0 0 32.517-2.978c14.626-6.12 20.215-11.852 20.399-15.32s-7.548-2.754-9.812-3.346c-.694-.183-.49-.49 0-.754 1.04-.653 3.611-1.714 5.671-2.795s23.5-11.852 27.723-30.069-12.24-18.359-21.134-14.565-17.237 7.956-19.114 8.833c-.306.143-.388 0-.265-.285a119 119 0 0 0 5.711-17.646c1.857-8.65 1-32.292-22.439-36.719a27 27 0 0 0-5.14-.469 32.19 32.19 0 0 0-28.376 17.36m.918 37.147c1.836-5.202 2.468-7.874 5.528-17.91 3.795-12.505 12.036-22.297 25.316-18.36 15.565 4.753 11.933 20.4 9.424 26.866-2.04 5.14-3.61 10.404-6.956 18.93-2.652 6.916 3.06 7.12 6.12 6.447 3.488-.796 13.606-5.998 19.951-8.976 4.712-2.162 13.422-7.425 18.359-2.325 4.936 5.1-.612 13.953-6.528 19.257-5.916 5.303-21.664 11.913-26.519 13.85-4.855 1.939-6.671 4.713-4.284 6.222s9.343 2.714 11.424 2.979c1.734.204 3.427.652 3.427 1.856 0 1.51-4.08 4.61-13.688 7.854a50.3 50.3 0 0 1-19.951 2.04c-8.363-1.551-9.689-2.897-13.585-1.408-2.897 1.163-3.142 3.488-7.365 5.161-4.222 1.673-10.444 1.326-15.217.51-4.774-.816-13.097-1.591-13.954-5.406-.346-1.53 1.306-2.468 2.693-4.08 1.387-1.611 2.591-4.467-3.427-5.752-1.612-.327-18.257-2.999-28.559-8.16s-14.28-13.423-13.28-16.32c.877-2.345 3.223-2.57 6.405-2.04 3.652.694 19.604 5.04 24.48 5.1 2.04 0 3.529-.387 4.222-1.61 1.897-3.306-3.916-7.284-8.69-13.077-6.895-8.16-20.012-21.888-10.2-34.128 6.549-8.16 19.441-2.815 24.826 3.407 4.08 4.794 11.261 14.545 16.769 21.154a9.22 9.22 0 0 0 6.731 3.835c2.754 0 5.263-2.04 6.671-6.12"/></svg>