<svg xmlns="http://www.w3.org/2000/svg" width="193" height="200" fill="none"><g fill="#fff" clip-path="url(#a)"><path d="M130.979 80.295c-1.051-.632-2.312-1.475-2.943-1.897-3.574 1.476-6.938 4.637-9.881 7.798-6.728 7.166-6.097 11.17-13.456 13.909-1.892.633-3.994 1.476-6.937 2.108-1.682-5.058-5.887-10.327-10.302-10.327-3.154 0-6.518 1.686-10.722 3.372-4.836 2.108-9.251 4.637-10.512 5.48l1.892 2.529c1.471-.843 5.466-2.74 9.67-4.637 3.575-1.475 6.728-2.74 9.041-2.74 3.574 0 5.887 4.005 7.148 7.166-4.625 1.054-12.194 1.264-14.506 1.264-1.052 0-1.472.211-1.892.422s-.631.843-.841 1.686l-.21 1.054h2.522c12.825 0 24.808-2.108 32.377-6.744 1.051.21 2.103.421 3.364.421 4.415 0 9.04-2.318 11.773-4.636 1.052-.843 1.262-1.475 1.262-2.318V93.15l-.21-1.265c-3.995 3.162-7.569 5.69-11.774 5.69-.841 0-1.261 0-1.682-.21 3.995-6.323 7.779-12.224 16.819-17.07"/><path d="M103.859 88.093c-2.943 0-2.523-4.847-2.733-8.852-10.302 1.054-16.609 4.005-23.547 7.798l.841 3.161c6.307-3.793 12.404-5.9 18.922-6.744 0 3.794 1.681 8.852 5.886 8.852 4.626 0 10.092-7.166 16.609-15.596l1.682-2.318c-.841-.632-1.892-1.264-2.523-1.897-6.727 8.641-12.404 15.596-15.137 15.596M81.573 35.406c-1.05 0-2.102-.211-3.363-.422-1.052-.21-2.103-.421-3.575-.421-2.733 0-5.676 1.053-7.568 2.95-3.574 3.372-3.784 7.166-3.995 10.538-.21 4.425-1.05 5.479-3.574 8.64-1.892 2.53-4.625 6.112-6.727 9.695.63.21 2.733 1.475 3.574 1.896 2.312-3.582 5.676-8.008 7.778-11.17 1.893-2.95 2.734-4.214 2.944-8.218v-1.897c.21-2.108.63-4.215 2.733-6.112 1.472-1.475 3.574-2.318 5.676-2.318s3.154.632 5.046.632c1.262 0 2.102-.21 2.944-.632l.63-.21-1.472 3.793 3.575 1.475c-2.313 1.475-7.569 7.797-7.569 15.174 0 2.74.42 5.268 1.051 7.376 0 .21.21.421.63.421q.632 0 .632-.632v-.843c.21-2.318.21-5.9 1.261-9.062 1.472-5.48 5.677-10.537 9.671-13.066l-5.676-2.74 2.523-6.112-2.734.632c-1.681.211-2.943.633-4.415.633M103.648 9.905c-2.312 0-2.733 2.108-2.733 3.372 0 1.054.421 2.108 1.472 2.108s2.102-.633 3.153-1.476 1.682-1.475 1.682-2.107-.63-1.054-1.261-1.475c-.841-.211-1.472-.422-2.313-.422M104.699 53.109H90.193l-1.682 3.16h17.45zM70.01 24.236c.84-.632 1.682-1.264 1.682-2.107 0-.422-.21-.843-.63-1.054-.632-.632-1.473-.843-2.313-.843-1.682 0-2.523 1.686-2.523 3.161 0 1.054.63 1.686 1.681 1.686.631-.21 1.472-.421 2.103-.843M171.135 86.828l1.682 1.054c.21.21.421.21.631.21.42 0 .631-.42.631-.632 0-.21 0-.421-.211-.421-5.045-4.636-10.301-10.116-15.347-15.385-3.995-4.215-7.989-8.64-11.563-13.066-.211-.21-.421-.422-.631-.422q-.63 0-.631.633c0 .421.421 1.053 1.262 2.529 2.523 4.425 5.886 8.851 9.671 13.066 4.205 4.426 9.25 8.64 14.506 12.434M145.696 199.368h3.995c1.051 0 1.682-.422 2.312-1.054.421-.421.631-1.264.631-2.107v-44.679c0-.843-.21-1.475-.631-2.108-.42-.632-1.261-1.053-2.312-1.053h-3.995c-1.051 0-1.682.421-2.312 1.053-.421.422-.631 1.265-.631 2.108v44.679c0 .843.21 1.475.631 2.107.63.632 1.261 1.054 2.312 1.054"/><path d="M78.84 41.939q-.946-.632-1.892-.632c-1.472 0-2.103.843-2.313 1.686-.21.421-.21.843-.21 1.264 0 1.265.63 2.108 1.472 2.108 1.26 0 3.574-1.686 3.574-3.162 0-.421-.21-1.053-.631-1.264M32.377 85.142l.21 1.476c0 .632.42 1.053.841 1.264.631.21 1.472.422 2.944.422 3.784 0 6.727-.422 8.41-.843 4.204 6.322 9.88 8.64 15.557 8.64 4.836 0 9.46-1.686 14.086-4.215l-.84-3.372c-4.416 2.53-9.251 4.215-13.246 4.215-4.625 0-8.62-1.896-12.194-7.165-1.472-2.108-2.523-4.847-3.994-7.376-1.682-2.95-3.364-4.426-6.518-4.426-2.733 0-5.676 1.264-8.41 2.529l.21.632c.211 1.054.632 1.897 1.683 1.897.42 0 .84-.21 1.051-.21 1.682-.422 2.733-1.055 4.415-1.055 2.523 0 3.784 1.476 5.466 5.27l.631 1.264c-1.682.632-5.887.843-9.04.843h-1.262zM192.159 182.929c.631-.632.841-1.264.841-2.739 0-4.426-1.471-9.062-4.415-12.645s-7.568-6.112-14.086-6.112c-11.773 0-18.501 9.273-18.501 18.967 0 10.327 7.148 19.6 18.501 19.6 5.677 0 11.353-2.107 14.507-5.901 1.471-1.686 2.523-4.004 2.523-5.269 0-.421 0-.843-.421-1.264-.21-.422-.631-.632-1.472-.632h-5.466c-1.051 0-1.892.421-2.312 1.264-1.682 2.318-3.995 3.583-7.359 3.583-5.046 0-8.409-3.794-8.62-8.219h23.757q1.893 0 2.523-.633m-26.069-6.533c.42-4.215 3.574-7.376 8.409-7.376s7.989 3.161 8.41 7.376zM165.249 4.004c-2.103 4.215-10.512 17.492-15.138 22.972l2.523 2.74c2.523-2.74 5.046-7.377 7.989-12.013h.631v.843c0 3.793 1.892 6.744 6.938 6.744 2.943 0 7.779-1.476 12.194-2.95 3.574-1.265 6.938-2.53 8.62-2.951v-4.004c-1.892.632-5.887 2.107-9.882 3.582-4.204 1.476-8.409 2.74-10.722 2.74-2.733 0-3.364-1.475-3.364-3.583 0-4.215 2.733-10.537 4.415-13.91h-4.204zM131.82 17.914c-3.363-3.372-6.097-7.166-7.778-8.852C120.467 5.058 115.632 0 107.643 0c-7.569 0-12.615 5.058-14.296 9.273-.42 1.264-.841 2.74-1.052 3.372-.84 1.264-4.204 6.955-5.466 9.273h6.307l-3.153 5.9c3.574-.842 6.097-1.475 9.46-1.475 2.944 0 5.256.633 6.097 2.53 1.682 3.582 1.682 14.33 4.836 22.339 2.733 7.587 9.671 14.963 17.24 20.653l.42.21q.631 0 .631-.631c0-.211 0-.422-.21-.422-6.308-6.322-11.564-13.488-14.507-21.285-2.733-7.587-2.313-18.125-4.625-22.972-1.682-3.161-5.046-4.004-8.2-4.004-2.522 0-4.835.421-5.886.843l2.733-4.637h-4.625c1.05-1.686 2.102-3.372 2.522-4.215s.631-1.896 1.052-3.16c1.681-4.427 5.676-7.377 10.722-7.377 6.307 0 10.091 4.215 13.876 8.22 1.682 1.896 4.415 5.9 7.779 8.85 2.312 2.108 6.517 4.426 13.034 10.96 3.785 3.793 8.2 8.85 12.615 15.806 16.398 24.025 27.331 45.31 33.218 61.96-17.24-11.802-32.167-22.761-44.151-36.46-8.62-9.694-15.978-21.075-22.495-35.406-.421-1.053-.841-1.896-1.262-2.74-.21-.42-.42-.42-.631-.42q-.63 0-.63.631c0 .422.21 1.265.63 2.74 3.364 14.963 13.035 28.24 23.127 39.41 10.091 10.959 21.655 20.443 31.115 27.397l7.359 21.075c.21.422.42 1.054.42 1.475s0 .633-.42.843c-.211.211-.421.211-1.051.211h-2.313c-1.051 0-1.262-.211-1.682-.421-.421-.211-.631-.633-.841-1.265-.631-1.897-4.625-13.066-5.256-15.384q-.315-.633-.631-.633-.63 0-.63.633c0 .21 0 .632.21 1.475 1.051 5.058 2.102 10.748 2.523 12.855.21 1.054.42 1.897.42 2.529 0 .633-.21 1.054-.631 1.476l-2.102 2.739c-.631.633-.841.633-1.261.633q-.947 0-1.262-1.265c-2.523-12.223-6.517-27.186-7.568-31.191-.211-.843-.421-1.475-1.052-1.475-.42 0-.63.422-.63.843 0 .211 0 .632.21 1.054.631 4.215 3.153 20.021 5.887 34.352.42 2.529 1.471 3.793 3.574 3.793 1.051 0 1.892-.421 2.733-1.264 1.471-1.475 1.892-1.686 3.574-3.372 1.261-1.054 2.102-1.686 3.994-1.686h5.046c1.262 0 1.892-.211 2.313-.843.631-.422.841-1.265.841-2.318s-.211-1.897-.631-2.951c-1.261-3.583-5.466-15.174-6.728-18.546 4.205 3.162 10.512 7.376 13.245 7.376.841 0 1.262-.421 1.262-1.686 0-6.322-10.512-32.033-34.269-67.65-12.404-19.178-23.547-25.71-26.701-28.661M177.443 33.93c3.994-1.686 11.353-4.636 15.557-6.111v-4.215c-8.409 3.161-23.336 9.273-33.428 14.752.211.422 2.103 2.74 2.313 3.161 4.205-1.686 8.199-2.95 11.563-2.95 4.836 0 8.83 0 15.558-1.475V33.93c-3.784.633-7.779 1.476-10.302 1.476-1.472 0-1.892-.211-1.892-.633-.21-.21 0-.421.631-.843M79.892 15.806c-2.313 0-3.785 0-5.887-1.054-2.733-1.264-4.205-1.896-6.518-1.896-2.943 0-5.676 1.053-7.778 3.16-2.523 2.32-3.364 5.48-4.205 8.852-.631 2.74-1.472 5.69-3.364 8.22-1.682 2.318-2.733 3.371-6.307 7.797-4.836 5.69-7.359 10.327-11.563 20.443.63 0 1.681-.211 2.733-.211h1.682l.42-1.054c2.313-5.058 5.466-11.802 9.881-17.07l1.472-1.897c4.625-5.269 7.358-8.43 9.25-15.806.631-2.53 1.052-4.847 2.944-6.533 1.472-1.476 3.574-2.108 5.466-2.108 1.682 0 2.944.422 4.836 1.265 1.471.843 2.102 1.053 3.784 1.053h1.472l-2.313 3.162 3.154 2.318c-3.995 1.264-6.097 5.058-6.938 6.954-.21.422-.21.633-.21.844s.21.632.63.632.841-.422 1.262-1.054c1.892-2.318 3.574-4.004 10.722-6.322l-5.046-3.794 3.784-5.69h-3.364zM15.978 28.24c-8.41 0-11.983 4.005-11.983 6.744C1.472 36.038 0 38.778 0 41.307c0 5.058 3.784 8.64 8.62 8.64 1.682 0 3.364-.632 4.415-1.475.84.21 1.892.422 3.154.422 2.312 0 5.045-.843 6.727-3.583h.841c2.943 0 5.677-1.897 6.938-4.637.42-.632.42-1.053.42-1.475q0-.632-.63-.632c-.42 0-.631.421-1.472 1.264-1.892 1.686-4.835 2.319-7.779 2.319-1.472 2.107-3.364 3.372-5.256 3.372-1.471 0-2.733-.422-3.994-1.265-1.052 1.054-2.313 1.475-3.364 1.475-2.733 0-4.625-1.896-4.625-4.636 0-1.897 1.261-3.583 2.943-4.215.21-3.372 3.994-5.69 8.41-5.69h1.681c.631-1.054 2.313-2.318 4.626-2.53.42 0 .84 0 1.05-.21s.421-.422.421-.632 0-.422-.42-.633c-.21-.21-.63-.21-1.051-.21-2.103-.422-4.626-1.686-6.097-5.058-5.046 0-8.83-4.215-8.83-8.852v-.21c-1.472-.633-2.733-2.319-2.733-4.215 0-2.53 2.102-4.637 4.625-4.637 1.472 0 2.943.843 3.784 1.897.63-.21 1.472-.21 2.313-.21 3.784 0 7.989 2.317 8.62 7.165 4.835.421 6.097 4.636 6.307 6.322.21.843.21 1.686.84 1.686.631 0 .842-.632 1.052-1.686.42-1.686 1.051-3.161 2.313-4.215 0-4.426 3.363-8.22 7.989-8.22.63-1.474 2.312-2.739 4.204-2.739 2.523 0 4.626 1.897 4.626 4.637 0 1.475-.631 2.95-1.892 3.582.21.843.42 1.686.42 2.319 0 2.95-1.682 4.847-4.835 5.9-.42 1.687-1.052 3.372-2.313 4.426-2.102 1.897-4.205 1.897-4.205 2.74 0 .421.21.632 1.051.632 3.785 0 7.569-2.107 7.99-5.69 3.574-1.264 5.886-4.847 5.886-7.798 0-.843 0-1.475-.42-2.107 1.05-1.054 2.102-2.53 2.102-5.058 0-2.108-.84-4.215-2.523-5.901C50.668.843 48.565 0 46.253 0c-3.364 0-5.677 1.897-6.938 3.583-3.784 0-8.41 4.215-8.41 10.116h-.42c-.42-2.108-2.523-3.372-4.205-3.583-1.682-4.215-4.836-8.009-10.091-8.009-.631 0-1.262 0-2.103.211C12.614.843 10.722 0 8.41 0 3.784 0 0 3.793 0 8.43c0 2.95 1.261 4.847 3.784 6.744v.632c0 3.794 3.995 9.695 10.092 9.695 0 1.053 1.261 2.318 2.523 2.528v.422h-.42zM101.126 192.202c-1.682 0-3.364-.21-4.626-1.053-1.05-.422-1.682-1.054-2.312-2.108-.42-.843-.631-1.264-1.472-1.897-.42-.21-1.051-.21-1.892-.21h-4.205c-.841 0-1.261.21-1.682.632-.21.421-.42.843-.42 1.475 0 1.265.42 3.161 1.681 4.637 2.523 3.582 7.99 6.322 14.928 6.322 6.727 0 16.188-2.74 16.188-12.013 0-2.318-.631-4.425-1.892-6.111-1.682-2.108-3.784-3.583-7.779-4.426l-7.779-1.897c-3.154-.843-4.625-1.475-4.625-3.372s1.682-3.372 5.676-3.372c2.313 0 4.415.422 5.887 1.897 1.051 1.265.841 1.897 1.892 2.318.631.211 1.262.211 2.103.211h3.784c.631 0 1.051 0 1.472-.421.21-.211.42-.843.42-1.476 0-1.686-1.051-4.004-3.154-5.901-2.733-2.318-6.937-4.004-12.193-4.004-9.251 0-15.348 4.426-15.348 11.591 0 2.529.841 4.637 2.313 6.112 1.682 1.897 4.205 3.161 7.779 4.004l7.778 1.897c2.103.632 3.995 1.264 3.995 3.161-.21 2.951-3.364 4.004-6.517 4.004"/><path d="M29.855 28.873c1.892 2.528 4.835 7.797 7.778 14.541.42-.843 2.103-2.95 2.733-3.583-2.522-5.268-6.937-10.326-8.83-12.434zM78.42 75.026c2.944-1.475 7.569-2.107 10.092-2.107 2.102 0 4.415.21 6.307.421 2.313.211 5.046.633 7.779.633 6.307 0 12.614-3.372 13.665-4.005-.841-.632-1.682-1.686-2.312-2.318-2.103.843-6.728 2.53-11.353 2.53-2.313 0-4.205-.212-6.307-.422-2.733-.422-5.256-.633-7.359-.633-3.574 0-7.989.422-12.194 3.372zM72.323 72.287l-1.892-2.53c-7.569 2.951-16.189 7.587-16.189 12.435 0 2.74 2.103 4.847 6.728 4.847 6.728 0 13.876-3.372 19.762-6.533l-.84-.843c-.421-.632-.841-.843-1.472-.843-.42 0-.841.21-1.262.421-4.835 2.319-10.301 4.847-15.347 4.847-2.943 0-3.574-.842-3.574-2.107 0-3.793 9.46-7.798 14.086-9.694M137.918 169.652c.631 0 1.262-.21 1.682-.632.42-.421.631-1.054.631-1.686v-2.318c0-.843-.211-1.265-.631-1.686s-1.051-.632-1.682-.632h-6.097v-11.17c0-.843-.21-1.475-.631-2.108-.42-.632-1.261-1.053-2.312-1.053h-3.785c-1.051 0-1.681.421-2.312 1.053-.421.422-.631 1.265-.631 2.108v11.17h-1.892c-.631 0-1.261.21-1.682.632-.42.421-.631 1.054-.631 1.686v2.318c0 .843.211 1.475.631 1.686.421.422 1.051.632 1.682.632h1.682v17.071c0 4.426 1.261 7.165 3.364 9.273s4.625 3.372 9.25 3.372h2.944c.63 0 1.261-.211 1.682-.632.42-.422.63-1.054.63-1.686v-2.951c0-.843-.21-1.264-.63-1.686s-.841-.632-1.472-.632h-.421c-1.892 0-3.153-.422-3.994-1.265-1.051-1.053-1.472-2.318-1.472-4.425v-16.439zM189.637 156.164c.631 0 1.261-.21 1.682-.632.42-.421.631-1.054.631-1.686v-3.161c0-1.265-.211-1.897-.631-2.318s-1.051-.633-1.682-.633-1.051 0-2.102.211l-27.121 2.74c-.841 0-1.052.211-1.472.632-.21.422-.421.843-.421 1.475v1.686c0 .633.211 1.054.421 1.265.21.421.841.421 1.261.421zM139.809 84.72c-5.045 10.749-12.824 18.547-20.813 23.183-3.785 2.107-7.148 3.583-14.507 3.583H88.511c-5.676 0-9.25.843-11.984 1.475-2.943.843-4.835 1.475-7.989 1.475-4.415 0-8.62-2.318-10.722-4.426l3.784-2.95-1.892-2.529c-1.051.843-14.296 10.748-17.24 12.856h-.21v-1.897c0-7.587-3.574-9.273-8.83-11.38l-3.574 2.107c7.148 2.318 9.04 4.426 9.04 9.694 0 4.215-1.471 5.901-3.784 7.377-2.313 1.264-5.046 1.896-7.569 1.896-1.05 0-1.471.211-1.892.633q-.63.632-.63 1.896v1.265h.84c4.626 0 8.83-.632 13.456-4.426l15.137-11.802c2.102 2.529 7.569 5.901 13.876 5.901 3.574 0 5.887-.843 9.25-1.686 2.523-.632 5.046-1.264 10.723-1.264h15.978c8.199 0 12.194-1.686 16.399-4.215 9.46-5.269 17.449-14.331 22.075-24.658-1.051-.843-2.103-1.475-2.944-2.107"/><path d="M.21 118.019h1.262c2.523 0 2.733-1.475 2.733-2.951v-3.372c0-2.739.21-5.268 4.625-7.376 1.892-.843 10.933-4.425 17.66-7.376 1.893-.843 3.785-1.475 5.887-1.475 2.313 0 4.836 1.054 8.2 2.95 2.733 1.686 5.676 3.794 7.989 6.323l2.943-2.318c-2.523-2.95-5.887-5.48-9.46-7.587-3.365-2.108-6.518-3.162-9.041-3.162-1.051 0-2.103.211-2.733.422-.841.21-1.682.421-2.944.421-1.261 0-2.312-.21-3.784-2.107-.63-.632-4.205-4.847-5.046-6.112-.42-.632-1.05-1.686-1.05-3.161 0-.632 0-1.264.42-1.897 3.153 2.53 7.148 4.005 11.773 4.637l-.63-3.162c-6.939-1.685-14.297-7.797-14.297-11.59 0-.844.21-1.476.42-2.108 2.733 2.529 8.83 5.058 12.194 5.058 1.893 0 3.364-.632 4.836-1.265 1.261-.632 2.733-1.053 4.625-1.053 4.415 0 9.671 2.107 14.507 4.215.21 0 .63.21.84.21.842 0 1.262-.421 1.682-1.053l.631-1.054c-5.256-2.95-13.455-6.323-17.87-6.323-1.892 0-3.364.422-4.836 1.054-1.471.632-2.943 1.265-4.204 1.265-3.364 0-12.194-3.372-12.194-6.744 0-3.794 14.086-5.48 15.557-5.48l1.472-3.161c-10.091 0-22.285 3.583-22.285 8.43 0 1.264.84 2.107.84 3.372 0 1.686-.84 2.95-.84 4.847 0 1.265.84 2.95 1.682 4.215 1.05 1.475 2.102 2.53 2.102 3.583 0 .843-.63 2.107-.63 4.215 0 4.636 2.522 7.376 7.778 12.855l1.051 1.054c-4.204 1.686-12.194 5.058-13.875 5.901-6.308 2.74-7.99 5.901-7.99 10.959-.21 1.686-.21 4.004 0 5.901M44.15 11.802c0-.21-.21-.632-.63-.632-.21 0-.421.21-.841.421a28.7 28.7 0 0 0-3.575 3.583c-1.681 1.897-3.153 4.636-4.414 7.376l1.892 1.054c1.261-1.686 5.466-8.009 7.568-11.38zM0 195.785c0 1.054.21 1.686.841 2.318.63.633 1.472 1.054 2.733 1.054h3.154c1.261 0 2.102-.421 2.733-1.054.42-.632.84-1.264.84-2.318v-31.612h.211s17.66 31.191 18.29 32.244c1.052 1.686 2.734 2.951 5.047 2.951h5.466c1.261 0 2.102-.422 2.733-1.054.42-.632.84-1.264.84-2.318v-39.832h70.641c.631 0 1.262-.21 1.682-.632.421-.421.631-1.054.631-1.686v-2.95c0-.843-.21-1.265-.631-1.686-.42-.422-1.051-.633-1.682-.633H35.951c-1.261 0-2.102.422-2.733 1.054-.42.632-.841 1.265-.841 2.318v30.98h-.21s-16.82-30.137-17.66-31.612c-.631-1.054-1.262-1.686-2.103-2.107-.84-.422-1.682-.843-3.364-.843H3.364c-1.262 0-2.103.421-2.733 1.053-.42.633-.631 1.265-.631 2.529z"/><path d="M81.783 182.929c.631-.632.841-1.264.841-2.739 0-4.426-1.471-9.062-4.415-12.645s-7.568-6.112-14.086-6.112c-11.773 0-18.5 9.273-18.5 18.967 0 10.327 7.147 19.6 18.5 19.6 5.677 0 11.353-2.107 14.507-5.901 1.471-1.686 2.523-4.004 2.523-5.269 0-.421 0-.843-.42-1.264-.211-.422-.632-.632-1.473-.632h-5.466c-1.051 0-1.892.421-2.312 1.264-1.682 2.318-3.995 3.583-7.359 3.583-5.046 0-8.41-3.794-8.62-8.219H79.26c1.262 0 1.893-.211 2.523-.633m-26.07-6.533c.421-4.215 3.575-7.376 8.41-7.376 4.836 0 7.99 3.161 8.41 7.376zM12.193 39.41c0 .21.21.632.42.632.211 0 .421 0 .842-.21l12.404-4.215-.63-2.108c-5.046.843-8.83 2.108-13.036 5.48zM19.762 14.963c-1.892-1.475-4.205-2.529-6.727-3.583l-.42-.21c-.421 0-.632.21-.632.421 0 .21 0 .422.42.632 2.944 2.53 8.62 7.377 10.513 8.852l1.471-1.686c-1.471-1.686-3.153-3.161-4.625-4.426"/></g><defs><clipPath id="a"><path fill="#fff" d="M0 0h193v200H0z"/></clipPath></defs></svg>