<svg xmlns="http://www.w3.org/2000/svg" width="740" height="200" fill="none"><g clip-path="url(#a)"><path fill="#fff" d="M700.455 95.227 740 200c-11.591-1.591-23.409-3.864-35.227-5.682L682.5 136.364l-22.955 53.181c-11.136-1.818-22.272-2.5-33.636-3.863l40.227-91.591L629.773 0h33.863l20.455 52.5L705.909 0H740zM603.182 0H572.5v181.591c10 .682 20.455 1.136 30.682 2.273zm-57.046 179.545c-27.954-1.818-55.909-3.636-84.318-4.09V0h31.137v145.909c17.954.455 35.909 1.818 53.181 2.727zM428.409 71.136v31.137h-42.727v71.136h-30.909V0h87.5v31.136h-56.591V70.91h42.727zm-126.136-40V175c-10.455 0-21.137 0-31.364.455V31.136h-32.273V0h96.137v31.136zM205 103.864c-13.636 0-30 0-41.591.681v46.364c18.409-1.364 36.591-2.727 55.227-3.409v30l-86.363 6.818V0h86.363v31.136h-55.227v42.046c12.046 0 30.682-.682 41.591-.682zm-173.182-17.5v109.091C20.682 196.818 10.682 198.409 0 200V0h29.773l40.682 113.636V0h31.363v187.045c-11.136 1.819-22.272 2.5-34.09 4.091z"/></g><defs><clipPath id="a"><path fill="#fff" d="M0 0h740v200H0z"/></clipPath></defs></svg>