<svg xmlns="http://www.w3.org/2000/svg" width="255" height="200" fill="none"><g clip-path="url(#a)"><mask id="b" width="255" height="200" x="0" y="0" maskUnits="userSpaceOnUse" style="mask-type:luminance"><path fill="#fff" d="M255 200V0H0v200z"/></mask><g mask="url(#b)"><path fill="#fff" fill-rule="evenodd" d="M19.14 170.162C-.97 164.397-4.323 152.41 4.84 145.503c8.477-6.396 22.895-11.188 22.895-11.188l59.543-21.518v24.526l-42.847 15.59c-7.58 2.767-8.737 6.671-2.58 8.716 6.154 2.048 17.288 1.464 24.875-1.302l20.552-7.58v21.942c-1.3.244-2.75.48-4.098.702-20.558 3.422-42.458 1.995-64.041-5.229m125.619 2.553 66.81-24.189c7.588-2.768 8.745-6.669 2.588-8.717-6.158-2.047-17.296-1.465-24.879 1.305l-44.519 15.939v-25.364l2.573-.886s12.861-4.626 30.949-6.656c18.087-2.026 40.24.273 57.623 6.967 19.601 6.296 21.806 15.569 16.823 21.96-4.98 6.386-17.185 10.938-17.185 10.938l-90.783 33.145zm7.812-156.776c35.178 12.267 47.099 27.546 47.099 61.963 0 33.542-20.377 46.259-46.27 33.558V48.95c0-7.328-1.322-14.08-8.1-16-5.194-1.694-8.415 3.212-8.415 10.541V200l-41.537-13.4V0c17.665 3.329 43.391 11.201 57.223 15.939m92.5 169.827c0 .528-.137.896-.411 1.086-.301.207-.718.311-1.243.311h-2.622v-2.711h2.778q.581 0 .91.167c.396.201.588.576.588 1.147m1.88 6.189c-.128-.056-.217-.195-.278-.424-.042-.153-.069-.404-.076-.731l-.048-1.237c-.019-.584-.13-1.002-.339-1.273-.139-.188-.337-.333-.564-.472.288-.196.534-.424.714-.703.244-.389.372-.877.372-1.467 0-1.14-.471-1.933-1.398-2.365-.474-.215-1.076-.327-1.788-.327h-4.392v9.611h1.641v-3.937h2.58c.465 0 .807.049 1.009.147q.507.25.537 1.022l.076 1.537q.025.55.069.758.04.217.116.362l.061.111h1.833v-.556zm-11.249-4.012c0-1.919.737-3.721 2.07-5.076a6.96 6.96 0 0 1 4.994-2.107c1.889 0 3.661.75 4.994 2.107a7.18 7.18 0 0 1 2.069 5.076c0 3.956-3.17 7.176-7.063 7.176a6.96 6.96 0 0 1-4.994-2.1 7.2 7.2 0 0 1-2.07-5.076m7.064 8.63c2.267 0 4.4-.898 6.003-2.532a8.63 8.63 0 0 0 2.487-6.098 8.65 8.65 0 0 0-2.487-6.105 8.37 8.37 0 0 0-6.003-2.524c-4.678 0-8.49 3.865-8.49 8.629 0 2.301.883 4.471 2.487 6.098a8.36 8.36 0 0 0 6.003 2.532" clip-rule="evenodd"/></g></g><defs><clipPath id="a"><path fill="#fff" d="M0 0h255v200H0z"/></clipPath></defs></svg>