<svg xmlns="http://www.w3.org/2000/svg" width="404" height="200" fill="none"><path fill="#fff" d="M217.582 1.313c-1.314.188-2.628 4.878-5.257 7.505-1.877 1.876-4.13 1.876-5.444 3.94-.563.75-.188 2.251-.751 3.565-1.126 2.814-4.693 3.19-4.693 6.003 0 3.19 3.191 3.94 5.82 6.192 2.065 1.876 2.44 3.19 4.693 3.94 2.065.75 5.256-1.501 8.072-.75 2.441.75 4.694 1.313 5.257 3.564s0 5.629-2.816 5.253c-1.127 0-5.257-1.5-10.138-1.125-6.383.75-13.329 2.626-13.892 9.568-.188 3.94 4.506 8.255 8.824 7.505 3.191-.563 1.501-4.503 3.379-6.192 2.44-2.251 15.206 8.068 27.221 8.068 5.069 0 8.823-1.313 12.578-5.253.188-.188.751-1.126 1.314-1.126s1.314.563 1.502.75c9.762 7.693 17.084 23.077 52.377 23.265 5.069 0 10.701 2.251 15.394 6.567 4.13 3.94 6.571 9.756 8.824 15.76 3.754 9.005 9.95 17.823 19.712 27.391.563.563 8.448 6.755 9.199 6.942 0 0 .75 1.501.563 2.252-.188 6.003-1.127 22.889 11.827 23.64 3.191.187 2.44-2.064 2.44-3.565 0-2.814-.563-6.004 1.127-8.818 2.065-4.128-4.506-6.004-4.506-15.01.188-6.754-5.444-5.628-8.448-10.694-1.502-2.814-3.191-4.69-3.191-8.255.563-20.45-4.506-33.959-6.759-37.148-1.877-2.627-3.754-3.377-1.877-4.69 10.701-6.942 13.141-13.509 13.141-13.509 5.82-13.133 10.701-25.328 17.835-30.582 1.314-1.125 5.069-3.94 7.322-4.878 6.57-3.19 9.949-4.878 11.827-6.754 2.816-2.814 5.444-9.006 2.628-12.758-3.755-4.69-9.762-1.126-12.578.75-19.712 11.633-22.528 31.896-29.286 43.528-5.445 9.38-14.08 16.322-21.965 16.885-6.008.563-12.39-.75-18.586-3.564-15.394-6.755-23.842-15.197-25.907-16.886-4.13-3.19-36.232-34.522-62.327-35.835 0 0-3.191-6.566-3.942-6.566-1.878-.188-3.943 3.94-5.257 4.502-1.689 1.314-3.942-3.752-5.256-3.377M103.065 187.805c-2.44 0-4.318-2.064-4.505-4.503v-80.675H71.526v88.93c0 4.503 3.755 8.068 7.885 8.068h46.745c4.506 0 7.885-3.565 7.885-8.068v-88.743h-26.47v80.676c-.188 2.439-2.065 4.315-4.506 4.315m89.736-84.991h-40.738c-4.693 0-8.635 3.94-8.635 8.631v88.18h26.658v-80.676c0-2.626 2.065-4.503 4.505-4.503 2.628 0 4.506 1.877 4.506 4.503v80.863h26.658v-81.238c0-2.251 2.065-4.503 4.505-4.503s4.506 2.064 4.506 4.503v80.863h26.658v-88.18c0-4.878-3.943-8.63-8.636-8.63h-39.987zm-139.11 72.42H26.658v24.391H0v-96.811h54.067c4.693 0 8.636 3.94 8.636 8.818v54.972c0 4.878-3.943 8.63-9.012 8.63m-17.834-56.285c0-2.626-2.065-4.69-4.506-4.69h-4.505v48.968h4.505c2.44 0 4.506-1.876 4.506-4.69zM284.415 200v-24.203h-9.199V200H248.37v-87.805c0-4.878 3.942-8.443 8.636-8.443h45.243c4.693 0 8.636 3.94 8.636 8.443V200zm0-36.023V119.7c0-2.252-2.066-4.315-4.506-4.315s-4.506 2.063-4.506 4.315v44.465zM335.29 198.874c-7.321 0-13.141-5.816-13.141-13.133s5.82-13.133 13.141-13.133c7.322 0 13.141 5.816 13.141 13.133s-5.819 13.133-13.141 13.133m0-24.202c-6.195 0-11.076 5.065-11.076 11.069s5.069 11.069 11.076 11.069 11.076-5.065 11.076-11.069-4.881-11.069-11.076-11.069"/><path fill="#fff" d="M331.348 180.3h4.318c.938 0 1.689.188 2.252.751.751.562 1.127 1.313 1.127 2.439 0 1.501-.751 2.626-2.065 3.189l2.628 5.066h-2.065l-2.253-4.878h-2.065v4.878h-1.69V180.3zm1.689 5.066h2.629c.563 0 1.126-.188 1.501-.563.376-.375.564-.75.564-1.313s-.188-1.126-.564-1.314c-.375-.187-.751-.375-1.314-.375h-2.628v3.565z"/></svg>