<svg xmlns="http://www.w3.org/2000/svg" width="1136" height="200" fill="none"><g clip-path="url(#a)"><path fill="#fff" d="M404.643 200c-41.123 0-79.293-12.273-104.739-35.227-18.403-16.591-28.854-40.228-28.627-65 0-24.546 10.224-48.182 28.627-64.773 23.629-21.364 65.434-35 104.739-35 43.623 0 78.384 10.91 104.967 35.227 18.176 16.591 28.4 40.228 28.172 64.773s-10.224 47.955-28.172 65c-24.765 22.955-63.616 35-104.967 35v-26.364c21.811 0 42.032-7.5 56.346-21.591 14.313-14.09 20.675-31.136 20.675-52.272 0-20.227-7.043-38.864-20.675-52.273-13.859-13.864-34.762-21.59-56.346-21.59s-42.259 7.726-56.345 21.59c-13.405 13.41-20.448 32.273-20.448 52.273-.455 19.545 7.043 38.182 20.448 52.272 13.859 13.864 34.761 21.591 56.345 21.591zM104.058 0c-22.039 0-47.03 4.09-68.16 13.636C16.13 22.5 0 36.591 0 60c0 12.273 4.544 24.318 13.178 33.182 5.68 5.227 14.995 14.318 38.85 19.545 10.68 2.273 33.626 5.909 56.574 8.409 22.947 2.5 44.985 4.546 54.073 7.046 7.271 1.818 19.312 4.318 19.312 17.954s-12.723 17.728-14.995 18.637-17.494 7.954-45.213 7.954c-18.176-.454-36.352-3.636-53.846-9.318-10.224-3.636-21.13-8.636-31.127-20.909-4.09-5.682-6.361-12.727-6.588-19.773H5.226v70h27.718v-9.545c0-2.273 1.818-3.864 3.862-4.091q1.023 0 2.045.682c13.178 5.682 26.583 10 40.669 13.182 14.54 2.954 24.083 5.227 42.032 5.227 19.085.454 38.17-2.273 56.573-7.955 12.041-3.409 23.629-8.863 33.625-16.591 11.36-8.863 18.176-22.5 17.949-36.818 0-13.409-5.225-26.591-14.541-36.136-5.225-5-11.36-9.318-17.948-12.273-7.044-3.182-14.541-5.909-22.039-7.727-14.313-3.636-46.803-7.955-62.253-9.546-16.13-1.59-44.304-4.09-55.664-7.5-3.408-1.136-10.45-4.318-10.45-12.5 0-5.681 3.18-10.681 9.542-14.545 9.996-6.364 30.217-10.227 51.12-10.227 20.22-.228 40.441 3.636 59.299 11.59 4.998 2.273 9.769 5 14.086 8.41 7.043 5.909 11.815 14.09 13.859 23.182h22.493V8.864h-24.992v7.045c0 2.273-2.272 5.227-6.816 2.727C174.49 12.955 142.682.227 104.058 0m548.46 11.136 122.234 110.228-1.136-74.318c-.227-9.773-1.818-13.864-12.496-13.864h-22.947V11.136h104.512V33.41h-22.493c-10.678 0-11.36 3.41-11.587 13.864l1.817 141.818h-35.67L634.115 63.409V152.5c0 9.773.455 14.318 10.451 14.318h24.992v22.273H567.091v-22.273h24.083c8.861 0 8.634-8.636 8.634-14.773V47.955c0-6.819-.909-14.546-14.995-14.546h-19.539V11.136zm309.447 155.682c2.045 0 4.089-.227 6.134-.454 2.045-.682 3.863-2.273 4.771-4.319.228-1.59.455-3.181.455-4.772v-35c0-1.137 0-1.137-1.591-2.955s-64.07-72.727-66.796-75.909c-3.636-3.864-9.77-9.773-19.312-9.773h-21.584v-22.5h122.46V33.41h-14.768c-3.408 0-5.68 3.182-2.726 6.818 0 0 41.122 49.319 41.582 49.773.45.454.68.682 1.13.227.46-.454 42.26-49.545 42.49-50 1.36-1.818 1.13-4.545-.91-5.909a4.38 4.38 0 0 0-2.73-.909h-15.22V11.136H1136V33.41h-22.49c-8.18 0-11.36 1.591-17.5 8.41l-67.7 77.045c-.68.909-.91 2.045-.91 3.181v35c0 1.591.23 3.182.45 4.773.91 2.046 2.73 3.637 4.77 4.318 2.05.228 4.09.455 6.14.455h22.95v22.273H939.926v-22.273z"/></g><defs><clipPath id="a"><path fill="#fff" d="M0 0h1136v200H0z"/></clipPath></defs></svg>