<svg width="577" height="200" viewBox="0 0 577 200" fill="none" xmlns="http://www.w3.org/2000/svg">
<path d="M386.189 44.0002H239.189L251.391 0H398.397L386.189 44.0002Z" fill="white"/>
<path d="M286.581 118.324H365.581L377.782 74.3243H230.783L195.928 200H263.927L286.581 118.324Z" fill="white"/>
<path fill-rule="evenodd" clip-rule="evenodd" d="M453.301 154.51C452.501 154.101 451.795 153.531 451.226 152.837C450.657 152.142 450.238 151.337 449.994 150.473C449.872 149.976 449.824 149.464 449.85 148.953C449.875 148.459 449.954 147.97 450.085 147.493L476.692 51.4729C477.452 48.6754 478.805 46.7673 480.751 45.6878C482.698 44.6083 486.012 44.0534 490.778 44.0534H564.198L576.361 0.0532227H473.446C454.684 0.0532227 441.609 2.28058 433.992 6.49967C426.375 10.7188 421.068 18.2219 418.028 29.2371L380.056 166.103C379.501 168.056 379.167 170.065 379.06 172.093C378.961 174.138 379.158 176.186 379.645 178.175C381.401 184.849 385.727 190.133 392.774 194.139C399.692 198.008 408.373 199.992 418.689 199.992H526.447L538.61 156H459.876C457.586 156.065 455.316 155.542 453.286 154.479" fill="white"/>
<path fill-rule="evenodd" clip-rule="evenodd" d="M47.0886 0L1.02074 166.103C0.465924 168.056 0.131886 170.065 0.0248892 172.093C-0.0742054 174.138 0.122944 176.186 0.610232 178.175C2.36628 184.849 6.69181 190.133 13.7388 194.139C20.6566 198.008 29.3305 199.992 39.6539 199.992H116.297C135.059 199.992 148.126 197.765 155.751 193.546C163.376 189.327 168.674 181.824 171.715 170.808L219.091 0.0151956H151.03L109.82 148.573C109.06 151.37 107.707 153.286 105.768 154.358C103.83 155.43 100.5 155.992 95.7336 155.992H84.0266C81.7357 156.058 79.4664 155.534 77.4356 154.472C76.6285 154.062 75.9147 153.49 75.3391 152.792C74.7635 152.093 74.3385 151.283 74.0908 150.412C73.9727 149.915 73.9241 149.403 73.9464 148.892C73.9715 148.398 74.0505 147.909 74.182 147.432L115.05 0H47.0886Z" fill="white"/>
</svg>
