<svg width="391" height="200" viewBox="0 0 391 200" fill="none" xmlns="http://www.w3.org/2000/svg">
<path d="M374.562 191.12C374.562 186.889 377.579 183.641 381.525 183.641C385.439 183.641 388.478 186.888 388.478 191.12C388.478 195.432 385.439 198.694 381.525 198.694C377.579 198.694 374.562 195.432 374.562 191.12ZM373.026 191.12C373.026 196.181 376.898 199.999 381.526 199.999C386.145 199.999 390.017 196.181 390.017 191.12C390.017 186.139 386.145 182.336 381.526 182.336C376.898 182.335 373.026 186.139 373.026 191.12ZM378.228 196.308H379.763V191.869H381.388L384.079 196.308H385.734L382.908 191.757C384.374 191.582 385.508 190.801 385.508 188.939C385.508 186.966 384.403 185.995 382.051 185.995H378.226V196.308H378.228ZM379.765 187.3H381.805C382.841 187.3 383.975 187.506 383.975 188.876C383.975 190.499 382.72 190.562 381.373 190.562H379.765V187.3Z" fill="black"/>
<path d="M223.71 0.0169133C238.485 7.97309 247.06 23.2502 247.06 41.9638C247.06 57.6383 239.287 68.1901 227.553 77.3091C227.553 77.3091 218.775 84.4215 213.99 87.8427L249.744 132.336C250.81 130.808 265.44 116.772 265.44 116.772H358.361V78.5167H265.29V44.1425H364.561L364.606 0.0309055L223.71 0.0169133ZM283.479 151.576L273.355 162.174L302.048 198.503L364.561 198.584V151.591L283.479 151.576ZM171.777 0.0169133L75.5456 0.00012207L0 198.6L63.8876 198.503L76.241 161.728L136.1 161.744C133.953 154.934 132.833 147.313 132.833 138.861C132.833 112.922 150.396 96.1179 166.887 84.4201C159.175 75.0157 148.008 60.7741 148.008 41.3916C148.007 22.8024 156.559 7.83037 171.777 0.0169133ZM85.9192 117.743L108.08 48.9657L129.552 117.743H85.9192Z" fill="black"/>
<path d="M197.695 28.6428C189.386 28.6428 185.107 34.356 185.107 41.8994C185.107 47.8504 189.802 53.5482 195.139 60.1681C197.264 58.7996 201.537 55.6009 201.537 55.6009C206.45 51.9405 210.285 47.5972 210.285 41.8994C210.285 34.356 205.582 28.6428 197.695 28.6428Z" fill="black"/>
<path d="M187.633 113.748C178.945 120.879 172.738 129.2 172.738 140.341C172.738 153.184 184.398 166.631 196.94 167.569C205.468 168.205 214.42 164.8 221.141 158.499" fill="black"/>
</svg>
