<svg width="520" height="200" viewBox="0 0 520 200" fill="none" xmlns="http://www.w3.org/2000/svg">
<path fill-rule="evenodd" clip-rule="evenodd" d="M38.0232 130.982C65.2767 117.802 73.4527 161.905 55.4237 173.311C39.1762 183.551 22.2482 165.352 28.747 142.236C30.7912 134.987 33.4633 133.213 38.0232 131.033V130.982ZM63.4161 113.265C52.2004 101.555 31.5248 101.935 17.8457 111.872C-5.63417 129.006 -6.4728 175.036 18.4759 192.779C35.8238 205.097 49.9459 199.306 65.3545 190.993L65.5025 198.407L91.0264 198.149L90.8196 106.14L65.5052 106.341C64.8248 107.76 65.1381 112.881 64.7712 113.743C62.5703 118.305 66.0106 114.836 63.4161 113.265Z" fill="black"/>
<path d="M63.7656 115.733C63.884 115.675 64.0026 115.847 64.115 115.818C64.1742 115.818 64.2039 115.761 64.2631 115.733C64.3518 115.704 64.4108 115.733 64.4996 115.733C64.7067 115.761 64.7362 115.818 64.6179 116.056C64.5972 116.085 64.3811 116.085 64.3515 116.085C64.174 116.085 64.2929 116.114 64.1746 115.97C64.1568 115.942 64.115 115.942 64.115 115.942C64.1002 115.884 64.1739 115.798 64.2035 115.769C64.2242 115.712 64.2276 115.655 64.2631 115.627C64.3222 115.569 64.6028 115.598 64.6738 115.627L64.6449 115.924C64.5562 115.924 64.5556 115.895 64.4373 115.924C64.4077 115.926 64.3784 115.953 64.3488 115.924C64.2897 115.895 64.2601 115.867 64.2306 115.838C64.1714 115.838 64.1125 115.839 64.1421 115.867C64.1391 115.839 64.1539 115.867 64.1421 115.867C64.1539 115.869 64.1829 115.896 64.1917 115.896C64.2184 115.867 64.2217 115.838 64.2513 115.81C64.2661 115.81 64.2804 115.812 64.31 115.81C64.4875 115.81 64.2894 115.812 64.4581 115.81C64.4581 115.811 64.4669 115.809 64.4581 115.81C64.4729 116.171 64.3959 115.981 64.5438 116.067C64.5557 116.067 64.52 116.067 64.514 116.067C64.4253 116.067 64.3663 116.095 64.2775 116.067C64.2183 116.038 64.1886 115.98 64.1295 115.98C64.0111 115.951 63.8934 116.124 63.781 116.067V115.766L63.7656 115.733Z" fill="black"/>
<path d="M64.1421 115.867C64.1125 115.839 64.1714 115.838 64.2306 115.838C64.2601 115.867 64.2897 115.895 64.3488 115.924C64.3784 115.953 64.4077 115.926 64.4373 115.924C64.5556 115.895 64.5562 115.924 64.6449 115.924L64.6738 115.627C64.6028 115.598 64.3222 115.569 64.2631 115.627C64.2276 115.655 64.2242 115.712 64.2035 115.769C64.1739 115.798 64.1002 115.884 64.115 115.942C64.115 115.942 64.1568 115.942 64.1746 115.97C64.2929 116.114 64.174 116.085 64.3515 116.085C64.3811 116.085 64.5972 116.085 64.6179 116.056C64.7362 115.818 64.7067 115.761 64.4996 115.733C64.4108 115.733 64.3518 115.704 64.2631 115.733C64.2039 115.761 64.1742 115.818 64.115 115.818C64.0026 115.847 63.884 115.675 63.7656 115.733L63.781 115.766V116.067C63.8934 116.124 64.0111 115.951 64.1295 115.98C64.1886 115.98 64.2183 116.038 64.2775 116.067C64.3663 116.095 64.4253 116.067 64.514 116.067C64.52 116.067 64.5557 116.067 64.5438 116.067C64.3959 115.981 64.4729 116.171 64.4581 115.81M64.1421 115.867C64.1539 115.867 64.1391 115.839 64.1421 115.867ZM64.1421 115.867C64.1539 115.869 64.1829 115.896 64.1917 115.896C64.2184 115.867 64.2217 115.838 64.2513 115.81C64.2661 115.81 64.2804 115.812 64.31 115.81C64.4875 115.81 64.2894 115.812 64.4581 115.81M64.4581 115.81C64.4669 115.809 64.4581 115.811 64.4581 115.81Z" stroke="#273386" stroke-width="0.461701"/>
<path d="M64.0113 115.128C64.0409 115.128 64.0702 115.157 64.0998 115.186C64.1146 115.189 64.3372 115.189 64.3372 115.189C64.4555 115.189 64.5735 115.189 64.683 115.189C64.8013 115.19 64.86 115.16 64.7417 115.389C64.7387 115.389 64.5643 115.389 64.5051 115.389C64.3868 115.446 64.2985 115.245 64.1801 115.245C64.1505 115.248 64.1212 115.274 64.0917 115.274C64.0621 115.274 64.0317 115.303 63.9725 115.303C63.8246 115.188 63.7363 114.979 63.9138 114.85C63.9434 114.821 64.0025 114.822 64.0321 114.793C64.0617 114.793 64.1208 114.764 64.1503 114.791C64.1799 114.82 64.2683 114.963 64.3571 114.906C64.505 114.82 64.3874 114.734 64.5945 114.791C64.8608 114.906 64.535 115.147 64.4167 115.081C64.3871 115.052 64.3578 114.995 64.3282 114.966C64.2394 114.909 64.1212 115.081 64.0917 115.11C63.8846 115.11 63.6767 114.937 63.8542 114.731C63.8779 114.702 63.914 114.703 63.9436 114.674C63.9702 114.674 64.1505 114.617 64.1801 114.617C64.2393 114.645 64.2394 114.76 64.3282 114.731C64.3874 114.731 64.3871 114.616 64.4167 114.588C64.4374 114.588 64.6236 114.588 64.6532 114.588C64.9194 114.588 65.162 114.892 64.7715 114.995C64.7123 114.995 64.4229 115.024 64.4022 114.966C64.2543 114.677 64.4311 114.88 64.3778 114.823C64.3808 114.766 64.357 114.708 64.3896 114.679C64.4162 114.651 64.7566 114.708 64.804 114.708L64.7715 114.995C64.7419 114.995 64.4787 114.975 64.4492 114.946C64.4225 114.918 64.4074 114.88 64.3778 114.823C64.4074 114.88 64.3663 114.774 64.4492 114.688C64.4669 114.66 64.6563 114.717 64.7155 114.688C64.8042 114.69 64.6857 114.688 64.6857 114.832C64.686 114.86 64.7157 114.889 64.7453 114.917C64.7453 114.919 64.7468 114.92 64.7453 114.917C64.7157 114.889 64.6945 114.889 64.6649 114.889C64.6501 114.887 64.488 114.86 64.488 114.86C64.4288 114.831 64.4289 114.716 64.3697 114.716C64.3106 114.716 64.3395 114.831 64.2803 114.889C64.2508 114.917 64.1917 114.886 64.1621 114.917C64.1029 114.917 64.2215 114.773 64.0736 114.773C64.0914 114.773 64.1208 114.791 64.1503 114.791C64.1799 114.82 64.2683 114.963 64.3571 114.906C64.3867 114.877 64.4015 114.83 64.4311 114.773C64.4903 114.716 64.9256 114.773 64.4907 115.031C64.5203 115.031 64.4877 115.033 64.4699 115.003C64.4403 114.946 64.4399 114.888 64.4103 114.86C64.3216 114.774 64.263 114.974 64.2334 115.003C64.2186 115.032 64.1738 115.031 64.1738 115.031C64.1797 115.037 64.1679 115.03 64.1738 115.031C64.1723 115.031 64.1241 114.885 64.1567 115C64.1537 115.114 64.1745 115.246 64.3372 115.189C64.3668 115.189 64.3934 115.143 64.423 115.143C64.4526 115.143 64.4819 115.143 64.5115 115.143C64.5706 115.143 64.748 115.143 64.748 115.143C64.8663 115.372 64.8067 115.344 64.6884 115.344C64.5701 115.344 64.4521 115.344 64.3426 115.344C64.3367 115.344 64.1061 115.344 64.1061 115.347C64.0765 115.347 64.0472 115.375 64.0176 115.404L64.0113 115.128Z" fill="black"/>
<path d="M64.3372 115.189C64.3372 115.189 64.1146 115.189 64.0998 115.186C64.0702 115.157 64.0409 115.128 64.0113 115.128L64.0176 115.404C64.0472 115.375 64.0765 115.347 64.1061 115.347C64.1061 115.344 64.3367 115.344 64.3426 115.344C64.4521 115.344 64.5701 115.344 64.6884 115.344C64.8067 115.344 64.8663 115.372 64.748 115.143C64.748 115.143 64.5706 115.143 64.5115 115.143C64.4819 115.143 64.4526 115.143 64.423 115.143C64.3934 115.143 64.3668 115.189 64.3372 115.189ZM64.3372 115.189C64.4555 115.189 64.5735 115.189 64.683 115.189C64.8013 115.19 64.86 115.16 64.7417 115.389C64.7387 115.389 64.5643 115.389 64.5051 115.389C64.3868 115.446 64.2985 115.245 64.1801 115.245C64.1505 115.248 64.1212 115.274 64.0917 115.274C64.0621 115.274 64.0317 115.303 63.9725 115.303C63.8246 115.188 63.7363 114.979 63.9138 114.85C63.9434 114.821 64.0025 114.822 64.0321 114.793C64.0617 114.793 64.1208 114.764 64.1503 114.791M64.3372 115.189C64.1745 115.246 64.1537 115.114 64.1567 115C64.1241 114.885 64.1723 115.031 64.1738 115.031M64.1503 114.791C64.1799 114.82 64.2683 114.963 64.3571 114.906M64.1503 114.791C64.1208 114.791 64.0914 114.773 64.0736 114.773C64.2215 114.773 64.1029 114.917 64.1621 114.917C64.1917 114.886 64.2508 114.917 64.2803 114.889C64.3395 114.831 64.3106 114.716 64.3697 114.716C64.4289 114.716 64.4288 114.831 64.488 114.86C64.488 114.86 64.6501 114.887 64.6649 114.889C64.6945 114.889 64.7157 114.889 64.7453 114.917M64.3571 114.906C64.505 114.82 64.3874 114.734 64.5945 114.791C64.8608 114.906 64.535 115.147 64.4167 115.081C64.3871 115.052 64.3578 114.995 64.3282 114.966C64.2394 114.909 64.1212 115.081 64.0917 115.11C63.8846 115.11 63.6767 114.937 63.8542 114.731C63.8779 114.702 63.914 114.703 63.9436 114.674C63.9702 114.674 64.1505 114.617 64.1801 114.617C64.2393 114.645 64.2394 114.76 64.3282 114.731C64.3874 114.731 64.3871 114.616 64.4167 114.588C64.4374 114.588 64.6236 114.588 64.6532 114.588C64.9194 114.588 65.162 114.892 64.7715 114.995M64.3571 114.906C64.3867 114.877 64.4015 114.83 64.4311 114.773C64.4903 114.716 64.9256 114.773 64.4907 115.031C64.5203 115.031 64.4877 115.033 64.4699 115.003C64.4403 114.946 64.4399 114.888 64.4103 114.86C64.3216 114.774 64.263 114.974 64.2334 115.003C64.2186 115.032 64.1738 115.031 64.1738 115.031M64.7715 114.995C64.7123 114.995 64.4229 115.024 64.4022 114.966C64.2543 114.677 64.4311 114.88 64.3778 114.823M64.7715 114.995L64.804 114.708C64.7566 114.708 64.4162 114.651 64.3896 114.679C64.357 114.708 64.3808 114.766 64.3778 114.823M64.7715 114.995C64.7419 114.995 64.4787 114.975 64.4492 114.946C64.4225 114.918 64.4074 114.88 64.3778 114.823M64.3778 114.823C64.4074 114.88 64.3663 114.774 64.4492 114.688C64.4669 114.66 64.6563 114.717 64.7155 114.688C64.8042 114.69 64.6857 114.688 64.6857 114.832C64.686 114.86 64.7157 114.889 64.7453 114.917M64.7453 114.917C64.7468 114.92 64.7453 114.919 64.7453 114.917ZM64.1738 115.031C64.1679 115.03 64.1797 115.037 64.1738 115.031Z" stroke="#273386" stroke-width="0.461701"/>
<path fill-rule="evenodd" clip-rule="evenodd" d="M129.325 198.202C131.213 182.284 120.887 121.807 145.992 128.498C165.646 133.77 145.102 181.575 161.715 198.405L188.339 197.897C179.482 181.118 181.683 183.043 181.631 161.499C181.631 148.927 179.22 128.295 194.996 128.295C220.101 128.295 194.525 181.726 215.331 198.353L242.113 198.095C224.817 180.352 239.335 150.241 231.683 124.336C228.801 114.603 220.153 105.935 207.522 104.718C190.122 103.044 185.981 108.621 176.495 116.226C170.31 111.663 167.428 105.428 154.168 104.668C142.061 103.957 133.816 107.686 128.208 113.871L128.001 107.572C127.883 106.913 127.696 106.65 127.383 106.194L102.807 106.544L103.437 198.45L129.327 198.25L129.325 198.202Z" fill="black"/>
<path fill-rule="evenodd" clip-rule="evenodd" d="M284.091 131.233C311.659 116.684 318.943 164.894 300.233 174.019C286.344 180.761 276.858 170.064 274.081 160.382C271.249 150.598 272.98 137.113 284.091 131.233ZM273.168 192.203C285.475 201.701 309.143 202.052 321.407 190.951C347.036 167.632 342.057 125.911 318.158 110.398C299.919 98.5868 286.973 106.141 274.081 113.643L273.873 73.4939L247.039 73.9496L247.719 198.453L272.495 198.596C273.179 192.167 272.504 198.653 272.496 198.682L273.168 192.203Z" fill="black"/>
<path fill-rule="evenodd" clip-rule="evenodd" d="M372.141 142.641C376.282 120.437 400.81 120.843 403.955 142.699L372.141 142.641ZM426.439 168.748C408.882 174.882 379.007 186.744 372.089 161.854L430.736 160.79C431.89 134.582 423.766 114.558 404.636 107.056C354.164 87.2853 323.137 158.712 360.559 189.077C376.282 201.852 406.68 204.286 423.137 190.801C425.758 185.579 426.282 176.454 426.387 168.748H426.439Z" fill="black"/>
<path fill-rule="evenodd" clip-rule="evenodd" d="M519.887 106.243L491.585 106.75L473.399 166.416L455.788 106.192L427.802 106.25C428.692 114.108 455.37 191.617 459.353 198.359L488.807 198.503L519.939 106.292L519.887 106.243Z" fill="black"/>
<path d="M403.974 22.4812C403.952 22.481 403.94 22.4829 403.935 22.4879C403.255 23.1933 386.753 47.847 386.883 47.9654C386.975 48.0499 388.327 48.5109 389.886 48.9898C391.446 49.4686 392.875 49.9075 393.063 49.9652C393.315 50.0428 393.8 49.438 394.926 47.6458C395.763 46.3123 396.517 45.1788 396.601 45.1271C396.74 45.0411 405.146 47.5972 405.312 47.7757C405.352 47.8184 405.295 49.1708 405.201 50.7811C405.1 52.3914 405.039 53.7269 405.066 53.7487C405.093 53.7706 406.627 54.268 408.475 54.8538C410.323 55.4396 411.944 55.9237 412.076 55.9296C412.374 55.9431 412.469 53.8706 412.912 37.6995C413.099 30.8619 413.167 25.369 413.066 25.2728C412.751 24.9718 404.625 22.4877 403.974 22.4812ZM406.421 29.766C406.47 29.8146 406.347 32.4862 406.148 35.7032C405.95 38.9202 405.731 41.6121 405.661 41.6851C405.495 41.8604 399.973 40.134 399.97 39.9056C399.97 39.6448 406.317 29.6625 406.421 29.766Z" fill="black"/>
<path d="M118.5 51.9616C113.374 51.2712 109.109 47.3488 107.181 41.5521C106.085 38.255 105.856 35.6627 106.408 32.7791C107.616 26.4676 113.281 21.9646 121.127 21.079C124.367 20.7134 124.29 20.6947 124.768 21.9649C124.996 22.5714 125.42 23.6937 125.709 24.4589L126.235 25.8501L124.073 26.0934C118.883 26.6774 115.744 28.2956 114.376 31.0926C112.736 34.4448 114.057 40.3476 117.149 43.4779C118.266 44.6086 118.624 44.8329 119.961 45.2392C121.834 45.8079 123.468 45.7248 125.963 44.934C127.944 44.3062 129.774 43.2417 131.512 41.7062L132.765 40.6L132.904 41.343C133.374 43.8462 132.369 46.7371 130.416 48.5018C127.751 50.9089 122.344 52.4792 118.5 51.9616Z" fill="black"/>
<path d="M374.725 44.629C373.029 44.2077 371.591 43.8103 371.528 43.7461C371.418 43.6336 378.205 15.2496 378.385 15.0699C378.486 14.9694 385.015 16.5509 385.18 16.7157C385.238 16.7752 383.736 23.2385 381.838 31.0786C379.399 41.1619 378.304 45.3423 378.099 45.3642C377.939 45.3811 376.421 45.0503 374.725 44.629Z" fill="black"/>
<path d="M142.374 30.7132C140.435 22.8455 138.884 16.3719 138.929 16.3275C139.152 16.104 159.556 11.2138 159.685 11.3529C159.968 11.6578 160.98 16.4851 160.797 16.6555C160.696 16.7486 157.614 17.5543 153.946 18.4458C149.085 19.6273 147.277 20.1477 147.277 20.3651C147.277 20.6546 148.55 25.9439 148.651 26.073C148.678 26.1083 151.003 25.574 153.818 24.8856C156.632 24.1971 159.116 23.601 159.337 23.5609C159.69 23.497 159.824 23.8208 160.416 26.1687C160.788 27.643 161.015 28.897 160.921 28.9552C160.827 29.0136 158.41 29.6315 155.551 30.3287C152.692 31.0258 150.289 31.6361 150.21 31.6849C150.095 31.7555 151.376 37.6402 151.539 37.7955C151.563 37.8184 154.749 37.0579 158.619 36.1054C162.49 35.1529 165.683 34.3927 165.715 34.4162C165.747 34.4397 165.995 35.6982 166.265 37.2128C166.709 39.7065 166.723 39.9757 166.416 40.0638C165.387 40.3586 146.293 45.0183 146.114 45.0183C145.996 45.0183 144.313 38.581 142.374 30.7132Z" fill="black"/>
<path d="M357.757 40.8015C357.127 40.6898 356.126 40.3763 355.533 40.105C353.202 39.0378 352.163 37.3029 350.533 31.7569C349.317 27.6172 348.893 26.4883 347.996 24.9985L347.276 23.8033H348.707C352.385 23.8033 354.597 21.8767 354.597 18.6748C354.597 17.1706 353.881 16.094 352.373 15.3326C351.576 14.9304 347.614 14.1142 347.421 14.3125C347.344 14.3915 346.33 19.6457 345.166 25.9887C344.002 32.3316 343.005 37.5661 342.95 37.6208C342.838 37.733 336.821 36.6695 336.303 36.4459C336.009 36.3187 336.286 34.5644 338.623 21.8681C340.084 13.9298 341.321 7.39943 341.374 7.35611C341.579 7.18677 353.752 9.54122 355.397 10.0682C358.249 10.9822 360.415 12.6474 361.572 14.8141C361.994 15.6045 362.054 16.0156 362.054 18.1319C362.054 20.3059 361.999 20.663 361.503 21.7028C360.303 24.2166 358.039 25.8393 355.377 26.094L354.072 26.2189L354.742 26.6968C355.771 27.4304 357.217 29.7849 358.674 33.0995C360.504 37.26 361.528 38.8089 363.095 39.7854L363.716 40.1724L362.889 40.5181C361.885 40.9373 359.321 41.0789 357.757 40.8015Z" fill="black"/>
<path d="M178.68 37.3826C178.573 37.0357 173.751 9.51574 173.69 8.90092C173.638 8.38804 173.651 8.38462 179.835 7.28051C187.012 5.999 189.509 5.8521 191.847 6.57415C194.571 7.41548 196.274 9.0791 197.085 11.6894C198.255 15.46 196.808 19.3147 193.591 20.9956C192.411 21.6125 192.155 21.9114 192.805 21.9149C193.696 21.9199 195.67 23.4232 198.739 26.435C202.151 29.7828 203.506 30.8135 204.988 31.1889C205.479 31.3133 205.881 31.4938 205.881 31.5901C205.881 31.8328 204.27 32.8884 203.255 33.3104C201.774 33.9265 200.566 34.1607 198.844 34.165C195.814 34.1734 194.616 33.2527 190.399 27.6779C187.991 24.4951 186.869 23.2609 185.401 22.1801C185.055 21.9249 184.885 21.7131 185.026 21.7095C185.803 21.6892 187.725 20.7155 188.677 19.8595C189.982 18.6864 190.339 17.9188 190.333 16.3008C190.316 13.4041 188.548 11.8241 185.63 12.1124C183.028 12.3696 181.725 12.6907 181.725 13.0752C181.725 13.2729 182.623 18.4988 183.721 24.6881C184.818 30.8776 185.716 36.035 185.716 36.1492C185.716 36.2633 184.795 36.5208 183.668 36.7213C182.542 36.9218 180.975 37.2069 180.187 37.3547C179.12 37.555 178.736 37.5622 178.68 37.3826Z" fill="black"/>
<path d="M311.735 3.0938C311.479 3.02407 310.089 6.10568 305.369 17.2079C302.048 25.0195 299.373 31.4528 299.425 31.5041C299.591 31.6713 306.178 32.3667 306.314 32.2315C306.386 32.1592 306.906 30.895 307.468 29.422C308.162 27.6048 308.593 26.7473 308.807 26.7547C309.725 26.7865 317.423 27.7268 317.514 27.8184C317.573 27.8775 317.806 29.1818 318.031 30.7164C318.257 32.2511 318.492 33.5578 318.555 33.6201C318.617 33.6824 320.065 33.8978 321.772 34.0989C325.715 34.5635 326.032 34.5751 326.032 34.2532C326.032 33.9819 321.273 5.34357 321.098 4.56682C321.008 4.1605 320.691 4.09744 316.532 3.65667C314.074 3.39618 311.915 3.14284 311.735 3.0938ZM315.276 9.73173C315.303 9.73128 315.309 9.806 315.313 9.95558C315.313 10.1376 315.65 12.8043 316.055 15.8817C316.459 18.959 316.79 21.5749 316.79 21.6948C316.79 21.8146 316.577 21.9009 316.317 21.8868C315.507 21.8427 310.817 21.2609 310.752 21.1966C310.682 21.1257 314.819 10.4583 315.111 9.95886C315.2 9.80779 315.249 9.73218 315.276 9.73173Z" fill="black"/>
<path d="M218.624 31.6297C217.831 30.0622 206.885 3.82536 206.983 3.72691C207.045 3.66439 208.865 3.41542 211.026 3.17373C214.024 2.83835 214.991 2.7935 215.109 2.98419C215.195 3.12165 217.052 8.19389 219.237 14.2559C221.836 21.4635 223.26 25.1499 223.354 24.908C223.433 24.7046 224.216 19.3948 225.095 13.1086C225.975 6.82231 226.734 1.61472 226.782 1.53619C226.897 1.34996 233.997 0.595578 234.154 0.752864C234.275 0.874189 228.571 30.6014 228.364 30.9297C228.303 31.027 226.362 31.3101 224.051 31.559C221.74 31.8078 219.64 32.056 219.384 32.1106C219.033 32.1852 218.846 32.0665 218.624 31.6297Z" fill="black"/>
<path d="M280.74 30.311C278.761 29.5286 277.504 27.8516 277.22 25.6168C277.096 24.6326 277.107 24.5997 277.562 24.7293C280.674 25.6165 281.207 25.655 282.465 25.0838C283.999 24.3869 284.001 24.3765 284.49 11.8302C284.726 5.76501 284.93 0.793229 284.943 0.781803C285.059 0.676777 291.796 1.05105 291.914 1.16913C292.19 1.4456 291.205 23.5408 290.851 25.0175C290.238 27.5677 288.968 29.3042 287.117 30.1192C285.534 30.8163 282.266 30.9146 280.74 30.311Z" fill="black"/>
<path d="M245.921 28.1617C245.855 27.2085 245.745 20.5447 245.675 13.3531L245.547 0.277435H250.887C253.824 0.277435 258.652 0.21511 261.617 0.13882L267.007 0V2.86938V5.73875H263.995C262.339 5.73875 259.125 5.80094 256.853 5.87706L252.724 6.01537V8.66018C252.724 10.1149 252.783 11.5117 252.85 11.7642L252.972 12.2233L258.623 12.0988L264.273 11.9743V14.843V17.7117H259.893C257.484 17.7117 254.932 17.7724 254.222 17.8467L252.931 17.9816V21.1364V24.2912L260.282 24.1509L267.634 24.0106V26.8141V29.6176L263.065 29.7555C260.553 29.8315 255.693 29.8937 252.267 29.894L246.037 29.8944L245.919 28.1615L245.921 28.1617Z" fill="black"/>
</svg>
