<svg width="1163" height="200" viewBox="0 0 1163 200" fill="none" xmlns="http://www.w3.org/2000/svg">
<path d="M315.495 112.399C315.495 79.6992 336.457 79.113 364.706 79.113H367.927C395.484 79.113 410.579 83.7451 410.579 115.384V137.417C410.579 163.926 403.731 175.206 366.949 175.206H359.922C325.023 175.206 315.495 165.626 315.495 139.24V112.399ZM315.495 182.687H316.062C324.724 194.104 340.68 200 360.286 200H370.426C411.438 200 441.445 189.573 441.426 142.368V113.545C441.426 69.86 422.112 54.3157 371.707 54.3157H356.043C334.029 54.3157 321.776 61.7721 316.03 69.8321H315.495V0.0104276H284.651V195.528H315.495V182.687Z" fill="black"/>
<path d="M815.338 57.786H773.925V45.1777C773.925 33.142 781.826 23.4548 798.669 23.4548L829.426 23.4867V-4.81682e-05L788.527 0.0103967C763.807 0.0103967 743.057 12.8577 743.057 45.3056V57.786H726.451V82.5257H743.057V199.942H773.925V82.5257H815.338V57.786Z" fill="black"/>
<path d="M637.063 154.608C637.063 187.068 657.824 199.942 682.558 199.942H720.859V175.196L690.079 175.206C673.259 175.206 667.92 166.799 667.92 154.752V82.5257H709.364V57.786H667.92V-4.81682e-05H637.083V57.786H620.474V82.5257H637.083L637.063 154.608Z" fill="black"/>
<path d="M992.349 31.2815H1023.2V0.000161096L992.349 0.010606V31.2815Z" fill="black"/>
<path d="M992.325 199.974H1023.2V54.3158H992.348L992.325 199.974Z" fill="black"/>
<path d="M487.701 109.872C487.701 81.8956 500.751 79.1035 532.581 79.1035L538.815 79.113C574.621 79.113 579.24 88.1109 579.24 106.508L579.271 114.318L487.701 114.354V109.872ZM521.336 199.974H549.08C586.444 199.974 603.519 188.127 607.886 167.418L580.441 159.118C575.888 171.879 564.898 175.206 540.715 175.206H533.593C494.101 175.206 487.682 170.221 487.643 139.112L487.701 139.083H610.108V112.137C610.108 63.3832 584.747 54.3157 544.221 54.3157H529.132C497.053 54.3157 458.161 59.9224 458.161 109.536V143.929C458.161 192.125 491.864 200 521.336 199.974Z" fill="black"/>
<path d="M934.117 156.457C934.117 170.136 924.728 175.206 888.2 175.206H879.95C848.908 175.206 844.968 169.23 844.968 157.423L844.978 149.741C844.968 136.057 852.707 130.893 878.411 130.893H892.146C915.568 130.893 934.117 135.481 934.117 150.802V156.457ZM895.781 54.3158H884.249C842.409 54.3158 824.275 67.1733 823.1 86.428L852.506 96.1616C853.857 83.0056 868.98 79.113 891.91 79.113C926.009 79.113 934.07 81.0865 934.07 105.682V119.046H933.461C925.753 108.785 915.23 106.134 888.515 106.134H876.459C837.067 106.134 814.131 115.927 814.131 147.045V155.94C814.17 181.631 823.965 199.974 865.085 199.974H895.012C924.777 199.974 927.76 195.097 933.637 186.588H934.117V199.942H964.944V106.316C964.944 65.5302 937.824 54.3158 895.781 54.3158Z" fill="black"/>
<path d="M1117.28 54.3158C1103.58 54.3158 1089.59 59.5012 1080.94 73.6662H1079.83V54.3158L1050.61 54.3356V199.974H1081.46V112.339C1081.46 94.6583 1091.64 79.1036 1115.6 79.1036C1132.72 79.1036 1140.98 83.7452 1142.81 88.6133L1162.24 75.5253C1157.45 62.2743 1144.58 54.3158 1117.28 54.3158Z" fill="black"/>
<path d="M227.835 0.50208H147.974V40.5145H105.293L187.907 136.877L270.548 40.5145H227.835V0.50208Z" fill="black"/>
<path d="M0 159.032H42.699V199.083H122.556V159.032H165.257L82.6513 62.6995L0 159.032Z" fill="black"/>
</svg>
