<svg width="172" height="200" viewBox="0 0 172 200" fill="none" xmlns="http://www.w3.org/2000/svg">
<g clip-path="url(#clip0_36_143)">
<mask id="mask0_36_143" style="mask-type:luminance" maskUnits="userSpaceOnUse" x="-74" y="-41" width="320" height="282">
<path d="M-73.8989 -40.4634H245.03V240.376H-73.8989V-40.4634Z" fill="white"/>
</mask>
<g mask="url(#mask0_36_143)">
<path d="M86.0098 199.997C88.6232 200.049 90.1281 199.405 93.7266 197.752L163.039 168.652C164.474 168.074 165.343 167.613 166.615 166.988C166.615 166.988 168.98 165.225 169.207 164.954C171.524 162.2 171.573 159.781 171.833 157.284C171.947 156.17 172 154.967 172 153.673V15.6572C172 4.21933 167.789 0 156.38 0H15.6201C4.21098 0 0 4.21933 0 15.6572V153.673C0 154.967 0.0519101 156.17 0.166016 157.284C0.425724 159.781 0.474941 162.2 2.79199 164.954C3.01735 165.223 5.36139 166.972 5.38379 166.988C6.6563 167.614 7.52578 168.074 8.96094 168.652L78.2734 197.752C81.8714 199.405 83.376 200.049 85.9893 199.997H86.0098ZM126.715 103.918C117.251 103.918 112.571 99.2084 112.571 89.6768V40.1621C112.571 30.6307 117.251 25.92 126.715 25.9199H132.374C141.837 25.92 146.406 30.5222 146.406 40.0518V55.7178H134.984V40.709C134.984 37.6417 133.569 36.2178 130.632 36.2178H128.673C125.627 36.2179 124.213 37.6418 124.213 40.709V89.1299C124.213 92.1973 125.627 93.621 128.673 93.6211H130.851C133.786 93.621 135.201 92.1974 135.201 89.1299V71.8213H146.625V89.6768C146.625 99.2084 141.947 103.918 132.481 103.918H126.715ZM25.375 26.5781H51.2695V37.2031H37.0156V58.8945H50.7236V69.5195H37.0156V92.6348H51.4863V103.261H25.375V26.5781ZM57.1055 26.5781H75.3828C84.8481 26.5782 89.5254 31.288 89.5254 40.8193V61.1953C89.5254 70.7249 84.8481 75.4345 75.3828 75.4346H68.7461V103.261H57.1055V26.5781ZM94.7773 26.5781H106.419V103.261H94.7773V26.5781ZM73.5342 65.1396C76.4719 65.1396 77.8848 63.7141 77.8848 60.6465V41.3662C77.8848 38.2993 76.4719 36.875 73.5342 36.875H68.7461V65.1396H73.5342ZM36.4639 145.536L36.1162 145.504L35.8008 145.473L35.4854 145.44L35.167 145.408L34.8516 145.345L34.5352 145.281L34.252 145.218L33.9336 145.154L33.6494 145.059L33.334 144.995L33.0479 144.899L32.7637 144.771L32.4795 144.677L32.1641 144.549L31.8779 144.422L31.5938 144.295L31.3105 144.167L31.0244 144.008L30.7725 143.851L30.4883 143.691L30.2334 143.532L29.9814 143.373L29.7275 143.182L29.4746 142.991L29.2227 142.8L29 142.609L28.7803 142.418L28.5576 142.195L28.3369 142.004L28.1143 141.781L27.8936 141.559L27.7031 141.336L27.5146 141.081L27.3242 140.858L27.165 140.604L26.9766 140.349L26.8174 140.095L26.6602 139.839L26.502 139.553L26.3428 139.298L26.2178 139.012L26.0908 138.725L25.9639 138.438L25.8379 138.152L25.7432 137.897L25.6152 137.61L25.5527 137.324L25.459 137.038L25.3955 136.72L25.2998 136.433L25.2363 136.114L25.2051 135.828L25.1406 135.51L25.1094 135.224L25.0771 134.905L25.0479 134.586L25.0166 134.269V133.218L25.0479 132.867V132.549L25.0771 132.23L25.1094 131.881L25.1729 131.564L25.2051 131.246L25.2676 130.959L25.3633 130.641L25.4268 130.322L25.5205 130.036L25.6152 129.718L25.7109 129.432L25.8379 129.112L25.9639 128.826L26.0908 128.54L26.2178 128.253L26.3428 127.967L26.502 127.681L26.6602 127.426L26.8174 127.171L26.9766 126.916L27.1348 126.661L27.3242 126.407L27.5146 126.152L27.7031 125.897L27.8936 125.674L28.1143 125.451L28.3047 125.229L28.5254 125.006L28.748 124.783L28.9688 124.593L29.2227 124.369L29.4434 124.179L29.6953 123.987L29.9492 123.828L30.2021 123.637L30.4561 123.478L30.708 123.319L30.9922 123.159L31.2783 123L31.5625 122.842L31.8467 122.714L32.1318 122.587L32.4482 122.428L32.7002 122.332L33.0166 122.236L33.3027 122.109L33.5869 122.045L33.8701 121.949L34.1875 121.886L34.4717 121.791L34.7881 121.728L35.1035 121.695L35.4209 121.632L35.7373 121.6L36.0527 121.568L36.3691 121.536L36.6865 121.504H38.0449L38.3945 121.536L38.7422 121.568H39.0586L39.374 121.6L39.7217 121.663L40.0078 121.695L40.3232 121.759L40.6396 121.822L40.9248 121.886L41.209 121.949L41.4932 122.014L41.7793 122.109L42.0635 122.173L42.3154 122.269L42.6016 122.363L42.8857 122.491L43.1699 122.618L43.4551 122.746L43.7393 122.905L44.0234 123.032L44.2783 123.191L44.5615 123.351L44.8145 123.51L45.1006 123.669L45.3525 123.859L45.6045 124.02L45.8584 124.21L46.1113 124.401L46.3652 124.624L46.6172 124.815L46.4268 125.07L46.2061 125.293L46.0156 125.547L45.7949 125.802L45.6045 126.057L45.416 126.279L45.1934 126.534L45.0049 126.788L44.8145 127.012L44.5938 127.267L44.4033 127.521L44.1826 127.775L43.9912 127.999L43.8027 128.253L43.5811 128.508L43.3916 128.763L43.1699 128.985L42.9805 129.24L42.7266 129.049L42.4746 128.826L42.2197 128.667L41.9678 128.476L41.7158 128.316L41.4619 128.157L41.209 127.999L40.9248 127.839L40.6709 127.712L40.4189 127.585L40.1641 127.489L39.8799 127.394L39.5967 127.298L39.3105 127.234L38.9951 127.171L38.6787 127.107L38.3633 127.075L38.0156 127.044L37.666 127.012H37.0029L36.6865 127.044L36.4004 127.075L36.085 127.139L35.8008 127.203L35.5146 127.298L35.2314 127.394L34.9473 127.521L34.6631 127.648L34.4082 127.808L34.1562 127.967L33.9023 128.126L33.6816 128.316L33.459 128.508L33.2393 128.699L33.0479 128.922L32.8281 129.145L32.6367 129.399L32.4795 129.622L32.3213 129.877L32.1641 130.163L32.0049 130.418L31.8779 130.704L31.7832 130.991L31.6572 131.277L31.5625 131.596L31.499 131.912L31.4355 132.199L31.3721 132.549L31.3398 132.867L31.3105 133.186V133.918L31.3398 134.236L31.3721 134.522L31.4033 134.842L31.5938 135.7L31.6895 135.987L31.7832 136.242L31.9102 136.56L32.0371 136.847L32.1943 137.134L32.3525 137.388L32.5117 137.643L32.7002 137.897L32.8916 138.12L33.1113 138.344L33.3027 138.566L33.5225 138.757L33.7773 138.948L34.0293 139.139L34.2812 139.298L34.5352 139.457L34.8203 139.585L35.1035 139.712L35.3896 139.839L35.7051 139.935L36.0215 140.03L36.3389 140.095L36.6553 140.158L36.9707 140.189L37.3184 140.222H38.0449L38.3945 140.189L38.7422 140.158L39.0586 140.126L39.374 140.062L39.6914 139.998L40.0078 139.903L40.291 139.839L40.5762 139.712L40.8301 139.585L41.1143 139.457L41.3359 139.33L41.5889 139.171V136.273H36.9707V131.628H47.4082V141.973L47.1875 142.163L46.9336 142.354L46.7129 142.514L46.459 142.704L46.2061 142.863L45.9541 143.055L45.7002 143.214L45.4473 143.373L45.1621 143.532L44.5938 143.851L44.3076 143.976L44.0234 144.135L43.708 144.263L43.4238 144.39L43.1064 144.517L42.8223 144.645L42.5381 144.74L42.252 144.835L41.9678 144.932L41.6523 145.026L41.3682 145.122L41.0508 145.186L40.7666 145.249L40.4502 145.313L40.1328 145.377L39.8164 145.408L39.4688 145.44L39.1533 145.473L38.8057 145.504L38.4883 145.536L38.1406 145.567H36.7803L36.4639 145.536ZM136.862 145.473H136.515L136.199 145.44L135.881 145.408L135.534 145.377L135.218 145.313L134.902 145.281L134.584 145.218L134.269 145.154L133.952 145.09L133.637 145.026L133.319 144.932L133.035 144.867L132.72 144.771L132.403 144.677L132.117 144.549L131.802 144.453L131.518 144.358L131.201 144.23L130.916 144.104L130.632 143.976L130.348 143.818L130.062 143.691L129.777 143.532L129.525 143.373L129.239 143.214L128.987 143.055L128.733 142.896L128.48 142.704L128.229 142.514L127.975 142.322L127.722 142.132L127.5 141.94L127.247 141.718L127.438 141.463L127.658 141.24L127.849 140.985L128.069 140.73L128.261 140.508L128.449 140.253L128.672 139.998L128.86 139.775L129.082 139.521L129.271 139.298L129.493 139.044L129.683 138.788L129.873 138.566L130.094 138.312L130.284 138.057L130.505 137.834L130.695 137.579L130.947 137.771L131.231 137.961L131.485 138.152L131.77 138.344L132.024 138.502L132.309 138.693L132.561 138.853L132.847 138.979L133.099 139.139L133.383 139.267L133.669 139.394L133.952 139.521L134.237 139.616L134.522 139.744L134.839 139.839L135.154 139.935L135.438 140.03L135.756 140.095L136.072 140.158L136.388 140.222L136.735 140.253L137.053 140.316H137.369L137.716 140.349H138.411L138.759 140.316L139.077 140.253L139.36 140.189L139.646 140.126L139.899 140.03L140.12 139.903L140.374 139.712L140.562 139.489L140.689 139.234L140.785 138.948L140.816 138.63V138.566L140.785 138.184L140.658 137.865L140.499 137.643L140.278 137.451L140.024 137.261L139.771 137.134L139.488 137.006L139.17 136.879L138.791 136.72L138.57 136.656L138.318 136.593L138.032 136.496L137.748 136.433L137.433 136.337L137.114 136.273L136.768 136.179L136.451 136.114L136.104 136.02L135.788 135.956L135.47 135.86L135.154 135.796L134.839 135.7L134.553 135.605L134.237 135.542L133.952 135.446L133.669 135.351L133.383 135.255L133.035 135.128L132.72 135L132.403 134.873L132.086 134.745L131.802 134.586L131.485 134.428L131.231 134.269L130.947 134.109L130.695 133.918L130.441 133.759L130.221 133.567L129.998 133.345L129.777 133.122L129.587 132.899L129.398 132.677L129.239 132.454L129.082 132.199L128.924 131.912L128.797 131.691L128.701 131.437L128.608 131.15L128.513 130.896L128.449 130.577L128.386 130.29L128.354 129.973L128.322 129.653L128.29 129.304V128.571L128.322 128.253L128.354 127.967L128.386 127.648L128.449 127.362L128.513 127.075L128.608 126.788L128.672 126.502L128.797 126.216L128.924 125.93L129.051 125.643L129.208 125.356L129.366 125.07L129.556 124.815L129.746 124.561L129.967 124.306L130.188 124.083L130.409 123.828L130.664 123.605L130.884 123.446L131.138 123.255L131.391 123.064L131.643 122.905L131.929 122.746L132.213 122.618L132.497 122.459L132.783 122.332L133.099 122.236L133.414 122.109L133.7 122.014L133.952 121.949L134.522 121.822L134.839 121.759L135.123 121.695L135.438 121.663L135.756 121.632L136.072 121.6L136.388 121.568H137.748L138.096 121.6L138.443 121.632H138.759L139.108 121.663L139.424 121.728L139.771 121.759L140.088 121.822L140.374 121.886L140.689 121.949L141.006 122.014L141.29 122.077L141.607 122.173L141.892 122.269L142.176 122.332L142.493 122.459L142.777 122.555L143.062 122.682L143.346 122.81L143.663 122.937L143.947 123.096L144.199 123.224L144.485 123.383L144.77 123.542L145.021 123.701L145.308 123.892L145.561 124.051L145.814 124.242L146.066 124.434L146.318 124.624L146.13 124.879L145.971 125.134L145.782 125.388L145.592 125.643L145.403 125.93L145.244 126.184L145.054 126.438L144.864 126.693L144.706 126.948L144.517 127.203L144.326 127.458L144.167 127.712L143.979 127.999L143.788 128.253L143.6 128.508L143.44 128.763L143.252 129.018L142.998 128.826L142.714 128.667L142.461 128.508L142.207 128.316L141.923 128.189L141.669 128.03L141.385 127.903L141.133 127.775L140.847 127.648L140.595 127.521L140.311 127.426L140.057 127.298L139.708 127.203L139.077 127.012L138.759 126.948L138.443 126.885L138.128 126.82L137.812 126.788L137.494 126.757L137.21 126.725H136.515L136.167 126.788L135.85 126.853L135.565 126.916L135.313 127.044L135.091 127.171L134.807 127.426L134.616 127.712L134.491 127.999L134.459 128.316V128.381L134.491 128.795L134.647 129.145L134.775 129.336L134.995 129.559L135.281 129.718L135.534 129.877L135.85 130.004L136.199 130.132L136.578 130.259L136.831 130.322L137.083 130.418L137.369 130.481L137.652 130.577L137.969 130.641L138.318 130.736L139.014 130.928L139.36 130.991L139.677 131.087L140.024 131.182L140.342 131.246L140.658 131.341L140.974 131.437L141.258 131.532L141.575 131.628L141.859 131.724L142.144 131.818L142.493 131.944L142.809 132.104L143.125 132.23L143.44 132.39L143.727 132.549L144.011 132.708L144.263 132.867L144.517 133.059L144.77 133.218L145.021 133.44L145.276 133.663L145.496 133.918L145.719 134.141L145.907 134.396L146.098 134.682L146.255 134.937L146.414 135.224L146.541 135.479L146.637 135.765L146.729 136.051L146.793 136.337L146.856 136.656L146.92 136.975L146.952 137.293L146.984 137.643V138.407L146.952 138.757L146.92 139.075L146.889 139.425L146.825 139.744L146.729 140.062L146.668 140.349L146.572 140.667L146.445 140.953L146.318 141.209L146.193 141.495L146.034 141.749L145.876 142.004L145.687 142.259L145.528 142.514L145.339 142.736L145.117 142.959L144.928 143.15L144.674 143.373L144.453 143.564L144.199 143.755L143.947 143.912L143.694 144.104L143.409 144.263L143.125 144.39L142.841 144.549L142.522 144.677L142.207 144.804L141.892 144.899L141.575 144.995L141.29 145.09L140.974 145.154L140.689 145.218L140.406 145.281L140.088 145.345L139.771 145.377L139.488 145.408L139.17 145.44L138.823 145.473L138.507 145.504H137.179L136.862 145.473ZM49.877 144.835L50.1309 144.263L50.2559 143.944L50.3516 143.659L50.6055 143.087L50.7305 142.8L50.8574 142.514L50.9854 142.195L51.1104 141.908L51.2373 141.622L51.332 141.336L51.46 141.049L51.585 140.763L51.7119 140.444L51.8389 140.158L51.9639 139.871L52.0918 139.585L52.2178 139.298L52.3135 139.012L52.4385 138.693L52.5654 138.407L52.6934 138.12L52.8184 137.834L52.9453 137.547L53.0723 137.261L53.1973 136.942L53.293 136.656L53.4199 136.369L53.5469 136.083L53.6729 135.796L53.7998 135.51L53.9258 135.191L54.0518 134.905L54.1787 134.618L54.2734 134.332L54.4014 134.046L54.5264 133.759L54.6533 133.44L54.7803 133.154L54.9053 132.867L55.0322 132.581L55.1602 132.295L55.2549 132.008L55.3809 131.724L55.5078 131.404L55.6348 131.118L55.7598 130.832L55.8867 130.545L56.0137 130.259L56.1387 129.973L56.2344 129.653L56.4883 129.081L56.6143 128.795L56.7412 128.508L56.8682 128.222L56.9932 127.903L57.1201 127.616L57.2158 127.33L57.3428 127.044L57.4678 126.757L57.5947 126.471L57.7217 126.152L57.8467 125.865L57.9746 125.579L58.1016 125.293L58.1943 125.006L58.3223 124.72L58.4492 124.401L58.5762 124.114L58.7012 123.828L58.8281 123.542L58.9551 123.255L59.0801 122.969L59.1758 122.65L59.3027 122.363L59.4307 122.077L59.5557 121.791H65.4062L65.5332 122.077L65.6611 122.363L65.7861 122.65L65.9131 122.969L66.0088 123.255L66.1338 123.542L66.3877 124.114L66.5146 124.401L66.6396 124.72L66.7666 125.006L66.8945 125.293L66.9873 125.579L67.1143 125.865L67.2422 126.152L67.3691 126.471L67.4941 126.757L67.6211 127.044L67.748 127.33L67.873 127.616L67.9688 127.903L68.0957 128.222L68.2207 128.508L68.3486 128.795L68.4746 129.081L68.6025 129.367L68.7275 129.653L68.8545 129.973L68.9502 130.259L69.0752 130.545L69.2021 130.832L69.4561 131.404L69.5811 131.724L69.709 132.008L69.8359 132.295L69.9287 132.581L70.0557 132.867L70.1836 133.154L70.3086 133.44L70.4355 133.759L70.5625 134.046L70.6895 134.332L70.8154 134.618L70.9102 134.905L71.0371 135.191L71.1621 135.51L71.2891 135.796L71.417 136.083L71.5439 136.369L71.6689 136.656L71.7959 136.942L71.8916 137.261L72.0166 137.547L72.1436 137.834L72.2705 138.12L72.3955 138.407L72.5234 138.693L72.6504 139.012L72.7773 139.298L72.8711 139.585L72.998 139.871L73.125 140.158L73.25 140.444L73.377 140.763L73.5039 141.049L73.6309 141.336L73.7559 141.622L73.8516 141.908L73.9795 142.195L74.1045 142.514L74.2314 142.8L74.3574 143.087L74.4834 143.373L74.6104 143.659L74.7373 143.944L74.833 144.263L74.958 144.549L75.085 144.835L75.2119 145.122H68.6963L68.5703 144.835L68.4746 144.549L68.3486 144.263L68.2207 143.944L68.1279 143.659L68.001 143.373L67.873 143.087L67.7803 142.8L67.6533 142.514L67.5254 142.227L67.4307 141.94L67.3057 141.622L67.1777 141.336L67.083 141.049L66.9551 140.763H57.8789L57.7539 141.049L57.6582 141.336L57.5312 141.622L57.4043 141.94L57.3105 142.227L57.1836 142.514L57.0566 142.8L56.9609 143.087L56.8359 143.373L56.709 143.659L56.6143 143.944L56.4883 144.263L56.3613 144.549L56.2666 144.835L56.1387 145.122H49.752L49.877 144.835ZM77.7822 121.949H84.2666L84.4238 122.205L84.582 122.491L84.7705 122.744L84.9297 123.03L85.0889 123.285L85.2461 123.571L85.4043 123.824L85.5938 124.111L85.752 124.366L85.9111 124.62L86.0684 124.905L86.2266 125.16L86.416 125.446L86.5742 125.701L86.7334 125.985L86.8906 126.24L87.0811 126.494L87.2402 126.779L87.3965 127.034L87.5557 127.32L87.7129 127.575L87.9033 127.86L88.0625 128.115L88.2188 128.401L88.3779 128.654L88.5352 128.908L88.7256 129.195L88.8848 129.45L89.041 129.736L89.2002 129.989L89.3574 130.276L89.5479 130.53L89.707 130.815L89.8643 131.07L90.0225 130.815L90.1816 130.53L90.3701 130.276L90.5283 129.989L90.6855 129.736L90.8447 129.45L91.0332 129.195L91.1924 128.908L91.3516 128.654L91.5078 128.401L91.6992 128.115L91.8555 127.86L92.0146 127.575L92.1729 127.32L92.3623 127.034L92.5205 126.779L92.6797 126.494L92.8369 126.24L92.9961 125.985L93.1846 125.701L93.3438 125.446L93.502 125.16L93.6592 124.905L93.8496 124.62L94.0068 124.366L94.165 124.111L94.3242 123.824L94.5127 123.571L94.6719 123.285L94.8291 123.03L94.9883 122.744L95.1787 122.491L95.3359 122.205L95.4941 121.949H101.978V145.122H95.873V131.42L95.7148 131.674L95.5264 131.963L95.3672 132.218L95.1787 132.473L95.0195 132.759L94.8291 133.014L94.6719 133.269L94.5127 133.557L94.3242 133.812L94.165 134.065L93.9756 134.32L93.8184 134.609L93.6279 134.863L93.4707 135.118L93.3115 135.405L93.1211 135.661L92.9639 135.916L92.7734 136.202L92.6162 136.457L92.4258 136.712L92.2686 137L92.1094 137.255L91.9199 137.51L91.7627 137.797L91.5723 138.053L91.415 138.308L91.2246 138.562L91.0654 138.849L90.9082 139.104L90.7178 139.36L90.5605 139.646L90.3701 139.901L90.2119 140.155L90.0225 140.444L89.8643 140.699H89.7383L89.5479 140.412L89.3887 140.155L89.2002 139.869L89.041 139.614L88.8525 139.328L88.6934 139.071L88.5049 138.785L88.3457 138.53L88.1553 138.244L87.998 137.989L87.8076 137.7L87.6514 137.446L87.4609 137.159L87.3018 136.905L87.1133 136.616L86.9541 136.362L86.7656 136.075L86.5742 135.82L86.416 135.532L86.2266 135.277L86.0684 134.991L85.8789 134.736L85.7207 134.448L85.5312 134.193L85.373 133.907L85.1826 133.652L85.0254 133.365L84.835 133.108L84.6777 132.822L84.4873 132.567L84.3281 132.281L84.1396 132.027L83.9805 131.738L83.792 131.483V145.122H77.7822V121.949ZM106.647 121.949H124.929V127.203H112.688V130.991H123.694V135.924H112.688V139.871H125.087V145.122H106.647V121.949ZM64.9639 135.573L64.8682 135.285L64.7432 134.967L64.6162 134.68L64.5205 134.392L64.3955 134.105L64.2686 133.787L64.1729 133.498L64.0459 133.212L63.9209 132.926L63.8252 132.638L63.6982 132.318L63.6055 132.032L63.4775 131.744L63.3506 131.457L63.2559 131.171L63.1299 130.851L63.0029 130.563L62.9082 130.277L62.7812 129.989L62.6553 129.671L62.5605 129.383L62.4336 129.096L62.3076 129.383L62.2129 129.671L62.0859 129.989L61.959 130.277L61.8652 130.563L61.7383 130.851L61.6113 131.171L61.4863 131.457L61.3906 131.744L61.2637 132.032L61.1357 132.318L61.043 132.638L60.916 132.926L60.7881 133.212L60.6934 133.498L60.5684 133.787L60.4404 134.105L60.3145 134.392L60.2207 134.68L60.0938 134.967L59.9668 135.285L59.8711 135.573L59.7461 135.86H65.0908L64.9639 135.573ZM52.8369 172.598H119.477L85.4629 183.838L52.8369 172.598Z" fill="black"/>
</g>
</g>
<defs>
<clipPath id="clip0_36_143">
<rect width="172" height="200" fill="white"/>
</clipPath>
</defs>
</svg>
