<svg width="200" height="200" viewBox="0 0 200 200" fill="none" xmlns="http://www.w3.org/2000/svg">
<path d="M99.7217 0C154.877 0.000132467 199.545 44.9351 199.545 99.9453C199.545 155.056 154.877 200 99.7217 200C44.6774 200 0.000150988 155.056 0 99.9453C0 44.935 44.6763 0 99.7217 0ZM99.7207 50.082C77.3818 49.9684 53.3328 50.5109 31.7422 52.8643C25.4387 53.5054 22.1243 55.0022 21.376 61.8486C20.2007 74.2615 20.0938 86.996 20.0938 99.9453C20.0938 113 20.2007 125.735 21.377 138.146C22.1242 144.996 25.4376 146.496 31.7432 147.137C53.3328 149.492 77.3818 149.919 99.7207 149.919C122.165 149.919 146.214 149.491 167.8 147.137C174.111 146.496 177.417 144.996 178.172 138.146C179.34 125.735 179.454 113 179.454 99.9453C179.454 86.996 179.34 74.2615 178.172 61.8486C177.418 55.0023 174.111 53.5054 167.8 52.8643C146.214 50.5109 122.165 49.9684 99.7207 50.082Z" fill="black"/>
<path fill-rule="evenodd" clip-rule="evenodd" d="M59.2129 99.9454C59.2129 77.6874 77.2767 59.4949 99.7224 59.4949C122.274 59.4949 140.336 77.6874 140.336 99.9454C140.336 122.31 122.274 140.395 99.7224 140.395C77.2767 140.395 59.2129 122.31 59.2129 99.9454Z" fill="black"/>
</svg>
