<svg width="171" height="200" viewBox="0 0 171 200" fill="none" xmlns="http://www.w3.org/2000/svg">
<path d="M15.6968 146.608V144.006H16.8038C16.8434 144.006 16.8829 144.006 16.962 144.006C19.2156 144.006 21.3506 143.086 23.2484 141.925C25.6602 140.404 26.965 137.763 27.3999 135.001C27.479 134.361 27.558 133.68 27.558 133.04V130.879V13.1279C27.5185 11.687 27.044 6.92415 23.1694 4.64279C20.2831 2.76166 17.7132 2.64158 17.0015 2.64158C16.9224 2.64158 16.8829 2.64158 16.8434 2.64158L15.6572 2.60156V0.040024H71.8796V2.64158H71.0889C71.0493 2.64158 71.0098 2.64158 70.9307 2.64158C70.2191 2.64158 67.6491 2.80168 64.7233 4.68281C60.8882 6.92415 60.4137 11.727 60.3742 13.1679L60.3347 15.1691V15.7294V16.9702L60.3742 52.1113H110.152L110.192 16.9702V15.1691V13.1679C110.152 11.727 109.678 6.92415 105.803 4.68281C102.917 2.80168 100.347 2.68161 99.635 2.68161C99.5559 2.68161 99.5164 2.68161 99.4768 2.68161L98.7652 2.64158V0H155.027V2.64158H153.801C153.762 2.64158 153.722 2.64158 153.643 2.64158C152.932 2.64158 150.362 2.80168 147.436 4.68281C143.601 6.92415 143.126 11.727 143.087 13.1279V130.879V133.08C143.087 133.32 142.929 139.364 147.475 142.005C150.362 143.886 152.932 144.006 153.643 144.006C153.722 144.006 153.762 144.006 153.801 144.006H155.027V146.608H135.298H98.7652L98.8047 143.966H99.5559C99.5955 143.966 99.635 143.966 99.6745 143.966C100.386 143.966 102.917 143.886 105.882 141.965C109.44 139.884 110.112 135.601 110.231 133.88V133.84V83.8103H60.2556L60.137 133.12L60.1765 134.521C60.2951 136.242 61.165 140.244 64.7629 142.325C67.6491 144.206 70.1004 144.046 70.8121 144.046C70.8912 144.046 70.9307 144.046 70.9703 144.046H71.6424V146.648L15.6968 146.608ZM42.266 133.24H44.8359V69.2015H125.651V133.28H128.221V11.1267H125.651V66.68H44.8755V11.1267H42.3055V133.24H42.266Z" fill="url(#paint0_linear_9_186)"/>
<path d="M170.644 156.454H0V159.576H170.605V156.454H170.644Z" fill="black"/>
<path d="M7.27475 181.309H18.8988V169.862H25.1457V199.36H18.8593V187.352H7.27475V199.36H0.988281V169.862H7.23522V181.309H7.27475Z" fill="black"/>
<path d="M36.8885 199.4H30.6416V169.902H36.8885V199.4Z" fill="black"/>
<path d="M51.5966 180.748L55.3527 182.229C59.9786 183.99 62.2322 186.712 62.2322 190.674C62.2322 196.598 57.3691 200 51.992 200C47.1684 200 42.9379 197.438 41.1191 192.756L46.4567 189.834C47.4451 192.355 49.5406 194.036 52.071 194.036C54.0875 194.036 55.7876 192.996 55.7876 191.075C55.7876 189.634 54.8387 188.673 52.7432 187.913L49.2639 186.632C45.0334 185.071 42.3448 182.469 42.3448 178.187C42.3448 172.824 46.3776 169.342 51.8338 169.342C56.1434 169.342 59.939 171.743 61.7182 175.705L56.5388 178.747C55.669 176.786 54.127 175.185 51.992 175.185C50.0942 175.185 48.7499 176.226 48.7499 177.787C48.7894 179.227 49.8174 180.068 51.5966 180.748Z" fill="black"/>
<path d="M72.433 175.786H64.7627V169.902H86.3107V175.786H78.6799V199.4H72.433V175.786Z" fill="black"/>
<path fill-rule="evenodd" clip-rule="evenodd" d="M87.7344 184.671C87.7344 176.146 94.4953 169.381 102.917 169.381C111.338 169.381 118.099 176.186 118.099 184.671C118.099 193.196 111.338 199.96 102.917 199.96C94.4953 199.96 87.7344 193.156 87.7344 184.671ZM94.1395 184.671C94.1395 189.754 98.0141 193.836 102.917 193.836C107.859 193.836 111.694 189.794 111.694 184.671C111.694 179.588 107.819 175.505 102.917 175.505C97.9746 175.505 94.1395 179.548 94.1395 184.671Z" fill="black"/>
<path fill-rule="evenodd" clip-rule="evenodd" d="M131.897 169.902C138.144 169.902 142.533 173.304 142.533 179.348C142.533 183.55 140.042 186.512 136.563 187.873L144.549 199.44H137.195L130.078 188.633H128.418V199.44H122.25V169.942H131.897V169.902ZM128.418 183.39H131.937C134.428 183.39 136.246 181.909 136.246 179.468C136.246 176.986 134.428 175.585 131.937 175.585H128.418V183.39Z" fill="black"/>
<path d="M157.202 180.708L163.646 169.902H170.644L160.285 186.592V199.4H154.039V186.592L143.68 169.902H150.796L157.202 180.708Z" fill="black"/>
<path d="M165.662 195.117H162.499V196.038H163.606V199.44H164.515V196.038H165.622V195.117H165.662Z" fill="black"/>
<path d="M166.216 195.157H167.323L168.628 198.119L169.932 195.157H171V199.44H170.09V196.878L168.944 199.44H168.351L167.204 196.878V199.44H166.295V195.157H166.216Z" fill="black"/>
<defs>
<linearGradient id="paint0_linear_9_186" x1="32.7367" y1="55.0627" x2="148.103" y2="94.0772" gradientUnits="userSpaceOnUse">
<stop offset="1"/>
</linearGradient>
</defs>
</svg>
