<svg width="658" height="200" viewBox="0 0 658 200" fill="none" xmlns="http://www.w3.org/2000/svg">
<path d="M46.7297 149.693H51.8503C75.212 149.693 89.9741 137.223 111.082 106.759H111.492L96.1239 154.625H0V154.215C9.2184 148.9 11.4788 143.993 14.7558 130.503L38.5279 35.6402C39.9611 29.7136 40.7819 25.4183 40.7819 22.1496C40.7819 17.6527 39.557 14.787 35.6613 11.9277V11.5183H89.9615V11.9277C80.7368 17.2433 78.4827 22.1496 75.2057 35.6402L46.7297 149.693Z" fill="black"/>
<path d="M146.872 136.06C146.646 137.344 146.508 138.643 146.461 139.947C146.461 143.425 148.104 145.674 151.383 145.674C153.276 145.621 155.12 145.055 156.715 144.036V144.446C150.359 153.266 142.361 156.719 133.542 156.719C120.211 156.719 114.468 148.743 114.468 137.899C114.414 134.926 114.76 131.96 115.498 129.079L128.62 75.6944C130.263 69.1545 131.286 65.2671 131.286 62.4066C131.286 58.7208 130.054 56.2699 126.977 53.8127V53.4032H167.588L146.872 136.06ZM158.114 4.4147C168.588 4.4147 175.976 11.9612 175.976 21.7653C176.003 26.9706 173.935 31.9706 170.233 35.6513C166.531 39.3321 161.503 41.388 156.268 41.3613C145.8 41.3613 138.406 33.8145 138.406 24.0104C138.324 18.7884 140.369 13.7552 144.076 10.0552C147.783 6.3551 152.837 4.30263 158.089 4.36439L158.114 4.4147Z" fill="black"/>
<path d="M218.043 53.3552H233.396L230.937 58.4714H217.021L194.095 151.326C185.702 185.483 170.967 199.59 140.676 200V199.59C151.527 192.231 156.231 174.438 165.645 133.533L183.042 58.4714H173.628L174.258 56.222L184.675 51.7233L186.516 45.9958C193.887 16.7475 215.993 0 239.323 0C252.218 0 262.653 6.33861 262.653 16.9744C262.653 29.0467 253.826 35.7948 243.617 35.7948C236.858 35.7948 232.154 32.1089 231.133 27.818C237.268 26.791 244.027 21.4731 244.027 9.81665C244.027 5.92905 241.978 3.27642 238.295 3.27642C230.924 3.27642 224.783 13.5026 220.899 37.4268L218.043 53.3552Z" fill="black"/>
<path d="M218.439 119.276C218.439 86.7367 245.267 51.1342 280.272 51.1342C297.068 51.1342 305.466 59.7322 305.466 71.8035C305.466 94.717 280.683 104.538 252.012 105.767C251.381 109.623 251.037 113.521 250.984 117.429C250.984 133.818 258.77 141.779 269.622 141.779C278.84 141.779 285.188 137.279 292.967 127.048H294.191C285.591 146.898 270.846 156.719 253.028 156.719C232.775 156.719 218.439 143.828 218.439 119.276ZM252.691 102.618C269.868 97.3037 282.748 77.4837 282.748 61.3344C282.748 57.2482 281.312 54.7991 278.654 54.7991C269.458 54.7991 256.987 79.9203 252.691 102.618Z" fill="black"/>
<path d="M336.9 130.121C336.489 131.518 336.277 132.965 336.269 134.42C336.269 140.351 340.153 143.83 345.065 143.83C348.344 143.83 352.632 141.989 356.529 138.302L356.737 138.712C349.17 150.782 339.132 156.719 326.237 156.719C311.502 156.719 303.721 148.122 303.721 134.83C303.825 131.444 304.307 128.081 305.158 124.802L321.735 58.5164H314.383L315.014 55.8567C336.301 50.3292 350.009 38.4675 363.111 17.8009H364.953L356.125 53.3986H375.369L373.112 58.5164H354.694L336.9 130.121Z" fill="black"/>
<path d="M397.641 136.06C397.415 137.344 397.278 138.643 397.231 139.947C397.231 143.425 398.873 145.674 402.152 145.674C404.046 145.621 405.889 145.055 407.484 144.036V144.446C401.129 153.266 393.131 156.719 384.311 156.719C370.981 156.719 365.238 148.743 365.238 137.899C365.184 134.926 365.53 131.96 366.268 129.079L379.39 75.6944C381.032 69.1545 382.056 65.267 382.056 62.4066C382.056 58.7208 380.824 56.2699 377.747 53.8127V53.4032H418.357L397.641 136.06ZM408.884 4.41502C419.358 4.41502 426.745 11.9614 426.745 21.7655C426.772 26.9708 424.704 31.9706 421.003 35.6514C417.301 39.3321 412.272 41.388 407.037 41.3613C396.57 41.3613 389.176 33.8146 389.176 24.0106C389.093 18.7842 391.142 13.7471 394.854 10.0463C398.567 6.34553 403.627 4.29609 408.884 4.36471V4.41502Z" fill="black"/>
<path d="M549.848 136.048C549.453 137.308 549.241 138.618 549.217 139.938C549.217 143.418 550.857 145.668 554.339 145.668C556.164 145.609 557.936 145.042 559.454 144.029V144.439C553.311 153.265 545.325 156.719 536.526 156.719C523.008 156.719 517.072 148.738 517.072 137.889C517.072 135.027 517.703 132.165 518.334 129.063L530.003 82.1991C530.774 79.7485 531.199 77.2022 531.265 74.6342C531.265 71.3624 530.003 69.3136 526.761 69.3136C520.409 69.3136 513.855 77.7043 509.352 94.8954L494.61 154.645H461.646L479.667 82.2054C480.419 79.89 480.832 77.4777 480.891 75.044C480.891 71.5641 479.459 69.3136 475.977 69.3136C469.631 69.3136 463.286 77.7043 458.782 95.5069L444.015 154.645H410.843L430.498 75.6555C431.93 69.1119 432.958 65.2223 432.958 62.3602C432.958 58.6723 431.696 56.2201 428.858 53.7615V53.3517H469.228L463.292 76.8848C470.861 60.7212 480.285 51.3092 494.415 51.3092C507.926 51.3092 513.862 60.5131 513.862 72.3837C513.827 73.8244 513.692 75.261 513.458 76.683C521.236 60.5131 531.063 51.3092 544.997 51.3092C558.716 51.3092 564.45 60.1349 564.45 71.7722C564.366 75.6292 563.886 79.4674 563.018 83.2266L549.848 136.048Z" fill="black"/>
<path d="M567.071 119.276C567.071 86.7367 593.906 51.1342 628.904 51.1342C645.7 51.1342 654.098 59.7322 654.098 71.8035C654.098 94.717 629.314 104.538 600.644 105.767C600.015 109.624 599.673 113.522 599.622 117.429C599.622 133.818 607.402 141.779 618.254 141.779C627.472 141.779 633.819 137.279 641.599 127.048H642.861C634.255 146.898 619.516 156.719 601.691 156.719C581.438 156.719 567.071 143.828 567.071 119.276ZM601.323 102.618C618.499 97.3037 631.38 77.4837 631.38 61.3344C631.38 57.2482 629.95 54.7991 627.292 54.7991C618.115 54.7991 605.644 79.9203 601.348 102.618H601.323Z" fill="black"/>
<path d="M657.246 149.465C657.204 153.41 653.973 156.577 650.023 156.544C646.072 156.512 642.893 153.293 642.916 149.348C642.939 145.403 646.155 142.22 650.106 142.234C654.07 142.279 657.256 145.506 657.246 149.465ZM656.547 149.575C656.505 146.067 653.631 143.254 650.118 143.281C646.605 143.309 643.776 146.168 643.79 149.676C643.804 153.184 646.655 156.021 650.168 156.021C651.867 156.009 653.492 155.323 654.683 154.114C655.875 152.905 656.537 151.272 656.521 149.575H656.547ZM650.847 150.068L653.226 153.403H652.299L649.97 150.112H648.398V153.403H647.634V145.375H650.342C652.103 145.375 652.867 146.392 652.867 147.719C652.91 148.301 652.718 148.876 652.333 149.316C651.949 149.755 651.404 150.022 650.822 150.056L650.847 150.068ZM648.508 149.564H650.233C651.72 149.564 652.178 148.741 652.178 147.867C652.178 146.852 651.482 146.248 650.415 146.248H648.533L648.508 149.564Z" fill="black"/>
</svg>
